<?xml version="1.0" encoding="UTF-8" standalone="no"?>
<!DOCTYPE svg PUBLIC "-//W3C//DTD SVG 1.1//EN" "http://www.w3.org/Graphics/SVG/1.1/DTD/svg11.dtd">
<svg width="100%" height="100%" viewBox="0 0 1278 1279" version="1.1" xmlns="http://www.w3.org/2000/svg" xmlns:xlink="http://www.w3.org/1999/xlink" xml:space="preserve" xmlns:serif="http://www.serif.com/" style="fill-rule:evenodd;clip-rule:evenodd;stroke-linejoin:round;stroke-miterlimit:2;">
    <g transform="matrix(1,0,0,1,0,-1658)">
        <g id="corner-top-left" transform="matrix(0.928524,0,0,0.928524,4272,2320.68)">
            <rect x="-4600.85" y="-713.077" width="1376.14" height="1376.14" style="fill:none;"/>
            <g transform="matrix(5.98321,0,0,5.98321,-3925.15,-465.003)">
                <path d="M0,44.5C-0.398,43.2 -0.895,41.92 -1.175,40.594C-1.753,37.86 -2.351,35.119 -2.697,32.35C-3.408,26.657 -3.461,20.958 -2.067,15.336C-1.421,12.727 -0.443,10.259 1.534,8.319C2.164,7.701 2.868,7.2 3.858,6.802C2.468,10.381 1.424,13.893 0.673,17.492C-0.074,21.076 -0.588,24.684 -0.662,28.348C-0.089,23.768 0.729,19.237 1.9,14.772C3.074,10.296 4.514,5.915 6.707,1.81C6.663,1.777 6.618,1.744 6.574,1.711C5.873,2.343 5.153,2.955 4.474,3.61C1.441,6.536 -1.369,9.654 -3.668,13.204C-4.029,13.76 -4.374,14.327 -4.728,14.888C-5.519,16.139 -5.665,17.505 -5.551,18.951C-5.408,20.774 -5.789,22.527 -6.441,24.228C-7.829,27.846 -10.039,30.95 -12.599,33.799C-14.204,35.586 -15.967,37.235 -17.705,38.897C-18.947,40.084 -20.194,41.287 -21.568,42.309C-23.542,43.778 -25.631,45.093 -27.678,46.465C-28.027,46.699 -28.409,46.886 -28.87,46.987C-28.61,46.688 -28.352,46.387 -28.089,46.091C-25.716,43.417 -23.763,40.447 -21.859,37.431C-19.893,34.317 -18.42,30.959 -16.786,27.679C-15.389,24.876 -14.033,22.046 -12.058,19.579C-10.94,18.182 -9.649,17.014 -7.932,16.398C-7.623,16.287 -7.301,16.211 -6.808,16.068C-9.356,23.283 -13.45,29.448 -17.702,35.546C-16.819,34.508 -15.83,33.541 -15.074,32.418C-13.327,29.824 -11.586,27.215 -10.046,24.497C-8.6,21.944 -7.385,19.258 -6.124,16.604C-4.982,14.202 -3.5,12.024 -1.909,9.91C-1.852,9.834 -1.797,9.759 -1.659,9.574C-2.854,9.67 -3.967,9.722 -4.861,10.407C-6.983,12.035 -9.421,12.764 -12.023,12.846C-15.673,12.962 -19.329,12.946 -22.982,12.919C-27.087,12.89 -31.19,12.934 -35.258,13.521C-37.44,13.836 -39.597,14.327 -41.959,14.775C-40.987,14.16 -40.168,13.594 -39.306,13.103C-35.608,10.996 -31.678,9.434 -27.636,8.124C-23.915,6.919 -20.134,6.021 -16.238,5.645C-13.577,5.389 -10.924,5.41 -8.33,6.163C-6.955,6.562 -5.71,7.212 -4.696,8.248C-4.565,8.382 -4.459,8.539 -4.245,8.805C-11.93,7.904 -19.364,8.665 -26.748,10.138C-26.743,10.202 -26.738,10.267 -26.733,10.331C-26.016,10.24 -25.301,10.139 -24.583,10.06C-22.254,9.802 -19.929,9.427 -17.593,9.328C-14.199,9.185 -10.796,9.223 -7.396,9.228C-5.993,9.23 -4.589,9.397 -3.186,9.398C-1.972,9.399 -1.031,8.865 -0.219,7.89C2.958,4.075 6.601,0.742 10.584,-2.22C10.709,-2.313 10.835,-2.435 10.977,-2.466C11.068,-2.487 11.286,-2.352 11.28,-2.309C11.26,-2.159 11.205,-1.973 11.097,-1.881C10.309,-1.209 9.47,-0.594 8.714,0.111C7.177,1.542 6.079,3.281 5.585,5.321C5.406,6.065 5.406,6.96 5.647,7.677C6.705,10.814 6.491,13.932 5.657,17.037C4.534,21.216 3.293,25.363 2.164,29.54C1.146,33.305 0.419,37.128 0.235,41.036C0.181,42.176 0.18,43.319 0.155,44.461C0.103,44.474 0.052,44.487 0,44.5" style="fill:rgb(61,123,81);fill-rule:nonzero;"/>
            </g>
            <g transform="matrix(5.98321,0,0,5.98321,-4066.02,-407.257)">
                <path d="M0,-32.242C-7.203,-27.906 -13.925,-23.312 -18.583,-16.292C-16.827,-19.626 -14.577,-22.596 -11.661,-24.964C-8.786,-27.298 -5.732,-29.413 -2.513,-31.805C-3.595,-31.742 -4.507,-31.781 -5.382,-31.62C-8.685,-31.013 -11.449,-29.343 -13.915,-27.128C-17.849,-23.594 -20.387,-19.171 -21.835,-14.152C-23.111,-9.733 -23.157,-5.219 -22.193,-0.711C-22.148,-0.498 -22.017,-0.304 -21.88,0C-21.719,-1.556 -21.672,-3.024 -21.398,-4.447C-20.856,-7.256 -19.559,-9.719 -17.835,-12.009C-14.466,-16.482 -9.993,-19.785 -5.903,-23.497C-3.888,-25.326 -2.135,-27.334 -1.337,-30.042C-1.125,-30.759 -0.546,-31.367 0,-32.242" style="fill:rgb(61,123,81);fill-rule:nonzero;"/>
            </g>
            <g transform="matrix(5.98321,0,0,5.98321,-4583.85,-325.954)">
                <path d="M0,-2.405C0.624,-2.388 1.249,-2.344 1.872,-2.358C7.917,-2.489 13.855,-3.415 19.716,-4.848C25.972,-6.378 32.045,-8.438 37.815,-11.327C41.662,-13.254 45.32,-15.482 48.462,-18.459C50.956,-20.821 52.982,-23.503 53.835,-26.91C54.016,-27.632 54.068,-28.387 54.106,-29.152C44.634,-20.722 34.079,-14.13 22.381,-9.37C29.39,-12.771 36.069,-16.735 42.448,-21.203C48.83,-25.673 54.894,-30.52 60.037,-36.437C60.087,-36.401 60.138,-36.365 60.188,-36.329C59.978,-35.778 59.789,-35.218 59.552,-34.678C58.255,-31.716 57.033,-28.718 55.621,-25.811C53.362,-21.159 50.612,-16.799 47.482,-12.674C45.951,-10.657 44.093,-9.237 41.623,-8.54C37.759,-7.45 34.632,-5.144 31.998,-2.19C30.481,-0.488 29.033,1.299 27.762,3.187C26.083,5.681 24.484,8.247 23.078,10.902C21.579,13.734 20.319,16.695 19.002,19.621C17.234,23.547 15.88,27.627 14.672,31.754C13.767,34.844 13.063,37.981 12.659,41.179C12.618,41.503 12.626,41.833 12.707,42.204C12.972,41.696 13.214,41.174 13.507,40.683C15.128,37.962 16.667,35.187 18.41,32.546C22.505,26.339 27.515,20.874 32.555,15.439C34.392,13.458 36.205,11.455 38.017,9.451C40.169,7.071 42.245,4.627 43.903,1.868C45.383,-0.595 46.466,-3.202 46.508,-6.139C46.512,-6.449 46.505,-6.76 46.48,-7.068C46.454,-7.376 46.399,-7.682 46.333,-8.161C35.979,0.739 28.258,11.598 21.077,22.919C21.318,22.419 21.521,21.896 21.807,21.424C23.939,17.916 26.044,14.39 28.247,10.926C29.464,9.013 30.77,7.143 32.181,5.369C36.308,0.18 40.819,-4.667 45.524,-9.336C47.248,-11.047 48.73,-12.965 50.083,-14.981C51.074,-16.457 52.068,-17.93 53.081,-19.436C53.141,-19.368 53.261,-19.296 53.274,-19.208C53.448,-18.07 53.659,-16.933 53.749,-15.786C53.797,-15.175 53.728,-14.515 53.543,-13.931C52.577,-10.886 52.714,-7.83 53.366,-4.764C54.405,0.126 56.323,4.718 58.182,9.328C58.834,10.944 59.618,12.508 60.239,14.135C61.063,16.293 61.812,18.481 62.545,20.673C63.338,23.045 64.126,25.421 64.829,27.821C66.254,32.692 67.264,37.649 67.702,42.713C67.71,42.805 67.752,42.893 67.898,43.015C67.958,42.853 68.036,42.695 68.074,42.528C68.997,38.532 69.571,34.481 69.79,30.391C69.971,27.015 70.105,23.627 70.048,20.249C69.941,13.866 69.333,7.531 67.763,1.314C66.867,-2.234 65.694,-5.669 63.843,-8.839C62.509,-11.125 60.88,-13.175 58.603,-14.602C57.768,-15.125 56.851,-15.516 55.878,-15.88C60.888,-6.096 63.97,4.247 65.846,14.973C65.781,14.995 65.717,15.017 65.652,15.039C65.574,14.828 65.482,14.62 65.422,14.404C64.596,11.403 63.807,8.391 62.943,5.401C61.239,-0.498 59.038,-6.213 56.531,-11.815C55.684,-13.706 54.846,-15.606 54.147,-17.553C53.848,-18.387 53.8,-19.359 53.855,-20.256C53.894,-20.882 54.259,-21.506 54.548,-22.097C56.036,-25.137 57.629,-28.128 59.029,-31.207C60.982,-35.499 62.453,-39.976 63.783,-44.498C64.024,-45.318 64.009,-45.343 63.084,-45.42C63.02,-45.218 62.945,-45.002 62.882,-44.783C62.083,-42.002 61.162,-39.274 59.471,-36.88C58.371,-35.322 57.063,-33.956 55.581,-32.757C54.249,-31.678 52.66,-31.413 51.016,-31.304C48.195,-31.116 45.498,-30.478 42.955,-29.188C39.99,-27.683 37.246,-25.842 34.589,-23.864C31.48,-21.548 28.411,-19.178 25.307,-16.856C20.348,-13.148 15.258,-9.64 9.761,-6.763C6.617,-5.117 3.373,-3.697 0.002,-2.576C0.002,-2.519 0.001,-2.462 0,-2.405" style="fill:rgb(61,123,81);fill-rule:nonzero;"/>
            </g>
            <g transform="matrix(5.98321,0,0,5.98321,-4361.08,-153.571)">
                <path d="M0,20.228C2.624,6.934 3.795,-6.431 2.099,-19.943C2.035,-19.955 1.97,-19.966 1.906,-19.978C1.863,-19.738 1.753,-19.488 1.789,-19.261C2.058,-17.599 1.63,-16.031 1.108,-14.497C0.914,-13.927 0.467,-13.437 0.109,-12.93C-1.149,-11.151 -1.824,-9.141 -2.282,-7.037C-3.136,-3.111 -3.193,0.88 -3.264,4.868C-3.33,8.54 -3.278,12.215 -3.405,15.885C-3.514,19.047 -3.724,22.21 -4.031,25.359C-4.505,30.244 -5.414,35.055 -6.879,39.75C-6.918,39.873 -6.941,40.001 -6.971,40.127C-6.926,40.154 -6.881,40.18 -6.837,40.206C-6.376,39.584 -5.892,38.978 -5.46,38.338C-3.442,35.348 -1.762,32.171 -0.234,28.908C1.9,24.352 3.746,19.682 5.104,14.84C5.955,11.804 6.715,8.731 7.293,5.634C8.089,1.372 8.395,-2.936 7.634,-7.256C7.231,-9.544 6.433,-11.675 5.05,-13.554C4.675,-14.063 4.166,-14.474 3.626,-14.918C4.618,-2.959 2.901,8.696 0,20.228" style="fill:rgb(61,123,81);fill-rule:nonzero;"/>
            </g>
            <g transform="matrix(5.98321,0,0,5.98321,-4469.51,-172.538)">
                <path d="M0,27.424C0.32,26.632 0.64,25.839 0.961,25.047C1.957,22.587 3.277,20.298 4.73,18.089C6.522,15.362 8.411,12.699 10.176,9.955C11.277,8.244 12.012,6.38 11.99,4.273C11.977,3.07 12.832,2.272 13.562,1.443C13.975,0.973 14.397,0.511 14.756,0C10.147,4.593 6.554,9.895 3.835,15.805C3.773,15.774 3.711,15.743 3.649,15.713C3.974,14.995 4.291,14.273 4.627,13.559C4.968,12.834 5.313,12.11 5.685,11.4C6.065,10.672 6.468,9.955 6.882,9.246C7.286,8.556 7.698,7.869 8.14,7.202C8.592,6.519 9.076,5.856 9.564,5.197C10.036,4.56 10.532,3.939 11.017,3.311C10.994,3.254 10.971,3.198 10.948,3.141C10.595,3.232 10.229,3.291 9.89,3.421C8.296,4.028 7.147,5.185 6.158,6.52C4.124,9.264 2.887,12.388 1.874,15.616C0.862,18.843 0.176,22.136 -0.111,25.508C-0.163,26.123 -0.141,26.745 -0.153,27.363C-0.102,27.384 -0.051,27.404 0,27.424" style="fill:rgb(61,123,81);fill-rule:nonzero;"/>
            </g>
            <g transform="matrix(5.98321,0,0,5.98321,-3755.87,-677.173)">
                <path d="M0,23.164C-0.046,23.174 -0.092,23.183 -0.138,23.191C-0.354,23.233 -0.612,23.249 -0.77,23.051C-0.967,22.804 -0.871,22.414 -0.756,22.121C1.161,17.226 5.262,13.778 9.812,13.235C9.402,12.918 8.914,12.818 8.442,12.725C6.649,12.373 4.857,12.021 3.064,11.668C2.481,11.554 1.883,11.439 1.314,11.567C0.333,11.787 -0.403,12.678 -1.096,13.511C-2.239,14.883 -3.437,16.213 -4.831,17.207C-6.225,18.202 -7.837,18.851 -9.502,18.768C-9.825,18.752 -10.238,18.613 -10.289,18.226C-10.32,17.987 -10.186,17.779 -10.058,17.605C-7.537,14.194 -3.939,11.974 -0.085,11.453C-0.26,11.233 -0.531,11.193 -0.777,11.169C-4.469,10.818 -8.17,11.021 -11.767,11.772C-11.889,11.798 -12.032,11.787 -12.154,11.741C-12.212,11.719 -12.278,11.686 -12.316,11.623C-12.463,11.375 -12.113,11.402 -12.007,11.383C-11.871,11.359 -11.734,11.335 -11.598,11.312C-11.325,11.266 -11.052,11.222 -10.778,11.18C-10.231,11.097 -9.683,11.024 -9.133,10.961C-8.033,10.835 -6.929,10.748 -5.821,10.7C-4.713,10.652 -3.602,10.644 -2.49,10.676C-2.156,10.685 -1.823,10.698 -1.489,10.714C-1.322,10.723 -1.155,10.732 -0.988,10.742C-0.905,10.747 -0.821,10.752 -0.738,10.758C-0.681,10.761 -0.535,10.739 -0.487,10.775C-3.298,8.665 -6.647,7.68 -9.177,5.091C-9.475,4.787 -9.84,4.175 -9.394,3.94C-8.945,3.705 -8.275,3.736 -7.785,3.763C-6.708,3.822 -5.634,4.205 -4.653,4.802C-3.136,5.726 -1.836,7.13 -0.68,8.647C-0.04,9.486 0.592,10.392 1.441,10.874C1.996,11.189 2.605,11.299 3.204,11.404C5.415,11.796 7.626,12.187 9.837,12.578C6.403,10.059 3.232,6.987 0.443,3.477C-0.163,2.713 -0.768,1.898 -1.065,0.916C-1.135,0.683 -1.18,0.4 -1.049,0.225C-0.962,0.109 -0.822,0.077 -0.69,0.06C0.467,-0.085 1.626,0.547 2.686,1.224C5.837,3.232 8.961,6.092 10.063,10.138C10.337,11.14 10.583,12.345 11.39,12.768C11.721,12.942 12.088,12.939 12.441,12.934C13.78,12.914 15.119,12.893 16.458,12.873C16.545,13.199 16.159,13.353 15.879,13.346C14.746,13.32 13.614,13.294 12.482,13.268C12.047,13.258 11.604,13.25 11.196,13.403C10.506,13.661 10.009,14.342 9.543,14.993C8.231,16.824 6.888,18.642 5.307,20.138C3.763,21.6 1.97,22.753 0,23.164" style="fill:rgb(6,103,56);fill-rule:nonzero;"/>
            </g>
            <g transform="matrix(5.98321,0,0,5.98321,-3921.58,-684.933)">
                <path d="M0,34.704C-0.042,34.105 0.405,33.855 0.816,33.583C0.883,33.54 0.978,33.53 1.057,33.531C2.052,33.566 2.569,32.875 3.049,32.181C3.547,31.461 4.003,30.701 4.142,29.81C4.18,29.578 4.118,29.268 3.871,29.168C3.659,29.085 3.573,29.366 3.45,29.497C1.454,31.712 -0.807,33.59 -3.477,34.948C-3.786,35.103 -3.877,35.376 -4.018,35.633C-4.339,36.243 -4.858,36.569 -5.536,36.605C-6.105,36.633 -6.389,36.206 -6.166,35.681C-5.882,35.003 -5.358,34.626 -4.624,34.678C-3.983,34.726 -3.397,34.566 -2.903,34.235C-0.845,32.87 1.123,31.394 2.81,29.573C3.051,29.309 3.284,29.023 3.319,28.652C3.347,28.329 3.399,27.918 3.137,27.719C2.806,27.465 2.671,27.962 2.416,28.076C2.246,28.148 2.108,28.299 1.971,28.432C-0.532,30.865 -3.47,32.639 -6.624,34.073C-6.874,34.191 -7.146,34.251 -7.29,34.519C-7.765,35.42 -8.4,35.764 -9.367,35.642C-9.707,35.597 -10.048,35.516 -10.147,35.148C-10.261,34.74 -9.936,34.574 -9.648,34.404C-9.334,34.221 -8.996,34.044 -8.643,34.082C-7.252,34.226 -6.183,33.454 -5.055,32.858C-4.598,32.611 -4.176,32.291 -3.707,32.07C-1.381,30.992 0.419,29.214 2.307,27.556C2.689,27.219 2.964,26.756 2.536,26.263C2.092,25.754 1.771,26.312 1.506,26.506C-0.89,28.261 -3.421,29.769 -6.18,30.887C-6.737,31.112 -7.296,31.292 -7.487,32.001C-7.574,32.329 -7.977,32.507 -8.335,32.586C-8.737,32.676 -9.245,32.797 -9.439,32.355C-9.64,31.896 -9.219,31.595 -8.828,31.437C-8.071,31.125 -7.292,30.87 -6.534,30.572C-3.579,29.41 -0.862,27.845 1.631,25.885C2.023,25.579 2.143,25.279 1.83,24.842C1.487,24.363 1.178,24.698 0.936,24.897C-0.37,25.984 -1.981,26.511 -3.408,27.357C-5.835,28.794 -8.54,29.478 -11.12,30.494C-11.39,30.601 -11.704,30.603 -12.005,30.631C-12.265,30.658 -12.511,30.59 -12.617,30.324C-12.718,30.062 -12.588,29.829 -12.406,29.662C-11.844,29.136 -11.12,28.885 -10.438,29.171C-9.725,29.472 -9.128,29.356 -8.459,29.165C-5.829,28.414 -3.607,26.787 -1.108,25.761C-0.286,25.425 0.424,24.815 1.092,24.202C1.538,23.796 1.138,23.455 0.99,23.099C0.898,22.891 0.734,22.82 0.529,22.99C-0.597,23.929 -1.921,24.541 -3.215,25.177C-5.199,26.156 -7.196,27.118 -9.423,27.488C-10.911,27.733 -12.506,27.439 -13.888,28.334C-14.09,28.463 -14.511,28.463 -14.728,28.197C-14.922,27.963 -15.028,27.637 -14.893,27.348C-14.639,26.809 -14.138,26.579 -13.574,26.491C-13.14,26.424 -12.741,26.459 -12.566,26.963C-12.481,27.209 -12.293,27.291 -12.057,27.291C-10.848,27.302 -9.606,27.322 -8.473,26.933C-5.939,26.068 -3.461,25.021 -1.158,23.623C-0.63,23.3 -0.085,22.998 0.233,22.394C0.508,21.87 0.298,21.472 0.033,21.107C-0.245,20.72 -0.569,21.071 -0.838,21.186C-3.452,22.31 -6.071,23.401 -8.829,24.167C-10.815,24.721 -12.845,24.99 -14.859,25.391C-15.173,25.454 -15.466,25.384 -15.639,25.078C-15.772,24.844 -15.748,24.609 -15.589,24.385C-15.232,23.881 -14.125,23.778 -13.795,24.292C-13.559,24.653 -13.297,24.667 -12.966,24.625C-12.422,24.554 -11.877,24.493 -11.344,24.378C-7.704,23.609 -4.244,22.336 -0.907,20.712C-0.142,20.338 -0.029,19.932 -0.542,18.985C-0.942,18.256 -1.391,18.881 -1.677,19.064C-3.557,20.268 -5.688,20.812 -7.795,21.384C-8.963,21.7 -10.229,21.614 -11.189,22.582C-11.549,22.943 -12.115,22.87 -12.588,22.624C-12.789,22.521 -12.794,22.314 -12.755,22.118C-12.648,21.583 -12.247,21.368 -11.777,21.235C-11.33,21.106 -10.886,20.963 -10.434,21.249C-10.213,21.39 -9.95,21.298 -9.709,21.275C-8.257,21.123 -6.851,20.798 -5.475,20.302C-4.056,19.791 -2.628,19.31 -1.383,18.422C-0.9,18.079 -0.763,17.355 -1.14,16.835C-1.491,16.358 -1.803,16.855 -2.126,16.947C-2.259,16.981 -2.376,17.064 -2.495,17.129C-5.231,18.572 -8.162,19.443 -11.162,20.104C-12.776,20.461 -14.481,20.412 -15.991,21.261C-16.386,21.484 -16.857,21.313 -17.053,20.918C-17.222,20.574 -17.015,20.181 -16.658,20.033C-16.181,19.834 -15.642,19.667 -15.168,20.01C-14.84,20.25 -14.503,20.244 -14.154,20.199C-10.767,19.76 -7.505,18.851 -4.345,17.574C-3.435,17.21 -2.54,16.78 -1.714,16.235C-1.236,15.92 -1.274,15.464 -1.473,15.074C-1.674,14.675 -2.048,14.918 -2.332,15.055C-4.391,16.064 -6.616,16.502 -8.828,17.031C-10.616,17.457 -12.47,17.671 -14.191,18.382C-14.443,18.486 -14.787,18.651 -14.987,18.261C-15.18,17.879 -14.926,17.641 -14.669,17.421C-14.298,17.099 -13.819,16.877 -13.381,17.077C-12.51,17.474 -11.687,17.35 -10.822,17.114C-10.006,16.89 -9.177,16.688 -8.343,16.549C-6.139,16.178 -4.073,15.372 -2.019,14.539C-1.367,14.271 -1.554,13.722 -1.666,13.268C-1.796,12.761 -2.228,13.018 -2.49,13.114C-5.169,14.062 -8.02,14.195 -10.757,14.857C-12.66,15.319 -14.686,15.194 -16.495,16.114C-17.005,16.373 -17.58,16.338 -17.991,15.833C-18.19,15.591 -18.161,15.276 -17.956,15.074C-17.516,14.635 -16.898,14.594 -16.427,14.859C-15.519,15.37 -14.618,15.156 -13.717,15.007C-11.265,14.593 -8.819,14.144 -6.373,13.694C-5.028,13.448 -3.702,13.117 -2.398,12.697C-1.57,12.43 -1.858,11.883 -1.942,11.373C-2.051,10.705 -2.552,10.932 -2.911,11.029C-3.701,11.244 -4.468,11.548 -5.256,11.777C-7.074,12.305 -8.989,12.362 -10.813,12.886C-11.774,13.16 -12.784,13.178 -13.719,13.652C-14.499,14.046 -15.072,13.663 -14.959,12.994C-14.859,12.414 -14.397,12.203 -13.912,12.082C-13.44,11.962 -12.863,11.748 -12.556,12.264C-12.249,12.785 -11.863,12.707 -11.44,12.632C-10.662,12.492 -9.884,12.32 -9.072,12.158C-6.851,11.956 -4.73,11.2 -2.578,10.556C-1.862,10.343 -1.823,9.791 -1.896,9.257C-1.979,8.636 -2.512,8.955 -2.824,8.999C-6.673,9.528 -10.523,10.08 -14.37,10.65C-14.886,10.725 -15.393,10.795 -15.755,11.355C-16.019,11.766 -16.618,11.873 -17.075,11.519C-17.458,11.227 -17.468,10.747 -17.167,10.423C-16.807,10.03 -16.233,9.737 -15.757,10.033C-15.004,10.499 -14.27,10.343 -13.532,10.21C-9.837,9.557 -6.131,8.972 -2.394,8.613C-1.493,8.524 -1.758,7.857 -1.706,7.387C-1.638,6.817 -2.127,6.943 -2.459,6.944C-6.135,6.951 -9.781,7.388 -13.436,7.674C-13.934,7.715 -14.387,7.744 -14.662,8.3C-14.867,8.706 -15.329,8.709 -15.76,8.669C-16.047,8.644 -16.311,8.611 -16.416,8.29C-16.529,7.952 -16.376,7.687 -16.117,7.504C-15.63,7.155 -15.096,6.966 -14.495,7.173C-14.041,7.324 -13.586,7.337 -13.116,7.296C-10.661,7.081 -8.212,6.858 -5.756,6.68C-4.608,6.599 -3.458,6.618 -2.309,6.57C-1.542,6.538 -1.219,6.178 -1.214,5.345C-1.205,4.631 -1.845,4.828 -2.191,4.803C-3.093,4.74 -3.987,4.615 -4.873,4.447C-5.711,4.296 -6.556,4.122 -7.402,4.272C-9.129,4.586 -10.874,4.756 -12.623,4.903C-13.239,4.957 -13.851,5.038 -14.306,5.59C-14.61,5.956 -15.096,5.893 -15.537,5.85C-15.819,5.82 -16.002,5.687 -16.084,5.427C-16.181,5.132 -16.083,4.895 -15.845,4.705C-15.367,4.325 -14.817,4.323 -14.279,4.457C-13.952,4.536 -13.625,4.586 -13.307,4.546C-11.788,4.352 -10.233,4.448 -8.736,4.086C-7.282,3.74 -5.866,3.894 -4.425,4.147C-3.437,4.317 -2.419,4.348 -1.413,4.451C-0.835,4.509 -0.727,4.076 -0.63,3.686C-0.514,3.211 -0.958,3.335 -1.171,3.299C-2.76,3.018 -4.347,2.715 -5.944,2.523C-7.381,2.354 -8.827,2.19 -10.278,2.406C-10.567,2.451 -10.878,2.379 -11.05,2.734C-11.413,3.494 -12.106,3.527 -12.809,3.465C-13.616,3.392 -14.157,2.944 -14.081,2.456C-14.007,1.977 -13.209,1.548 -12.543,1.639C-12.358,1.666 -12.141,1.692 -12.004,1.805C-11.74,2.014 -11.466,2.017 -11.158,2.006C-9.518,1.937 -7.879,1.858 -6.24,2.107C-4.914,2.308 -3.599,2.589 -2.254,2.644C-2.104,2.653 -1.88,2.757 -1.828,2.554C-1.775,2.361 -1.997,2.299 -2.138,2.228C-3.098,1.767 -4.062,1.302 -5.026,0.845C-5.859,0.452 -6.624,-0.183 -7.675,0.402C-8.075,0.626 -8.579,0.334 -8.898,-0.056C-9.109,-0.314 -9.147,-0.619 -8.969,-0.9C-8.674,-1.353 -8.2,-1.395 -7.728,-1.334C-7.312,-1.278 -6.906,-1.133 -6.729,-0.708C-6.596,-0.391 -6.332,-0.27 -6.062,-0.136C-5.4,0.191 -4.735,0.513 -4.066,0.835C-3.202,1.242 -2.334,1.648 -1.467,2.054C-1.348,2.105 -1.233,2.221 -1.101,2.113C-1.064,2.084 -1.065,1.932 -1.103,1.896C-1.811,1.294 -2.057,0.157 -3.184,0.05C-3.766,-0.003 -3.947,-0.307 -3.853,-0.831C-3.74,-1.445 -3.126,-1.929 -2.544,-1.843C-1.935,-1.762 -1.878,-1.276 -2.015,-0.853C-2.214,-0.225 -1.966,0.208 -1.591,0.631C-1.018,1.277 -0.581,2.277 0.157,2.741C0.705,3.081 1.374,3.134 2,3.111C5.301,2.987 7.944,4.43 10.196,6.656C11.654,8.095 12.986,9.673 14.793,10.706C15.42,11.059 16.112,11.321 16.785,11.585C17.134,11.722 18.105,11.975 18.156,12.422C18.171,12.558 18.11,12.69 18.045,12.81C17.824,13.217 17.395,13.513 17.078,13.855C16.722,14.237 16.377,14.628 16.051,15.036C15.413,15.833 14.848,16.694 14.44,17.633C13.521,19.75 12.3,21.6 10.725,23.279C8.983,25.131 7.31,27.047 5.367,28.704C5.11,28.924 4.657,28.99 4.622,29.416C4.451,31.654 2.632,33.009 1.705,34.841C1.479,35.293 0.961,35.47 0.417,35.333C0.081,35.251 0.016,34.988 0,34.704" style="fill:rgb(38,62,84);fill-rule:nonzero;"/>
            </g>
            <g transform="matrix(5.98321,0,0,5.98321,-4437.28,-465.608)">
                <path d="M0,-10.197C-0.169,-10.26 -0.24,-10.073 -0.314,-9.965C-0.733,-9.371 -1.14,-8.77 -1.557,-8.173C-2.264,-7.165 -2.95,-6.15 -3.464,-5.018C-3.91,-4.031 -4.219,-2.991 -4.828,-2.06C-5.802,-0.572 -6.913,0.789 -8.158,2.051C-8.839,2.742 -9.411,3.526 -9.944,4.322C-10.833,5.647 -11.44,7.106 -11.485,8.742C-11.488,8.802 -11.503,8.916 -11.522,8.916C-11.633,8.929 -11.62,8.821 -11.638,8.758C-11.931,7.721 -12.126,6.671 -12.187,5.589C-12.266,4.161 -11.849,2.913 -10.971,1.821C-10.316,1.008 -9.641,0.209 -8.913,-0.538C-7.533,-1.952 -6.485,-3.511 -6.01,-5.487C-5.372,-8.16 -5.076,-10.83 -5.364,-13.569C-5.567,-15.519 -5.717,-17.474 -5.501,-19.437C-5.446,-19.938 -5.446,-20.447 -5.43,-20.951C-5.425,-21.117 -5.467,-21.281 -5.649,-21.334C-5.807,-21.379 -5.913,-21.27 -6.01,-21.16C-6.377,-20.737 -6.651,-20.257 -6.834,-19.73C-7.285,-18.429 -7.839,-17.173 -8.393,-15.914C-8.918,-14.722 -9.343,-13.495 -9.556,-12.213C-9.878,-10.295 -9.86,-8.34 -10.037,-6.403C-10.166,-4.991 -10.472,-3.617 -11.036,-2.321C-11.569,-1.108 -12.221,0.056 -12.496,1.37C-12.511,1.441 -12.554,1.51 -12.583,1.578C-12.593,1.502 -12.614,1.428 -12.614,1.351C-12.614,0.479 -12.653,-0.392 -12.647,-1.265C-12.643,-1.807 -12.603,-2.368 -12.586,-2.917C-12.557,-3.821 -12.55,-4.731 -12.69,-5.627C-12.822,-6.477 -13.042,-7.292 -12.977,-8.162C-12.965,-8.331 -13.229,-8.331 -13.241,-8.162C-13.289,-7.521 -13.264,-6.947 -13.11,-6.324C-12.713,-4.725 -12.839,-2.904 -12.861,-1.267C-12.862,-1.171 -12.857,0.191 -12.952,0.188C-13.05,0.185 -13.047,0.082 -13.071,0.016C-13.435,-1.063 -13.873,-2.086 -14.577,-3.018C-15.445,-4.158 -16.171,-5.408 -16.933,-6.627C-18.079,-8.456 -18.867,-10.424 -19.105,-12.587C-19.192,-13.371 -19.189,-14.163 -19.245,-14.949C-19.321,-16.075 -19.268,-17.191 -19.229,-18.313C-19.224,-18.463 -19.118,-18.682 -19.311,-18.73C-19.524,-18.78 -19.498,-18.526 -19.553,-18.395C-20.126,-17.038 -20.469,-15.603 -20.894,-14.2C-21.239,-13.049 -21.501,-11.867 -21.363,-10.648C-21.234,-9.5 -21.028,-8.369 -20.698,-7.258C-20.121,-5.313 -19.197,-3.588 -17.772,-2.118C-17.092,-1.414 -16.416,-0.704 -15.738,0.003C-14.667,1.117 -13.947,2.486 -13.021,3.708C-12.794,4.008 -12.691,4.354 -12.633,4.713C-12.49,5.599 -12.361,6.489 -12.224,7.378C-12.2,7.539 -12.055,7.779 -12.219,7.837C-12.356,7.887 -12.456,7.61 -12.509,7.459C-12.96,6.204 -13.873,5.312 -14.838,4.46C-15.538,3.845 -16.295,3.288 -16.944,2.623C-18.028,1.52 -19.092,0.396 -19.92,-0.931C-20.836,-2.395 -22.005,-3.712 -22.559,-5.39C-22.593,-5.49 -22.64,-5.625 -22.785,-5.572C-22.894,-5.535 -22.888,-5.408 -22.862,-5.324C-22.698,-4.767 -22.775,-4.192 -22.743,-3.625C-22.654,-2.034 -22.25,-0.503 -21.854,1.024C-21.456,2.557 -20.72,3.89 -19.485,4.932C-19.023,5.322 -18.522,5.649 -18.042,6.006C-16.759,6.958 -15.469,7.897 -14.155,8.8C-13.261,9.414 -12.242,9.86 -11.736,10.921C-11.654,11.093 -11.398,11.182 -11.205,11.164C-11.039,11.148 -11.108,10.924 -11.073,10.797C-10.812,9.805 -10.263,8.984 -9.58,8.243C-8.593,7.172 -7.522,6.188 -6.374,5.296C-4.863,4.119 -3.438,2.845 -2.103,1.473C-1.686,1.043 -1.401,0.544 -1.219,-0.023C-0.781,-1.39 -0.62,-2.817 -0.609,-4.229C-0.594,-6.126 -0.28,-7.97 0.053,-9.82C0.077,-9.946 0.185,-10.126 0,-10.197" style="fill:rgb(6,103,56);fill-rule:nonzero;"/>
            </g>
            <g transform="matrix(5.98321,0,0,5.98321,-4475.69,-579.004)">
                <path d="M0,-8.033C1.699,-9.414 2.704,-11.378 4.153,-12.971C4.341,-13.179 4.309,-13.467 4.188,-13.723C4.106,-13.891 3.956,-13.932 3.786,-13.888C3.489,-13.808 3.365,-13.591 3.342,-13.3C3.336,-13.197 3.321,-13.088 3.336,-12.985C3.371,-12.724 3.271,-12.497 3.157,-12.28C2.348,-10.746 1.12,-9.552 -0.059,-8.318C-0.129,-8.245 -0.229,-8.195 -0.323,-8.145C-0.444,-8.08 -0.585,-7.968 -0.708,-8.083C-0.858,-8.215 -0.702,-8.336 -0.632,-8.447C0.006,-9.467 0.359,-10.622 0.897,-11.689C1.096,-12.08 1.205,-12.486 1.675,-12.691C2.002,-12.832 2.043,-13.194 1.931,-13.523C1.875,-13.694 1.722,-13.835 1.526,-13.788C1.199,-13.711 1.008,-13.494 1.02,-13.141C1.032,-12.78 0.923,-12.445 0.776,-12.121C0.359,-11.21 -0.059,-10.299 -0.497,-9.397C-0.658,-9.065 -0.87,-8.756 -1.067,-8.444C-1.184,-8.259 -1.349,-8.168 -1.561,-8.297C-1.822,-8.459 -1.59,-8.609 -1.516,-8.732C-0.65,-10.14 -0.279,-11.698 -0.041,-13.314C0.065,-14.017 0.077,-14.781 0.685,-15.337C0.888,-15.525 0.908,-15.848 0.891,-16.136C0.882,-16.265 0.847,-16.392 0.72,-16.445C0.57,-16.506 0.514,-16.365 0.423,-16.286C0.088,-15.986 0.029,-15.619 -0.012,-15.172C-0.156,-13.614 -0.494,-12.083 -0.932,-10.581C-1.14,-9.852 -1.555,-9.209 -2.01,-8.6C-2.131,-8.439 -2.281,-8.424 -2.428,-8.509C-2.589,-8.603 -2.454,-8.721 -2.41,-8.824C-1.464,-10.969 -0.817,-13.182 -0.802,-15.554C-0.799,-16.23 -0.694,-16.897 -0.076,-17.338C0.068,-17.441 0.094,-17.605 0.138,-17.752C0.229,-18.055 0.25,-18.414 -0.106,-18.514C-0.511,-18.628 -0.62,-18.24 -0.644,-17.955C-0.72,-17.012 -1.043,-16.118 -1.07,-15.151C-1.123,-13.109 -1.722,-11.169 -2.489,-9.282C-2.627,-8.944 -2.804,-8.641 -3.239,-8.662C-3.506,-8.674 -3.621,-8.753 -3.5,-9.059C-2.886,-10.608 -2.745,-12.268 -2.425,-13.885C-2.278,-14.622 -2.372,-15.445 -1.713,-16.027C-1.602,-16.124 -1.59,-16.353 -1.566,-16.524C-1.54,-16.689 -1.599,-16.847 -1.766,-16.921C-1.946,-17 -2.098,-16.938 -2.239,-16.797C-2.498,-16.533 -2.53,-16.207 -2.507,-15.869C-2.486,-15.572 -2.448,-15.278 -2.504,-14.975C-2.78,-13.488 -3.042,-11.995 -3.321,-10.505C-3.418,-9.985 -3.612,-9.491 -3.871,-9.026C-4.047,-8.709 -4.326,-8.794 -4.57,-8.862C-4.876,-8.947 -4.702,-9.176 -4.647,-9.338C-4.25,-10.546 -3.95,-11.777 -3.8,-13.038C-3.677,-14.07 -3.444,-15.087 -3.427,-16.13C-3.418,-16.803 -3.65,-17.491 -3.201,-18.129C-3.068,-18.314 -3.186,-18.578 -3.35,-18.758C-3.459,-18.875 -3.606,-18.869 -3.738,-18.787C-3.944,-18.664 -4.006,-18.47 -3.976,-18.24C-3.956,-18.085 -3.935,-17.929 -3.894,-17.776C-3.68,-17.003 -3.624,-16.221 -3.738,-15.428C-3.835,-14.749 -3.962,-14.073 -4.05,-13.391C-4.238,-11.957 -4.47,-10.537 -5.049,-9.197C-5.134,-8.997 -5.217,-8.841 -5.464,-8.912C-5.684,-8.971 -5.631,-9.135 -5.602,-9.297C-5.267,-11.098 -4.996,-12.906 -4.841,-14.734C-4.767,-15.592 -4.602,-16.453 -4.849,-17.306C-4.938,-17.617 -4.987,-17.882 -4.817,-18.205C-4.676,-18.47 -4.611,-18.828 -4.911,-19.081C-5.04,-19.193 -5.223,-19.184 -5.349,-19.063C-5.631,-18.79 -5.593,-18.464 -5.467,-18.132C-5.455,-18.099 -5.431,-18.073 -5.414,-18.04C-5.117,-17.564 -4.987,-17.035 -5.008,-16.48C-5.085,-14.19 -5.358,-11.918 -5.816,-9.676C-5.872,-9.388 -5.793,-8.865 -6.26,-8.909C-6.721,-8.953 -6.63,-9.455 -6.619,-9.776C-6.569,-11.251 -6.557,-12.735 -6.263,-14.184C-6.14,-14.787 -6.14,-15.457 -5.608,-15.93C-5.449,-16.068 -5.449,-16.309 -5.628,-16.503C-5.834,-16.724 -6.072,-16.691 -6.31,-16.592C-6.563,-16.483 -6.572,-16.236 -6.475,-16.051C-6.184,-15.495 -6.378,-14.952 -6.466,-14.402C-6.504,-14.161 -6.536,-13.914 -6.575,-13.673C-6.816,-12.174 -6.895,-10.669 -6.848,-9.153C-6.836,-8.788 -7.127,-8.856 -7.342,-8.856C-7.553,-8.853 -7.821,-8.853 -7.733,-9.182C-7.365,-10.54 -7.474,-11.948 -7.301,-13.32C-7.059,-15.225 -7.356,-17.159 -6.939,-19.049C-6.895,-19.251 -6.965,-19.448 -7.221,-19.469C-7.468,-19.489 -7.7,-19.419 -7.756,-19.148C-7.788,-18.981 -7.8,-18.769 -7.724,-18.631C-7.245,-17.782 -7.345,-16.862 -7.389,-15.957C-7.456,-14.499 -7.624,-13.047 -7.642,-11.586C-7.653,-10.734 -7.9,-9.917 -8.021,-9.082C-8.035,-8.976 -8.068,-8.859 -8.191,-8.844C-8.323,-8.827 -8.362,-8.947 -8.403,-9.041C-8.567,-9.42 -8.594,-9.826 -8.644,-10.228C-8.858,-11.91 -8.726,-13.605 -8.882,-15.29C-8.92,-15.701 -8.888,-16.057 -8.547,-16.392C-8.273,-16.659 -8.291,-17.071 -8.514,-17.42C-8.617,-17.585 -8.788,-17.6 -8.935,-17.529C-9.317,-17.347 -9.364,-17 -9.32,-16.63C-9.305,-16.506 -9.276,-16.386 -9.231,-16.271C-9.158,-16.086 -9.137,-15.898 -9.14,-15.701C-9.149,-14.519 -8.999,-13.347 -9.029,-12.162C-9.052,-11.157 -8.958,-10.161 -8.726,-9.176C-8.682,-8.988 -8.641,-8.771 -8.902,-8.697C-9.173,-8.618 -9.22,-8.838 -9.29,-9.018C-9.308,-9.068 -9.331,-9.118 -9.34,-9.167C-9.519,-10.102 -9.849,-10.998 -9.937,-11.954C-10.007,-12.759 -10.104,-13.561 -10.204,-14.364C-10.337,-15.448 -10.863,-16.503 -10.522,-17.638C-10.492,-17.732 -10.51,-17.852 -10.542,-17.949C-10.61,-18.158 -10.722,-18.358 -10.968,-18.361C-11.186,-18.364 -11.315,-18.205 -11.377,-18.008C-11.509,-17.585 -11.594,-17.168 -11.095,-16.912C-11.007,-16.868 -10.945,-16.812 -10.93,-16.721C-10.725,-15.58 -10.366,-14.461 -10.295,-13.3C-10.225,-12.154 -10.131,-11.022 -9.787,-9.92C-9.684,-9.582 -9.62,-9.235 -9.537,-8.891C-9.473,-8.624 -9.634,-8.544 -9.852,-8.518C-10.101,-8.486 -10.148,-8.624 -10.134,-8.838C-10.119,-9.065 -10.131,-9.294 -10.131,-9.523C-10.069,-10.24 -10.248,-10.919 -10.401,-11.61C-10.657,-12.777 -11.265,-13.838 -11.4,-15.046C-11.433,-15.334 -11.691,-15.531 -12.012,-15.536C-12.241,-15.539 -12.417,-15.416 -12.479,-15.181C-12.559,-14.884 -12.215,-14.234 -11.912,-14.217C-11.547,-14.193 -11.433,-13.961 -11.324,-13.702C-10.93,-12.774 -10.725,-11.789 -10.498,-10.813C-10.337,-10.114 -10.378,-9.414 -10.472,-8.712C-10.486,-8.591 -10.498,-8.436 -10.645,-8.415C-10.845,-8.392 -10.839,-8.574 -10.866,-8.706C-11.074,-9.829 -11.739,-10.737 -12.329,-11.666C-12.917,-12.592 -13.499,-13.506 -13.731,-14.596C-13.811,-14.975 -13.846,-15.313 -13.505,-15.604C-13.311,-15.772 -13.243,-16.036 -13.284,-16.286C-13.337,-16.6 -13.349,-17.047 -13.802,-17C-14.201,-16.959 -14.325,-16.574 -14.328,-16.198C-14.328,-16.06 -14.263,-15.924 -14.228,-15.789C-14.187,-15.636 -14.125,-15.486 -14.104,-15.334C-13.899,-13.867 -13.27,-12.592 -12.435,-11.381C-11.88,-10.572 -11.374,-9.714 -11.157,-8.732C-11.11,-8.515 -11.013,-8.28 -11.333,-8.159C-11.647,-8.042 -11.768,-8.224 -11.909,-8.456C-12.456,-9.376 -13.008,-10.296 -13.584,-11.201C-13.922,-11.733 -14.34,-12.204 -14.237,-12.924C-14.184,-13.317 -14.636,-13.406 -14.901,-13.582C-15.036,-13.67 -15.171,-13.626 -15.28,-13.508C-15.571,-13.194 -15.351,-12.156 -14.942,-12.142C-14.419,-12.121 -14.26,-11.769 -14.055,-11.448C-13.449,-10.496 -12.861,-9.538 -12.282,-8.571C-12.174,-8.392 -11.965,-8.168 -12.194,-7.957C-12.42,-7.754 -12.711,-7.719 -12.982,-7.892C-13.79,-8.418 -14.642,-8.885 -15.371,-9.529C-15.709,-9.826 -16.088,-10.07 -15.944,-10.649C-15.886,-10.884 -16.029,-11.172 -16.332,-11.269C-16.517,-11.331 -16.679,-11.284 -16.808,-11.137C-17.005,-10.916 -16.926,-10.69 -16.858,-10.443C-16.732,-9.967 -16.256,-9.946 -15.959,-9.696C-15.201,-9.068 -14.448,-8.439 -13.581,-7.957C-13.408,-7.86 -13.061,-7.733 -13.164,-7.504C-13.273,-7.254 -13.578,-7.451 -13.781,-7.51C-14.431,-7.701 -15.13,-7.766 -15.642,-8.306C-15.765,-8.439 -15.994,-8.483 -16.174,-8.324C-16.271,-8.239 -16.326,-8.115 -16.262,-7.992C-16.121,-7.719 -15.938,-7.439 -15.594,-7.48C-14.924,-7.56 -14.31,-7.36 -13.678,-7.201C-13.27,-7.101 -13.129,-6.916 -13.117,-6.478C-13.067,-4.3 -12.532,-2.293 -10.877,-0.738C-9.202,0.834 -8.708,2.865 -8.611,5.052C-8.55,6.512 -8.485,7.976 -8.264,9.419C-8.194,9.88 -8.093,10.365 -7.815,10.751C-7.497,11.191 -6.954,11.456 -6.42,11.389C-5.94,11.328 -5.606,10.84 -5.387,10.435C-5.139,9.975 -5.011,9.462 -4.902,8.955C-4.529,7.218 -4.55,5.463 -4.658,3.7C-4.729,2.551 -4.638,1.413 -4.059,0.37C-3.721,-0.242 -3.177,-0.677 -2.739,-1.203C-1.352,-2.878 -0.738,-4.891 -0.338,-6.981C-0.294,-7.219 -0.256,-7.366 0.003,-7.422C0.823,-7.598 1.555,-7.989 2.257,-8.433C2.375,-8.509 2.525,-8.638 2.628,-8.612C3.13,-8.486 3.207,-8.894 3.383,-9.176C3.509,-9.382 3.536,-9.617 3.409,-9.829C3.324,-9.976 3.154,-10.008 2.986,-9.964C2.719,-9.89 2.575,-9.696 2.531,-9.435C2.498,-9.244 2.492,-9.059 2.337,-8.906C1.731,-8.303 0.961,-8.001 0.182,-7.713C0.077,-7.674 -0.079,-7.636 -0.144,-7.777C-0.197,-7.892 -0.076,-7.968 0,-8.033" style="fill:rgb(38,62,84);fill-rule:nonzero;"/>
            </g>
            <g transform="matrix(5.98321,0,0,5.98321,-3536.21,-498.193)">
                <path d="M0,-17.438C-1.2,-15.529 -2.401,-13.62 -3.601,-11.711C-3.991,-11.089 -4.394,-10.455 -4.972,-10.003C-5.967,-9.224 -6.198,-8.03 -6.383,-7.784C-7.877,-5.8 -9.504,-3.916 -11.25,-2.148C-13.145,-0.23 -15.241,1.494 -17.257,3.281C-17.64,3.62 -18.024,3.955 -18.41,4.289C-18.596,4.451 -18.344,4.74 -18.158,4.578C-17.722,4.2 -17.295,3.811 -16.856,3.437C-16.137,2.824 -15.411,2.218 -14.7,1.596C-14.178,1.136 -13.662,0.668 -13.154,0.192C-12.136,-0.759 -11.147,-1.739 -10.188,-2.749C-9.229,-3.758 -8.299,-4.795 -7.401,-5.859C-7.132,-6.178 -6.865,-6.5 -6.601,-6.824C-6.469,-6.986 -6.338,-7.148 -6.208,-7.311C-6.143,-7.393 -6.078,-7.475 -6.013,-7.557C-5.968,-7.612 -5.829,-7.734 -5.819,-7.803C-6.424,-3.807 -8.399,-0.031 -8.378,4.009C-8.376,4.484 -8.178,5.22 -7.615,4.952C-7.05,4.683 -6.519,4.034 -6.133,3.556C-5.287,2.508 -4.709,1.253 -4.384,-0.051C-3.88,-2.07 -3.951,-4.192 -4.234,-6.254C-4.391,-7.393 -4.608,-8.569 -4.298,-9.676C-4.095,-10.4 -3.679,-11.042 -3.268,-11.672C-1.752,-13.999 -0.236,-16.326 1.28,-18.653C0.492,-13.809 0.376,-8.857 0.937,-3.982C1.059,-2.921 1.225,-1.83 1.783,-0.92C1.915,-0.705 2.11,-0.48 2.363,-0.491C2.53,-0.498 2.673,-0.608 2.796,-0.721C3.876,-1.714 4.32,-3.208 4.647,-4.639C5.617,-8.887 5.869,-13.659 3.468,-17.296C2.874,-18.197 2.09,-19.203 2.414,-20.232C2.547,-20.655 2.854,-20.998 3.152,-21.326C4.28,-22.57 3.831,-22.658 2.912,-21.579C2.558,-21.165 0.316,-17.941 0,-17.438" style="fill:rgb(6,103,56);fill-rule:nonzero;"/>
            </g>
            <g transform="matrix(5.98321,0,0,5.98321,-3679.18,-400.244)">
                <path d="M0,-1.684C1.097,-0.633 2.235,0.375 3.367,1.389C3.987,1.943 4.758,2.568 4.004,3.641C3.322,4.617 5.569,5.189 6.006,4.482C6.148,4.256 6.095,3.964 6.011,3.706C5.957,3.536 5.886,3.362 5.765,3.231C5.59,3.039 5.401,3.102 5.206,3.002C5.003,2.902 4.88,2.685 4.781,2.494C4.482,1.936 4.105,1.366 3.614,0.983C2.382,0.023 1.327,-1.112 0.203,-2.18C-0.014,-2.389 -0.319,-2.644 -0.099,-2.958C0.176,-3.348 0.421,-3.786 0.858,-4.046C0.903,-4.072 1.022,-4.021 1.08,-3.97C2.567,-2.82 4.043,-1.661 5.526,-0.515C6.082,-0.081 6.688,0.263 6.316,1.184C6.148,1.595 6.527,1.913 6.972,2.011C7.421,2.106 7.868,2.053 8.076,1.601C8.262,1.194 8.065,0.838 7.684,0.589C7.408,0.404 7.112,0.23 6.875,0.004C5.35,-1.444 3.424,-2.399 2.053,-4.042C1.782,-4.367 1.13,-4.454 1.577,-5.042C1.965,-5.55 2.345,-6.208 3.195,-5.7C4.89,-4.684 6.572,-3.645 8.095,-2.384C8.389,-2.141 8.738,-1.897 8.788,-1.454C8.889,-0.533 9.46,-0.214 10.319,-0.586C10.661,-0.737 10.858,-0.984 10.844,-1.364C10.829,-1.791 10.524,-1.938 10.16,-1.951C9.757,-1.963 9.421,-2.069 9.069,-2.309C7.406,-3.427 5.912,-4.793 4.098,-5.69C3.881,-5.799 3.673,-5.935 3.481,-6.085C3.22,-6.29 2.924,-6.498 3.131,-6.91C3.306,-7.252 3.564,-7.329 3.951,-7.336C5.36,-7.35 6.549,-6.657 7.771,-6.143C8.892,-5.675 10.061,-5.182 10.706,-3.973C10.961,-3.504 11.591,-3.542 12.038,-3.743C12.392,-3.904 12.482,-4.335 12.355,-4.712C12.191,-5.177 11.886,-5.526 11.323,-5.365C10.749,-5.201 10.217,-5.305 9.754,-5.617C8.321,-6.59 6.69,-7.107 5.081,-7.669C4.721,-7.794 4.319,-7.875 4.251,-8.269C4.188,-8.62 4.562,-8.826 4.781,-9.079C5.047,-9.379 5.388,-9.298 5.72,-9.291C6.99,-9.271 8.169,-8.814 9.39,-8.555C9.903,-8.449 10.307,-8.343 10.648,-7.815C11.018,-7.238 11.974,-7.019 12.313,-7.722C12.38,-7.855 12.426,-8.003 12.432,-8.151C12.445,-8.453 12.277,-8.753 12.016,-8.897C11.706,-9.073 11.356,-8.956 11.025,-8.924C10.574,-8.881 10.131,-8.893 9.689,-8.98C8.556,-9.207 7.449,-9.551 6.295,-9.693C5.644,-9.772 5.608,-10.1 5.886,-10.594C6.378,-11.468 7.244,-13.016 5.477,-12.793C5.459,-12.79 5.444,-12.795 5.427,-12.796C4.845,-12.667 4.236,-12.652 3.651,-12.544C3.106,-12.447 2.978,-12.315 3.017,-12.951C3.051,-13.462 3.013,-13.977 3.043,-14.484C3.072,-14.977 2.964,-15.41 2.909,-15.89C2.828,-16.578 3.856,-17.315 2.858,-17.782C2.367,-18.01 1.764,-18.003 1.463,-17.488C1.182,-17.005 1.256,-16.448 1.89,-16.211C2.338,-16.04 2.471,-15.717 2.523,-15.295C2.614,-14.596 2.595,-13.889 2.52,-13.194C2.436,-12.361 2.153,-11.687 1.227,-11.391C0.788,-11.251 0.587,-11.102 0.525,-11.691C0.371,-13.181 -0.288,-14.507 -1.013,-15.775C-1.223,-16.147 -1.407,-16.575 -1.231,-16.992C-1.06,-17.393 -0.873,-17.611 -1.347,-17.968C-1.584,-18.146 -1.894,-18.214 -2.188,-18.186C-2.512,-18.154 -2.832,-18.009 -3.009,-17.739C-3.193,-17.47 -3.194,-17.076 -2.967,-16.848C-2.805,-16.685 -2.563,-16.626 -2.369,-16.498C-1.882,-16.173 -1.634,-15.34 -1.279,-14.872C-0.604,-13.986 -0.207,-12.96 0.017,-11.869C0.219,-10.895 -0.057,-10.375 -0.935,-9.939C-1.222,-9.803 -1.42,-9.812 -1.489,-10.138C-1.691,-11.058 -2.078,-11.925 -2.495,-12.765C-2.698,-13.183 -2.883,-13.611 -3.116,-14.016C-3.335,-14.406 -3.713,-14.746 -3.866,-15.167C-3.924,-15.326 -3.931,-15.497 -3.974,-15.662C-4.031,-15.89 -4.168,-16.101 -4.353,-16.25C-4.525,-16.392 -4.75,-16.479 -4.96,-16.417C-5.067,-16.384 -5.158,-16.318 -5.246,-16.248C-5.414,-16.108 -5.569,-15.945 -5.64,-15.74C-5.725,-15.504 -5.679,-15.219 -5.522,-15.025C-5.306,-14.747 -5.114,-14.813 -4.83,-14.791C-4.453,-14.755 -4.309,-14.583 -4.057,-14.295C-2.993,-13.094 -2.514,-11.611 -2.031,-10.131C-1.734,-9.212 -1.987,-8.727 -3.073,-8.251C-3.474,-8.075 -3.519,-8.219 -3.662,-8.514C-4.596,-10.424 -6.473,-11.802 -7.071,-13.885C-7.182,-14.276 -7.586,-14.389 -7.992,-14.257C-8.572,-14.068 -8.652,-13.565 -8.66,-13.07C-8.67,-12.641 -8.346,-12.472 -7.976,-12.552C-7.404,-12.673 -7.137,-12.345 -6.856,-11.961C-6.422,-11.373 -5.931,-10.82 -5.521,-10.211C-5.015,-9.456 -4.343,-8.804 -4.135,-7.862C-3.985,-7.181 -4.485,-6.94 -4.888,-6.642C-5.386,-6.267 -5.497,-6.812 -5.709,-7.046C-6.369,-7.769 -7.006,-8.512 -7.658,-9.242C-8.407,-10.082 -9.502,-10.613 -9.866,-11.818C-9.979,-12.18 -10.42,-12.281 -10.814,-12.105C-11.127,-11.967 -11.429,-11.771 -11.415,-11.376C-11.401,-10.942 -11.127,-10.714 -10.693,-10.729C-10.36,-10.735 -10.104,-10.574 -9.867,-10.381C-8.51,-9.287 -7.192,-8.152 -6.153,-6.733C-5.944,-6.456 -5.613,-6.163 -5.939,-5.762C-6.281,-5.348 -6.643,-5.552 -7.005,-5.75C-8.392,-6.514 -9.781,-7.288 -11.175,-8.045C-11.669,-8.317 -12.138,-8.55 -12.035,-9.276C-11.976,-9.68 -12.327,-9.888 -12.702,-9.844C-13.233,-9.778 -13.565,-9.399 -13.741,-8.92C-13.878,-8.557 -13.632,-8.339 -13.302,-8.248C-11.279,-7.677 -9.572,-6.469 -7.748,-5.499C-7.461,-5.351 -6.878,-5.279 -7.159,-4.68C-7.446,-4.057 -8.279,-3.639 -8.752,-3.862C-10.023,-4.456 -11.327,-4.994 -12.557,-5.664C-13.31,-6.075 -14.333,-6.223 -14.547,-7.349C-14.6,-7.627 -14.998,-7.726 -15.328,-7.545C-15.677,-7.348 -16.073,-7.19 -16.077,-6.707C-16.078,-6.306 -15.811,-6.086 -15.438,-6.054C-14.436,-5.977 -13.561,-5.557 -12.696,-5.095C-11.999,-4.724 -11.317,-4.271 -10.579,-4.023C-8.259,-3.244 -8.825,-3.094 -10.239,-1.639C-10.549,-1.328 -10.788,-1.322 -11.188,-1.554C-13.026,-2.633 -14.825,-3.807 -16.846,-4.537C-17.272,-4.692 -17.395,-5.18 -17.798,-5.37C-17.969,-5.45 -18.178,-5.463 -18.365,-5.422C-18.64,-5.357 -18.887,-5.175 -19.029,-4.928C-19.496,-4.107 -18.788,-3.183 -17.919,-3.706C-17.479,-3.969 -17.059,-3.93 -16.604,-3.774C-14.88,-3.197 -13.397,-2.16 -11.814,-1.31C-11.559,-1.174 -11.218,-0.986 -11.38,-0.606C-11.517,-0.291 -11.795,-0.067 -12.161,-0.052C-12.404,-0.043 -12.646,-0.088 -12.889,-0.133C-14.924,-0.532 -16.975,-0.856 -19.041,-1.058C-19.285,-1.082 -19.659,-1.052 -19.833,-1.266C-20.03,-1.499 -19.926,-1.767 -20.229,-1.982C-20.457,-2.142 -20.739,-2.24 -21.018,-2.226C-21.301,-2.209 -21.58,-2.079 -21.744,-1.848C-21.843,-1.714 -21.9,-1.555 -21.926,-1.391C-22.067,-0.57 -21.438,-0.477 -20.81,-0.519C-18.158,-0.714 -15.591,-0.11 -13.01,0.332C-12.788,0.369 -12.527,0.458 -12.683,0.737C-12.929,1.175 -13.173,1.755 -13.826,1.527C-14.451,1.316 -15.034,1.454 -15.631,1.523C-17.45,1.727 -19.268,1.924 -21.082,2.157C-21.894,2.258 -21.909,1.513 -22.593,1.251C-22.677,1.217 -22.766,1.193 -22.852,1.194C-22.972,1.197 -23.083,1.248 -23.185,1.302C-23.47,1.464 -23.717,1.715 -23.821,2.022C-23.928,2.332 -23.874,2.704 -23.643,2.936C-23.359,3.222 -22.869,3.233 -22.533,3.014C-21.869,2.581 -20.886,2.798 -20.094,2.605C-18.336,2.184 -16.505,2.335 -14.749,1.888C-14.485,1.826 -14.166,1.859 -14.011,2.136C-13.833,2.448 -14.137,2.626 -14.289,2.84C-14.46,3.078 -14.695,3.195 -14.974,3.256C-17.445,3.829 -19.91,4.409 -22.378,4.97C-22.598,5.02 -22.787,5.16 -23.065,4.99C-23.648,4.633 -24.596,4.942 -24.896,5.536C-25.104,5.948 -24.969,6.249 -24.526,6.384C-24.123,6.504 -23.717,6.434 -23.406,6.148C-22.744,5.535 -21.899,5.37 -21.076,5.158C-19.508,4.767 -17.934,4.392 -16.361,4.024C-15.994,3.94 -15.474,3.606 -15.27,3.97C-15.08,4.318 -15.562,4.719 -15.794,5.065C-15.902,5.22 -16.14,5.32 -16.338,5.372C-19.281,6.126 -21.827,7.935 -24.823,8.559C-25.1,8.613 -25.504,8.709 -25.669,8.961C-25.765,9.107 -25.791,9.286 -25.774,9.46C-25.745,9.78 -25.548,10.082 -25.267,10.241C-24.877,10.462 -24.37,9.904 -24.131,9.667C-22.056,7.627 -19.307,7.009 -16.706,6.073C-16.536,6.012 -16.294,5.956 -16.205,6.143C-16.072,6.411 -16.359,6.493 -16.521,6.602C-17.551,7.32 -18.57,8.044 -19.62,8.725C-21.046,9.648 -22.146,11.106 -24.062,11.238C-24.686,11.276 -24.958,12.165 -24.627,12.627C-24.201,13.222 -23.724,12.886 -23.267,12.642C-22.683,12.334 -22.588,11.614 -22.123,11.241C-20.364,9.823 -18.549,8.478 -16.641,7.262C-16.441,7.134 -16.189,6.927 -15.988,7.157C-15.735,7.438 -16.025,7.664 -16.2,7.858C-17.268,9.029 -18.261,10.292 -19.447,11.336C-20.555,12.306 -21.377,13.703 -23.069,13.951C-23.627,14.04 -24.023,14.516 -23.825,15.06C-23.745,15.275 -23.606,15.464 -23.452,15.641C-23.011,16.129 -22.487,15.405 -22.269,15.005C-21.936,14.395 -21.472,13.935 -20.972,13.484C-19.751,12.381 -18.583,11.224 -17.476,9.997C-16.822,9.275 -16.147,8.569 -15.481,7.852C-15.31,7.668 -15.106,7.469 -14.859,7.665C-14.65,7.835 -14.835,8.064 -14.919,8.247C-15.412,9.362 -15.847,10.521 -16.653,11.457C-17.725,12.707 -18.511,14.269 -20.243,14.843C-20.668,14.985 -20.808,15.405 -20.645,15.838C-20.458,16.338 -20.019,16.53 -19.537,16.446C-19.033,16.357 -18.523,16.019 -18.638,15.47C-18.811,14.653 -18.353,14.218 -17.902,13.735C-16.902,12.657 -15.961,11.543 -15.327,10.194C-14.936,9.365 -14.496,8.56 -14.063,7.755C-13.968,7.57 -13.834,7.351 -13.585,7.404C-13.289,7.463 -13.256,7.718 -13.248,7.982C-13.235,8.655 -13.247,9.322 -13.395,9.987C-13.811,11.834 -14.671,13.473 -15.789,14.98C-16.178,15.503 -16.17,16.302 -15.365,16.363C-14.779,16.405 -13.82,15.552 -14.266,14.941C-14.79,14.227 -14.412,13.761 -14.12,13.221C-13.258,11.614 -12.652,9.939 -12.673,8.082C-12.681,7.716 -12.664,7.349 -12.608,6.988C-12.54,6.509 -12.111,6.364 -11.745,6.28C-11.308,6.183 -11.298,6.628 -11.24,6.895C-10.695,9.282 -10.085,11.673 -11.613,13.965C-11.974,14.505 -11.562,15.099 -10.903,15.071C-10.559,15.061 -10.227,14.953 -10.084,14.591C-9.915,14.165 -9.655,13.688 -10.086,13.32C-10.383,13.065 -10.374,12.82 -10.314,12.517C-10.043,11.149 -10.126,9.746 -10.364,8.383C-10.475,7.762 -10.621,7.146 -10.772,6.533C-10.9,6.008 -10.925,5.576 -10.327,5.378C-9.389,5.065 -9.263,6.532 -9.056,7.123C-8.72,8.088 -8.365,9.051 -8.043,10.022C-7.829,10.661 -7.367,11.482 -7.786,12.133C-8.019,12.486 -8.477,12.751 -8.44,13.227C-8.402,13.735 -7.85,14.125 -7.366,14.067C-6.901,14.019 -6.511,13.583 -6.501,13.114C-6.501,12.897 -6.57,12.687 -6.64,12.484C-7.432,10.124 -8.158,7.678 -9.13,5.36C-9.215,5.109 -9.433,4.852 -9.153,4.615C-8.637,4.183 -8.129,3.657 -7.482,3.538C-7.054,3.454 -6.798,4.064 -6.46,4.357C-5.013,5.616 -4.218,7.228 -4.008,9.124C-3.981,9.324 -3.922,9.563 -4.021,9.751C-4.149,9.999 -4.389,9.972 -4.594,10.117C-5.14,10.507 -4.49,11.327 -4.074,11.477C-3.594,11.646 -2.89,11.531 -2.641,11.042C-2.247,10.277 -3.052,10.108 -3.341,9.576C-3.509,9.276 -3.499,8.916 -3.575,8.589C-3.753,7.844 -3.991,7.124 -4.342,6.437C-4.915,5.326 -5.561,4.464 -6.473,3.616C-6.578,3.519 -6.69,3.414 -6.746,3.28C-7.065,2.537 -5.444,1.836 -5.017,1.488C-4.739,1.272 -1.806,5.497 -1.61,5.806C-1.12,6.582 -0.366,7.398 -1.111,8.504C-1.375,8.898 -1.011,9.399 -0.577,9.5C0.045,9.639 0.548,9.239 0.873,8.751C1.118,8.381 1.005,7.966 0.537,7.78C0.125,7.618 -0.211,7.405 -0.395,6.977C-1.189,5.126 -2.71,3.776 -3.648,2.24C-3.852,1.999 -4.427,1.575 -4.516,1.28C-4.607,0.967 -3.957,0.595 -3.682,0.368C-2.337,-0.742 -2.365,-0.711 -1.203,0.601C0.259,2.247 1.49,3.979 1.707,6.261C1.755,6.788 2.206,7.009 2.731,6.936C3.31,6.855 3.718,6.532 3.743,5.934C3.772,5.34 3.269,5.253 2.845,5.264C2.321,5.277 2.116,5.05 1.923,4.589C1.357,3.27 0.811,1.927 -0.24,1.106C-0.694,0.509 -1.032,0.038 -1.399,-0.412C-1.89,-1.012 -1.757,-1.541 -1.231,-2.008C-0.683,-2.495 -0.336,-2.006 0,-1.684" style="fill:rgb(40,82,100);fill-rule:nonzero;"/>
            </g>
            <g transform="matrix(5.98321,0,0,5.98321,-4289.57,237.672)">
                <path d="M0,-1.584C0.129,-0.376 0.051,0.846 0.334,2.037C0.379,2.219 0.245,2.506 0.531,2.554C0.757,2.595 0.887,2.355 1,2.196C1.935,0.918 3.123,-0.127 4.197,-1.273C5.585,-2.764 7.265,-3.874 8.92,-5.016C10.588,-6.16 12.435,-6.959 14.346,-7.605C14.639,-7.705 14.943,-7.781 15.243,-7.852C15.484,-7.908 15.757,-8.067 15.945,-7.77C16.121,-7.494 16.001,-7.239 15.852,-6.976C14.56,-4.703 13.106,-2.568 11.137,-0.794C9.694,0.508 8.03,1.279 6.19,1.782C4.725,2.181 3.24,2.477 1.767,2.842C0.855,3.065 0.435,3.686 0.505,4.623C0.617,6.167 0.82,7.705 0.993,9.246C1.047,9.713 1.252,9.73 1.594,9.442C2.963,8.3 4.282,7.098 5.727,6.06C8.264,4.243 10.823,2.446 13.799,1.379C14.354,1.177 14.937,1.037 15.519,0.932C16.106,0.826 16.272,1.081 16.066,1.632C15.914,2.03 15.625,2.329 15.378,2.658C12.897,5.925 9.913,8.548 6.009,10.012C4.676,10.514 3.299,10.847 1.916,11.163C1.362,11.291 1.198,11.504 1.224,12.112C1.294,13.66 1.444,15.199 1.6,16.742C1.621,16.94 1.55,17.211 1.76,17.306C2.014,17.418 2.164,17.159 2.34,17.015C4.944,14.9 7.639,12.906 10.456,11.081C11.607,10.335 12.808,9.691 14.067,9.146C14.805,8.829 15.568,8.596 16.347,8.422C16.601,8.36 16.875,8.292 17.066,8.54C17.238,8.773 17.163,9.041 17.063,9.282C16.571,10.443 15.761,11.379 14.904,12.284C12.236,15.103 8.876,16.635 5.173,17.536C4.223,17.772 3.296,18.104 2.349,18.366C1.899,18.491 1.715,18.762 1.724,19.208C1.767,21.244 1.807,23.285 1.855,25.32C1.863,25.519 1.831,25.787 2.032,25.886C2.255,25.988 2.39,25.744 2.536,25.616C5.373,23.078 8.593,21.137 12.051,19.59C13.841,18.784 15.739,18.261 17.657,17.836C18.05,17.747 18.471,17.663 18.697,18.085C18.908,18.474 18.695,18.835 18.447,19.147C17.39,20.499 16.135,21.647 14.742,22.644C11.113,25.232 7.018,26.608 2.671,27.335C2.186,27.413 1.915,27.554 1.933,28.089C1.971,29.225 1.592,30.34 1.509,31.471C1.439,32.362 1.326,33.254 1.261,34.149C1.216,34.786 1.358,35.794 0.782,36.241C0.713,36.291 0.607,36.307 0.544,36.249C0.344,36.075 0.627,35.438 0.674,35.234C1.051,33.647 0.956,32.015 1.179,30.405C1.281,29.662 1.576,28.847 1.496,28.093C1.544,27.615 1.365,27.556 0.945,27.519C-1.572,27.28 -4.099,27.475 -6.62,27.237C-8.839,27.031 -10.819,26.297 -12.742,25.241C-14.427,24.315 -15.985,23.229 -17.398,21.928C-17.605,21.733 -17.883,21.564 -17.809,21.235C-17.734,20.885 -17.387,20.883 -17.116,20.867C-14.307,20.715 -11.502,20.616 -8.79,21.622C-7.775,22.004 -6.659,21.989 -5.617,22.333C-3.322,23.09 -1.262,24.335 0.863,25.448C1.322,25.685 1.434,25.681 1.422,25.159C1.386,23.403 1.351,21.648 1.333,19.895C1.329,19.202 1.026,19.087 0.364,19.131C-2.858,19.349 -6.086,19.558 -9.246,18.643C-11.746,17.916 -13.889,16.546 -15.837,14.851C-16.267,14.481 -16.688,14.101 -17.083,13.692C-17.282,13.488 -17.661,13.312 -17.467,12.936C-17.283,12.587 -16.939,12.438 -16.547,12.496C-15.066,12.698 -13.569,12.712 -12.098,13.062C-9.907,13.578 -7.799,14.372 -5.61,14.867C-3.91,15.249 -2.45,16.099 -0.978,16.948C-0.484,17.233 0.035,17.468 0.517,17.763C1.128,18.132 1.225,17.814 1.195,17.293C1.105,15.595 0.796,13.908 0.839,12.2C0.851,11.779 0.623,11.673 0.199,11.64C-2.151,11.466 -4.493,11.763 -6.843,11.749C-8.864,11.734 -10.656,11.184 -12.229,9.922C-13.698,8.739 -15.163,7.552 -16.628,6.369C-16.728,6.284 -16.831,6.205 -16.907,6.104C-17.063,5.904 -17.291,5.712 -17.183,5.423C-17.067,5.094 -16.759,5.096 -16.469,5.087C-15.403,5.047 -14.353,5.23 -13.321,5.441C-9.166,6.29 -5.073,7.34 -1.272,9.297C-0.837,9.524 -0.397,9.75 0.009,10.018C0.484,10.327 0.634,10.073 0.613,9.668C0.564,8.798 0.463,7.929 0.375,7.063C0.287,6.241 0.144,5.424 0.095,4.602C0.06,3.982 -0.235,3.818 -0.797,3.835C-2.011,3.868 -3.201,4.16 -4.424,4.112C-6.752,4.018 -9.002,3.599 -11.075,2.52C-12.31,1.876 -13.436,1.025 -14.432,0.048C-15.241,-0.754 -16.099,-1.491 -16.985,-2.198C-17.501,-2.611 -17.892,-3.111 -18.189,-3.694C-18.408,-4.126 -18.25,-4.351 -17.845,-4.537C-17.407,-4.74 -16.991,-4.611 -16.558,-4.535C-14.898,-4.244 -13.328,-3.666 -11.751,-3.097C-9.052,-2.124 -6.362,-1.149 -3.884,0.311C-2.978,0.847 -2.129,1.494 -1.255,2.09C-1.194,2.135 -1.147,2.212 -1.075,2.235C-0.774,2.337 -0.411,2.576 -0.173,2.486C0.076,2.386 -0.137,1.97 -0.153,1.699C-0.221,0.489 -0.324,-0.722 -0.388,-1.933C-0.41,-2.299 -0.534,-2.446 -0.902,-2.567C-2.02,-2.933 -3.192,-2.917 -4.334,-3.098C-8.447,-3.765 -11.372,-6.132 -13.701,-9.406C-14.491,-10.518 -15.358,-11.583 -15.893,-12.86C-15.981,-13.072 -16.057,-13.298 -16.107,-13.522C-16.217,-14.03 -15.94,-14.116 -15.534,-14.008C-15.146,-13.902 -14.822,-13.663 -14.558,-13.388C-13.422,-12.196 -11.899,-11.73 -10.433,-11.184C-7.907,-10.248 -5.449,-9.18 -3.161,-7.751C-2.339,-7.236 -1.658,-6.581 -1.047,-5.84C-0.938,-5.713 -0.846,-5.458 -0.647,-5.54C-0.476,-5.61 -0.534,-5.864 -0.526,-6.038C-0.496,-6.527 -0.496,-7.017 -0.457,-7.506C-0.39,-8.258 -0.551,-8.796 -1.362,-9.13C-2.527,-9.608 -3.681,-10.157 -4.745,-10.823C-7.209,-12.363 -9.222,-14.337 -10.663,-16.922C-11.7,-18.775 -12.736,-20.605 -13.373,-22.643C-13.401,-22.74 -13.45,-22.835 -13.49,-22.925C-13.642,-23.299 -13.767,-23.741 -13.463,-24.016C-13.118,-24.317 -12.8,-23.892 -12.502,-23.737C-11.951,-23.445 -11.495,-23.034 -11.108,-22.533C-10.019,-21.137 -8.622,-20.06 -7.296,-18.918C-4.757,-16.723 -2.601,-14.215 -0.789,-11.396C-0.69,-11.238 -0.636,-10.94 -0.412,-10.99C-0.221,-11.028 -0.303,-11.305 -0.282,-11.476C-0.17,-12.424 -0.072,-13.37 0.035,-14.322C0.081,-14.738 -0.095,-14.975 -0.43,-15.273C-2.438,-17.04 -4.625,-18.657 -5.63,-21.301C-6.445,-23.455 -6.842,-25.639 -6.773,-27.96C-6.711,-29.947 -6.749,-31.932 -6.553,-33.911C-6.52,-34.218 -6.594,-34.669 -6.141,-34.722C-5.743,-34.773 -5.534,-34.401 -5.425,-34.105C-4.402,-31.293 -3.062,-28.594 -2.436,-25.645C-2.224,-24.632 -1.983,-23.626 -1.699,-22.634C-1.311,-21.267 -1.246,-19.844 -0.904,-18.464C-0.734,-17.758 -0.468,-17.093 -0.253,-16.41C-0.194,-16.226 -0.11,-15.97 0.139,-15.988C0.44,-16.007 0.327,-16.298 0.386,-16.478C0.945,-18.188 0.615,-19.899 0.386,-21.608C0.013,-24.372 0.404,-27.052 1.165,-29.715C1.672,-31.502 2.188,-33.286 2.834,-35.032C3.163,-35.929 3.691,-36.674 4.3,-37.38C4.744,-37.891 5.09,-37.82 5.259,-37.166C5.534,-36.13 5.483,-35.063 5.387,-34.012C4.941,-29.16 3.977,-24.421 2.33,-19.831C2.049,-19.047 1.883,-18.206 1.181,-17.598C0.931,-17.381 0.806,-16.765 1.017,-16.536C1.184,-16.351 1.524,-16.816 1.743,-17.038C2.698,-18.041 3.27,-19.298 3.937,-20.483C5.6,-23.42 7.06,-26.469 9.28,-29.067C10.231,-30.187 10.987,-31.467 12.315,-32.224C12.682,-32.432 13.091,-32.744 13.453,-32.523C13.837,-32.286 13.511,-31.814 13.48,-31.447C13.471,-31.294 13.423,-31.133 13.341,-31.007C12.137,-29.046 11.415,-26.833 10.189,-24.883C9.574,-23.903 8.851,-22.999 8.114,-22.11C7.442,-21.302 6.75,-20.509 6.088,-19.693C5.533,-19.006 4.995,-18.32 4.326,-17.764C3.319,-16.929 2.394,-15.968 1.149,-15.454C0.722,-15.275 0.503,-14.931 0.456,-14.432C0.349,-13.328 0.183,-12.236 0.053,-11.135C0.034,-10.994 0.061,-10.741 0.128,-10.718C0.281,-10.665 0.378,-10.853 0.478,-10.968C1.266,-11.832 1.778,-12.883 2.425,-13.844C3.948,-16.103 5.763,-18.103 7.803,-19.898C9.674,-21.535 11.789,-22.831 13.843,-24.219C14.122,-24.405 14.477,-24.607 14.743,-24.267C15.04,-23.883 14.753,-23.484 14.522,-23.213C13.487,-21.985 12.658,-20.614 11.82,-19.251C10.512,-17.127 8.838,-15.311 6.976,-13.674C5.518,-12.393 3.913,-11.312 2.15,-10.487C1.589,-10.224 1.038,-9.94 0.482,-9.673C-0.215,-9.343 0.014,-8.613 -0.059,-8.116C-0.223,-7.054 -0.115,-5.957 -0.133,-4.871C-0.141,-4.576 -0.124,-4.218 0.105,-4.1C0.361,-3.971 0.518,-4.334 0.671,-4.515C2.896,-7.1 5.281,-9.525 7.879,-11.743C9.551,-13.173 11.315,-14.466 13.175,-15.634C13.541,-15.864 13.977,-15.997 14.4,-16.098C14.737,-16.182 15.159,-16.292 15.394,-15.918C15.601,-15.594 15.385,-15.263 15.207,-14.984C14.629,-14.064 14.053,-13.128 13.28,-12.374C11.639,-10.774 10.224,-8.959 8.397,-7.53C6.141,-5.765 3.721,-4.32 1.086,-3.225C0.257,-2.876 -0.092,-2.449 0,-1.584" style="fill:rgb(39,102,116);fill-rule:nonzero;"/>
            </g>
            <g transform="matrix(5.98321,0,0,5.98321,-4308.86,-612.842)">
                <path d="M0,-2.497C0.204,-2.418 0.076,-2.239 0.053,-2.097C-0.214,-0.601 -0.74,0.821 -1.173,2.271C-2.094,5.342 -2.678,8.457 -2.125,11.68C-2.057,12.081 -1.894,12.418 -1.71,12.77C-1.325,13.513 -0.815,13.757 -0.038,12.802C0.522,12.112 0.758,11.235 1.032,10.407C1.921,7.74 2.029,4.979 1.922,2.201C1.864,0.733 1.92,-0.74 1.807,-2.208C1.778,-2.58 1.809,-2.96 1.638,-3.301C1.419,-3.736 1.621,-3.933 2.002,-4.101C2.704,-4.415 3.461,-4.42 4.198,-4.471C6.103,-4.594 8.01,-4.67 9.92,-4.749C10.464,-4.771 11.021,-4.807 11.529,-4.53C11.853,-4.357 11.967,-4.184 11.552,-3.945C9.35,-2.676 7.886,-0.742 6.621,1.406C5.255,3.728 4.678,6.277 4.249,8.884C4.144,9.516 4.472,9.804 5.09,9.595C5.911,9.315 6.591,8.765 6.994,8.047C8.162,5.967 9.422,3.951 10.276,1.682C10.932,-0.062 11.588,-1.858 12.685,-3.425C12.902,-3.739 13.101,-3.818 13.438,-3.739C14.252,-3.551 15.014,-3.207 15.801,-2.936C16.114,-2.825 16.674,-2.567 16.749,-2.823C16.878,-3.263 16.274,-3.164 15.999,-3.302C15.276,-3.668 14.524,-3.982 13.772,-4.292C13.5,-4.404 13.351,-4.549 13.326,-4.858C13.297,-5.231 13.187,-5.594 13.15,-5.963C12.965,-7.938 12.275,-9.761 11.469,-11.542C10.627,-13.403 9.123,-14.625 7.395,-15.625C6.413,-16.195 5.418,-16.677 4.266,-16.747C3.509,-16.793 3.403,-16.56 3.708,-15.852C4.153,-14.826 5.016,-14.168 5.724,-13.369C7.429,-11.445 8.894,-9.337 10.421,-7.274C10.489,-7.185 10.652,-7.083 10.512,-6.949C10.488,-6.924 10.321,-7.019 10.237,-7.083C8.294,-8.522 6.093,-9.39 3.718,-9.706C2.032,-9.925 0.314,-9.934 -1.399,-9.777C-2.886,-9.639 -4.372,-9.531 -5.818,-9.116C-6.121,-9.031 -6.548,-9.064 -6.585,-8.637C-6.625,-8.225 -6.423,-7.864 -6.046,-7.65C-5.663,-7.429 -5.255,-7.257 -4.814,-7.205C-2.091,-6.886 0.633,-6.581 3.359,-6.324C5.235,-6.145 7.098,-5.797 8.961,-5.523C9.132,-5.498 9.413,-5.477 9.412,-5.33C9.408,-5.147 9.134,-5.226 8.986,-5.209C7.451,-5.03 5.92,-5.024 4.388,-5.187C1.616,-5.479 -1.154,-5.878 -3.947,-5.643C-7.994,-5.305 -12.048,-4.985 -15.976,-3.831C-17.292,-3.445 -18.689,-3.232 -19.791,-2.304C-20.027,-2.105 -20.438,-1.987 -20.292,-1.556C-20.165,-1.17 -19.846,-0.978 -19.455,-0.888C-18.759,-0.736 -18.052,-0.77 -17.357,-0.798C-14.983,-0.893 -12.637,-1.202 -10.367,-1.946C-8.888,-2.429 -7.442,-3.028 -5.92,-3.377C-3.355,-3.967 -0.761,-4.426 1.841,-4.834C1.997,-4.858 2.25,-4.916 2.297,-4.718C2.338,-4.554 2.077,-4.552 1.956,-4.486C0.496,-3.719 -0.95,-2.933 -2.429,-2.211C-4.06,-1.417 -5.848,-1.104 -7.58,-0.628C-10.38,0.142 -13.232,0.916 -15.878,2.125C-16.894,2.589 -17.87,3.125 -18.862,3.623C-20.701,4.543 -22.206,5.869 -23.533,7.411C-23.722,7.631 -24.089,7.807 -23.942,8.161C-23.798,8.511 -23.409,8.516 -23.083,8.532C-22.194,8.575 -21.336,8.352 -20.486,8.142C-15.944,7.037 -11.641,5.392 -7.938,2.437C-6.773,1.509 -5.711,0.45 -4.484,-0.408C-3.618,-1.016 -2.693,-1.548 -1.8,-2.118C-1.777,-2.131 -1.754,-2.148 -1.728,-2.143C-1.685,-2.136 -1.666,-2.077 -1.687,-2.037C-1.708,-1.998 -1.75,-1.975 -1.788,-1.952C-2.198,-1.723 -2.585,-1.453 -2.945,-1.152C-3.865,-0.385 -4.621,0.586 -5.255,1.59C-6.777,3.987 -8.912,5.91 -10.406,8.33C-11.228,9.661 -11.811,11.109 -12.533,12.486C-12.794,12.98 -12.798,13.59 -12.354,13.947C-11.92,14.296 -11.341,14.14 -10.856,13.891C-8.209,12.553 -6.097,10.713 -5.009,7.846C-4.284,5.933 -3.173,4.201 -2.323,2.344C-1.705,0.986 -1.305,-0.465 -0.551,-1.763C-0.461,-1.915 -0.414,-2.089 -0.324,-2.238C-0.251,-2.362 -0.19,-2.567 0,-2.497" style="fill:rgb(6,103,56);fill-rule:nonzero;"/>
            </g>
            <g transform="matrix(5.98321,0,0,5.98321,-3655.08,-517.08)">
                <path d="M0,-15.003C2.254,-15.606 4.489,-16.302 6.863,-16.219C8.356,-16.165 9.83,-16.067 11.321,-15.992C11.967,-15.959 12.613,-15.917 13.258,-15.887C14.552,-15.824 15.849,-15.798 17.139,-15.924C19.364,-16.144 21.278,-16.939 22.806,-18.599C22.949,-18.757 23.105,-18.902 23.267,-19.034C23.388,-19.136 23.528,-19.308 23.704,-19.127C23.837,-18.989 23.812,-18.81 23.729,-18.652C23.545,-18.284 23.255,-18.004 22.955,-17.732C20.864,-15.836 19.69,-15.1 19.635,-15.059C18.791,-14.388 17.767,-13.95 17.044,-13.123C16.446,-12.443 14.743,-11.389 14.617,-11.495C14.443,-11.638 14.266,-11.418 14.133,-11.299C12.766,-10.082 11.308,-9.023 10.326,-7.35C8.753,-4.673 6.789,-2.258 4.096,-0.556C3.085,0.082 2.003,0.566 0.9,1.009C-0.597,1.614 -1.983,2.466 -3.521,2.981C-4.488,3.304 -5.43,3.708 -6.39,4.047C-7.122,4.305 -7.261,4.162 -7.129,3.381C-6.956,2.364 -6.346,1.631 -5.52,1.108C-3.293,-0.3 -1.022,-1.636 1.323,-2.845C2.061,-3.227 2.73,-3.717 3.414,-4.184C3.497,-4.241 3.693,-4.256 3.609,-4.432C3.594,-4.464 3.414,-4.441 3.319,-4.409C1.115,-3.646 -1.057,-2.804 -3.227,-1.947C-5.26,-1.148 -7.352,-0.463 -9.491,-0.037C-11.13,0.291 -12.786,0.622 -14.48,0.589C-14.712,0.585 -15.062,0.671 -15.163,0.381C-15.273,0.061 -15.023,-0.204 -14.763,-0.342C-13.66,-0.924 -12.598,-1.621 -11.416,-2.021C-9.182,-2.779 -7.005,-3.678 -4.798,-4.505C-3.716,-4.911 -2.612,-5.214 -1.495,-5.448C0.831,-5.936 3.122,-6.567 5.435,-7.1C6.205,-7.274 6.95,-7.511 7.694,-7.76C8.196,-7.925 8.625,-8.206 9.13,-8.372C9.628,-8.536 10.293,-8.616 10.733,-8.898C11.123,-9.145 11.366,-9.606 11.718,-9.902C11.748,-9.923 11.718,-10.015 11.718,-10.074C11.638,-10.053 11.551,-10.048 11.476,-10.015C11.068,-9.833 10.663,-9.645 10.256,-9.46C8.359,-8.525 6.323,-8.181 4.235,-7.968C2.482,-7.788 0.726,-7.641 -1.022,-7.408C-2.58,-7.203 -4.16,-7.26 -5.73,-7.373C-6.499,-7.428 -7.262,-7.452 -8.011,-7.24C-8.266,-7.167 -8.531,-7.168 -8.762,-7.265C-9.104,-7.41 -9.616,-7.473 -9.657,-7.88C-9.69,-8.246 -9.191,-8.313 -8.902,-8.456C-6.22,-9.798 -3.354,-10.305 -0.384,-10.299C1.808,-10.293 3.985,-10.542 6.172,-10.64C8.515,-10.746 10.778,-11.38 13.094,-11.692C14.082,-11.825 14.861,-12.494 15.721,-12.939C16.298,-13.24 16.785,-13.711 17.401,-13.959C17.476,-13.989 17.596,-14.087 17.587,-14.106C17.535,-14.238 17.402,-14.17 17.328,-14.144C16.544,-13.874 15.755,-13.629 14.961,-13.388C13.148,-12.842 11.299,-12.73 9.419,-12.769C6.98,-12.814 4.545,-12.989 2.106,-12.637C0.538,-12.412 -1.033,-12.621 -2.586,-12.91C-2.731,-12.937 -2.894,-12.972 -2.913,-13.158C-2.933,-13.348 -2.794,-13.462 -2.662,-13.576C-1.889,-14.266 -1.008,-14.736 0,-15.003" style="fill:rgb(6,103,56);fill-rule:nonzero;"/>
            </g>
            <g transform="matrix(5.98321,0,0,5.98321,-4130.03,-284.046)">
                <path d="M0,-10.181C1.534,-10.639 3.072,-11.09 4.62,-11.497C5.622,-11.759 6.67,-11.738 7.695,-11.846C9.109,-11.994 10.516,-11.945 11.928,-11.837C12.562,-11.792 13.204,-11.792 13.838,-11.828C14.876,-11.889 15.51,-12.638 16.142,-13.325C16.615,-13.84 16.971,-14.465 17.458,-14.981C17.591,-15.121 17.7,-15.253 17.874,-15.086C18.036,-14.932 17.885,-14.782 17.786,-14.684C16.486,-13.338 15.132,-11.824 14.005,-10.328C13.648,-9.854 13.472,-9.377 13.483,-8.761C13.516,-6.083 13.087,-3.461 11.718,-1.143C10.449,1.005 8.882,2.969 7.143,4.778C7.012,4.916 6.857,5.072 6.655,4.984C6.47,4.905 6.499,4.688 6.496,4.524C6.476,3.575 6.817,2.74 7.295,1.941C8.349,0.183 9.394,-1.578 10.382,-3.377C11.237,-4.932 11.746,-6.612 12.438,-8.222C12.556,-8.498 12.567,-8.819 12.628,-9.117C12.327,-9.012 12.166,-8.724 11.917,-8.557C10.7,-7.739 10.215,-6.436 9.653,-5.18C8.591,-2.804 7.169,-0.666 5.125,0.966C3.376,2.365 1.545,3.673 -0.655,4.312C-0.846,4.365 -1.069,4.519 -1.241,4.338C-1.425,4.144 -1.282,3.91 -1.191,3.712C-0.866,2.994 -0.379,2.373 0.183,1.847C1.343,0.76 2.355,-0.466 3.513,-1.551C4.757,-2.72 6.111,-3.761 7.448,-4.818C7.926,-5.194 8.354,-5.614 8.778,-6.04C9.36,-6.626 9.902,-7.251 10.458,-7.864C10.546,-7.962 10.7,-8.101 10.617,-8.209C10.515,-8.342 10.376,-8.172 10.27,-8.113C10.04,-7.992 9.826,-7.846 9.605,-7.71C8.065,-6.9 6.587,-5.979 4.957,-5.336C3.252,-4.664 1.514,-4.12 -0.274,-3.729C-0.928,-3.582 -1.6,-3.51 -2.268,-3.413C-2.653,-3.358 -2.934,-3.54 -3.127,-3.864C-3.31,-4.177 -3.063,-4.374 -2.919,-4.601C-2.674,-4.989 -2.295,-5.175 -1.887,-5.342C-0.771,-5.796 0.34,-6.265 1.448,-6.745C2.632,-7.261 3.909,-7.406 5.142,-7.709C7.037,-8.174 8.917,-8.69 10.746,-9.36C11.731,-9.721 12.674,-10.204 13.512,-10.859C13.576,-10.909 13.681,-11.017 13.671,-11.035C13.593,-11.149 13.492,-11.05 13.402,-11.031C11.061,-10.539 8.783,-9.801 6.45,-9.263C4.715,-8.863 2.969,-8.602 1.199,-8.455C0.354,-8.383 -0.483,-8.463 -1.313,-8.651C-1.762,-8.754 -1.838,-8.977 -1.521,-9.335C-1.116,-9.791 -0.56,-10.015 0,-10.181" style="fill:rgb(6,103,56);fill-rule:nonzero;"/>
            </g>
            <g transform="matrix(5.98321,0,0,5.98321,-4421.02,115.561)">
                <path d="M0,7.305C-0.291,7.545 -0.727,7.37 -1.052,7.178C-6.476,3.981 -10.131,-2.031 -10.472,-8.317C-10.854,-7.794 -10.997,-7.138 -11.131,-6.504C-11.638,-4.094 -12.144,-1.683 -12.651,0.727C-12.816,1.511 -12.982,2.314 -12.872,3.108C-12.682,4.475 -11.717,5.586 -10.817,6.632C-9.332,8.356 -7.9,10.15 -6.859,12.173C-5.817,14.196 -5.18,16.477 -5.374,18.744C-5.412,19.184 -5.594,19.733 -6.035,19.756C-6.307,19.771 -6.535,19.564 -6.724,19.368C-10.432,15.52 -12.727,10.339 -13.085,5.008C-13.345,5.221 -13.406,5.588 -13.448,5.921C-13.782,8.613 -13.934,11.328 -13.905,14.04C-13.874,16.985 -13.536,19.93 -13.31,22.863C-13.267,23.42 -13.22,23.975 -13.171,24.53C-13.147,24.799 -13.564,24.834 -13.588,24.565C-13.643,23.938 -13.683,23.308 -13.744,22.682C-13.843,21.654 -13.953,20.628 -14.039,19.599C-14.099,18.841 -14.149,18.083 -14.187,17.323C-14.264,15.805 -14.296,14.284 -14.283,12.763C-14.27,11.243 -14.213,9.723 -14.11,8.205C-14.079,7.75 -14.044,7.295 -14.006,6.841C-13.986,6.614 -13.966,6.386 -13.944,6.159C-13.933,6.046 -13.923,5.932 -13.911,5.819C-13.904,5.741 -13.921,5.54 -13.877,5.478C-16.434,9.075 -17.75,13.538 -20.834,16.695C-21.196,17.066 -21.911,17.494 -22.149,16.856C-22.389,16.215 -22.313,15.302 -22.253,14.635C-22.121,13.169 -21.623,11.745 -20.888,10.475C-19.75,8.508 -18.084,6.895 -16.297,5.492C-15.309,4.716 -14.245,3.958 -13.648,2.853C-13.258,2.131 -13.098,1.31 -12.942,0.504C-12.366,-2.473 -11.79,-5.451 -11.214,-8.429C-14.271,-4.028 -17.939,-0.052 -22.081,3.349C-22.982,4.09 -23.941,4.82 -25.07,5.111C-25.337,5.18 -25.66,5.208 -25.851,5.008C-25.977,4.876 -26.005,4.681 -26.016,4.499C-26.11,2.899 -25.325,1.389 -24.495,0.018C-22.032,-4.055 -18.607,-7.992 -13.961,-9.025C-12.811,-9.281 -11.432,-9.476 -10.905,-10.53C-10.688,-10.963 -10.669,-11.465 -10.653,-11.949C-10.596,-13.782 -10.538,-15.615 -10.48,-17.448C-10.106,-17.529 -9.956,-16.983 -9.98,-16.6C-10.077,-15.055 -10.175,-13.51 -10.273,-11.965C-10.31,-11.372 -10.347,-10.766 -10.198,-10.19C-9.947,-9.217 -9.206,-8.457 -8.498,-7.744C-6.505,-5.734 -4.528,-3.684 -2.93,-1.347C-1.368,0.936 -0.171,3.523 0.174,6.266C0.182,6.33 0.19,6.393 0.197,6.457C0.231,6.759 0.234,7.112 0,7.305" style="fill:rgb(6,103,56);fill-rule:nonzero;"/>
            </g>
            <g transform="matrix(5.98321,0,0,5.98321,-4521.28,421.371)">
                <path d="M0,-16.254C-1.659,-16.261 -3.318,-16.335 -4.976,-16.397C-5.884,-16.433 -6.963,-16.528 -7.186,-15.113C-7.392,-13.829 -9.59,-15.086 -9.396,-15.973C-9.336,-16.257 -9.073,-16.447 -8.811,-16.586C-8.64,-16.678 -8.451,-16.761 -8.257,-16.772C-7.974,-16.79 -7.874,-16.597 -7.645,-16.527C-7.409,-16.451 -7.148,-16.529 -6.925,-16.603C-6.267,-16.815 -5.538,-16.976 -4.862,-16.904C-3.166,-16.721 -1.476,-16.812 0.217,-16.797C0.547,-16.797 0.979,-16.766 1.045,-17.179C1.125,-17.694 1.265,-18.225 1.12,-18.76C1.104,-18.814 0.972,-18.865 0.887,-18.869C-1.153,-19.095 -3.192,-19.305 -5.226,-19.531C-5.992,-19.613 -6.728,-19.802 -7.136,-18.797C-7.316,-18.346 -7.855,-18.385 -8.279,-18.646C-8.703,-18.912 -9.014,-19.293 -8.834,-19.806C-8.671,-20.266 -8.247,-20.396 -7.758,-20.303C-7.401,-20.238 -7.037,-20.151 -6.679,-20.147C-4.382,-20.127 -2.145,-19.414 0.179,-19.664C0.638,-19.713 1.215,-19.287 1.311,-20.088C1.392,-20.781 1.593,-21.585 0.54,-21.833C-1.561,-22.322 -3.671,-22.782 -5.824,-22.949C-6.24,-22.981 -6.698,-23.055 -7.074,-22.744C-7.852,-22.099 -8.543,-22.281 -8.935,-23.225C-9.089,-23.603 -9.056,-23.947 -8.756,-24.234C-8.421,-24.558 -8.07,-24.442 -7.775,-24.177C-7.448,-23.88 -7.105,-23.708 -6.646,-23.629C-4.492,-23.244 -2.281,-23.183 -0.176,-22.51C0.077,-22.431 0.343,-22.38 0.608,-22.352C0.968,-22.315 1.359,-22.253 1.509,-22.734C1.631,-23.135 1.487,-23.391 1.189,-23.69C0.094,-24.771 -1.366,-25.13 -2.716,-25.654C-3.951,-26.137 -5.244,-26.638 -6.668,-26.178C-7.223,-26.004 -7.69,-26.512 -7.888,-27.009C-8.044,-27.404 -7.787,-27.81 -7.402,-28.01C-6.919,-28.251 -6.415,-28.293 -6.095,-27.739C-5.769,-27.175 -5.273,-26.853 -4.672,-26.747C-2.808,-26.422 -1.136,-25.59 0.554,-24.81C0.931,-24.635 1.309,-24.393 1.662,-24.651C1.977,-24.878 1.84,-25.325 1.86,-25.689C1.879,-26.126 1.55,-26.322 1.284,-26.568C0.272,-27.517 -1.001,-28.053 -2.156,-28.777C-2.639,-29.083 -3.038,-29.307 -3.706,-29.15C-4.434,-28.978 -5.351,-29.532 -5.084,-30.342C-5.035,-30.497 -4.958,-30.648 -4.851,-30.769C-4.632,-31.016 -4.272,-31.124 -3.958,-31.039C-3.581,-30.942 -3.395,-30.583 -3.16,-30.307C-2.838,-29.932 -2.482,-29.604 -2.068,-29.337C-1.007,-28.655 0.124,-28.085 1.137,-27.321C1.709,-26.888 1.986,-27.118 2.143,-27.717C2.42,-28.778 2.915,-30.65 4.133,-29.133C4.145,-29.117 4.161,-29.11 4.175,-29.098C4.533,-28.555 5.001,-28.08 5.378,-27.552C5.732,-27.062 5.732,-26.861 6.185,-27.39C6.545,-27.817 6.966,-28.192 7.328,-28.613C7.679,-29.022 8.093,-29.28 8.5,-29.616C9.086,-30.094 8.839,-31.453 9.977,-31.062C10.535,-30.869 11.003,-30.405 10.849,-29.772C10.703,-29.18 10.221,-28.799 9.543,-29.094C9.063,-29.3 8.713,-29.148 8.352,-28.855C7.75,-28.375 7.228,-27.807 6.759,-27.203C6.193,-26.486 5.903,-25.742 6.406,-24.807C6.644,-24.363 6.689,-24.093 7.184,-24.509C8.437,-25.562 9.961,-26.103 11.492,-26.549C11.939,-26.681 12.409,-26.876 12.588,-27.338C12.757,-27.782 12.776,-28.096 13.419,-28.016C13.741,-27.976 14.035,-27.794 14.245,-27.549C14.475,-27.277 14.616,-26.921 14.55,-26.575C14.49,-26.223 14.192,-25.914 13.841,-25.907C13.59,-25.903 13.355,-26.04 13.106,-26.086C12.476,-26.201 11.65,-25.735 11.016,-25.638C9.814,-25.454 8.722,-24.949 7.719,-24.263C6.82,-23.652 6.643,-23.034 7.001,-22.025C7.123,-21.7 7.285,-21.558 7.587,-21.761C8.444,-22.33 9.406,-22.717 10.371,-23.06C10.847,-23.234 11.317,-23.429 11.808,-23.571C12.276,-23.71 12.831,-23.69 13.271,-23.905C13.437,-23.986 13.572,-24.114 13.731,-24.211C13.949,-24.347 14.217,-24.408 14.476,-24.385C14.717,-24.366 14.961,-24.264 15.078,-24.056C15.138,-23.949 15.159,-23.828 15.175,-23.706C15.2,-23.468 15.198,-23.223 15.099,-23.008C14.986,-22.758 14.733,-22.57 14.463,-22.536C14.082,-22.482 13.982,-22.68 13.742,-22.878C13.419,-23.136 13.175,-23.11 12.759,-23.075C11.012,-22.94 9.509,-22.14 8.007,-21.344C7.077,-20.848 6.906,-20.275 7.397,-19.077C7.579,-18.634 7.724,-18.713 8.06,-18.836C10.244,-19.627 12.763,-19.284 14.814,-20.466C15.197,-20.688 15.601,-20.47 15.819,-20.058C16.131,-19.47 15.812,-19.013 15.442,-18.62C15.125,-18.275 14.741,-18.388 14.512,-18.732C14.155,-19.261 13.696,-19.206 13.184,-19.118C12.397,-18.985 11.592,-18.924 10.808,-18.758C9.837,-18.549 8.815,-18.547 7.937,-17.966C7.302,-17.544 7.511,-16.976 7.601,-16.436C7.707,-15.763 8.209,-16.107 8.553,-16.13C9.62,-16.197 10.683,-16.296 11.749,-16.374C12.976,-16.465 14.238,-16.051 15.439,-16.721C15.802,-16.919 16.225,-16.664 16.401,-16.226C16.542,-15.881 16.63,-15.497 16.32,-15.198C15.979,-14.868 15.591,-14.897 15.261,-15.238C15.005,-15.495 14.681,-15.563 14.349,-15.592C12.453,-15.763 10.557,-15.873 8.663,-15.547C8.289,-15.488 7.806,-15.509 7.758,-14.947C7.712,-14.362 8.152,-14.248 8.586,-14.128C10.255,-13.675 11.933,-13.229 13.602,-12.765C14.197,-12.603 14.741,-12.43 15.212,-13.078C15.473,-13.441 15.905,-13.337 16.166,-13.018C16.534,-12.563 16.507,-12.014 16.282,-11.504C16.113,-11.115 15.754,-11.13 15.427,-11.309C13.404,-12.397 11.147,-12.745 8.979,-13.368C8.641,-13.468 8.129,-13.856 7.895,-13.172C7.647,-12.464 7.984,-11.504 8.524,-11.32C9.973,-10.821 11.405,-10.254 12.88,-9.846C13.783,-9.598 14.698,-8.937 15.721,-9.659C15.974,-9.836 16.361,-9.612 16.483,-9.22C16.608,-8.8 16.799,-8.375 16.435,-7.993C16.132,-7.677 15.755,-7.707 15.438,-7.966C14.592,-8.666 13.587,-9.001 12.557,-9.294C11.728,-9.532 10.849,-9.694 10.081,-10.06C7.668,-11.209 7.999,-10.662 8.005,-8.446C8.011,-7.966 8.194,-7.78 8.685,-7.659C10.947,-7.111 13.251,-6.667 15.392,-5.706C15.844,-5.504 16.311,-5.794 16.771,-5.637C16.967,-5.569 17.141,-5.422 17.256,-5.247C17.423,-4.988 17.478,-4.657 17.403,-4.355C17.145,-3.356 15.888,-3.168 15.603,-4.238C15.458,-4.779 15.099,-5.067 14.622,-5.29C12.831,-6.146 10.879,-6.458 8.992,-6.992C8.688,-7.079 8.277,-7.19 8.117,-6.769C7.984,-6.417 8.033,-6.03 8.309,-5.741C8.492,-5.549 8.717,-5.401 8.941,-5.252C10.842,-4.02 12.698,-2.717 14.474,-1.308C14.684,-1.141 14.955,-0.834 15.253,-0.87C15.586,-0.904 15.707,-1.193 16.108,-1.131C16.408,-1.084 16.704,-0.947 16.913,-0.724C17.122,-0.496 17.243,-0.182 17.196,0.124C17.172,0.304 17.096,0.472 16.991,0.621C16.479,1.373 15.915,0.967 15.453,0.459C13.52,-1.708 11.046,-3.183 8.684,-4.795C8.482,-4.934 8.209,-5.062 8.12,-4.725C7.98,-4.195 7.732,-3.554 8.417,-3.237C9.068,-2.928 9.421,-2.377 9.838,-1.87C11.111,-0.329 12.389,1.206 13.636,2.766C14.197,3.462 14.774,2.888 15.509,3.201C15.602,3.238 15.689,3.287 15.757,3.354C15.848,3.447 15.897,3.571 15.935,3.691C16.037,4.034 16.041,4.419 15.889,4.739C15.737,5.064 15.412,5.314 15.055,5.322C14.615,5.331 14.221,4.967 14.124,4.54C13.931,3.696 12.995,3.121 12.519,2.367C11.459,0.703 9.907,-0.569 8.868,-2.253C8.707,-2.502 8.432,-2.719 8.1,-2.619C7.724,-2.509 7.827,-2.138 7.784,-1.855C7.738,-1.539 7.833,-1.268 8.006,-1.008C9.511,1.317 11.007,3.644 12.517,5.958C12.652,6.164 12.695,6.418 13.042,6.495C13.771,6.657 14.281,7.62 14.065,8.314C13.915,8.795 13.581,8.929 13.131,8.699C12.723,8.487 12.458,8.124 12.431,7.663C12.376,6.679 11.838,5.909 11.353,5.117C10.418,3.62 9.468,2.131 8.512,0.647C8.288,0.303 8.133,-0.354 7.697,-0.223C7.283,-0.094 7.357,0.587 7.277,1.035C7.244,1.238 7.355,1.497 7.471,1.689C9.209,4.514 9.835,7.868 11.712,10.632C11.89,10.885 12.134,11.266 12.071,11.59C12.037,11.777 11.922,11.937 11.776,12.061C11.51,12.29 11.126,12.378 10.784,12.289C10.31,12.167 10.337,11.344 10.328,10.976C10.248,7.8 8.559,5.227 7.227,2.518C7.14,2.341 6.993,2.114 6.781,2.193C6.472,2.302 6.636,2.585 6.681,2.793C6.944,4.139 7.195,5.481 7.502,6.812C7.921,8.62 7.678,10.599 9.081,12.158C9.542,12.661 9.081,13.565 8.471,13.677C7.685,13.821 7.565,13.194 7.392,12.656C7.167,11.971 7.639,11.334 7.557,10.688C7.252,8.24 6.848,5.805 6.274,3.402C6.214,3.15 6.173,2.796 5.84,2.824C5.429,2.853 5.485,3.25 5.475,3.536C5.424,5.265 5.246,7.011 5.384,8.73C5.517,10.333 5.102,12.054 6.242,13.533C6.613,14.027 6.563,14.702 5.994,14.978C5.769,15.086 5.516,15.13 5.26,15.151C4.544,15.199 4.681,14.233 4.814,13.753C5.016,13.022 5.001,12.308 4.951,11.575C4.829,9.782 4.791,7.987 4.853,6.184C4.887,5.12 4.893,4.053 4.916,2.985C4.921,2.711 4.911,2.399 4.568,2.366C4.276,2.34 4.247,2.661 4.174,2.868C3.715,4.118 3.176,5.358 3.098,6.704C2.991,8.5 2.423,10.323 3.347,12.089C3.572,12.522 3.363,12.958 2.907,13.175C2.38,13.426 1.891,13.243 1.576,12.811C1.247,12.359 1.104,11.706 1.611,11.362C2.367,10.853 2.337,10.163 2.35,9.441C2.383,7.836 2.491,6.247 3.016,4.707C3.339,3.759 3.604,2.793 3.876,1.832C3.941,1.614 4.003,1.341 3.767,1.193C3.49,1.015 3.27,1.19 3.063,1.392C2.542,1.91 2.045,2.443 1.657,3.078C0.581,4.843 0.012,6.783 -0.254,8.815C-0.346,9.521 -0.959,10.142 -1.637,9.578C-2.129,9.167 -2.234,7.769 -1.42,7.628C-0.467,7.465 -0.41,6.813 -0.23,6.167C0.314,4.251 1.11,2.476 2.536,1.034C2.82,0.753 3.085,0.452 3.315,0.126C3.625,-0.302 3.399,-0.741 3.175,-1.086C2.906,-1.493 2.56,-1.152 2.312,-0.986C0.072,0.474 -2.222,1.888 -2.763,4.848C-2.889,5.545 -3.663,5.699 -4.159,5.177C-4.422,4.908 -4.601,4.571 -4.438,4.178C-4.248,3.716 -4.089,3.144 -3.471,3.182C-3.045,3.208 -2.866,3.009 -2.683,2.725C-1.857,1.445 -0.727,0.407 0.495,-0.482C1.053,-0.886 1.636,-1.259 2.22,-1.626C2.718,-1.941 3.066,-2.26 2.747,-2.87C2.248,-3.828 1.035,-2.772 0.424,-2.464C-0.572,-1.962 -1.582,-1.476 -2.571,-0.958C-3.224,-0.619 -4.211,-0.324 -4.376,0.505C-4.461,0.958 -4.303,1.515 -4.693,1.86C-5.109,2.23 -5.838,2.117 -6.174,1.704C-6.503,1.313 -6.478,0.674 -6.13,0.299C-5.965,0.129 -5.751,0.016 -5.542,-0.091C-3.128,-1.342 -0.702,-2.711 1.821,-3.792C2.078,-3.926 2.444,-3.962 2.405,-4.36C2.327,-5.091 2.327,-5.889 1.91,-6.474C1.637,-6.865 0.974,-6.581 0.486,-6.607C-1.606,-6.717 -3.454,-6.055 -5.058,-4.726C-5.231,-4.589 -5.459,-4.447 -5.524,-4.224C-5.611,-3.932 -5.402,-3.771 -5.352,-3.501C-5.219,-2.781 -6.352,-2.631 -6.793,-2.828C-7.297,-3.06 -7.763,-3.685 -7.587,-4.258C-7.316,-5.158 -6.556,-4.679 -5.925,-4.877C-5.565,-4.985 -5.299,-5.276 -4.992,-5.474C-4.287,-5.924 -3.554,-6.309 -2.756,-6.582C-1.463,-7.02 -0.301,-7.206 1.058,-7.18C1.215,-7.176 1.383,-7.173 1.528,-7.235C2.343,-7.577 1.603,-9.358 1.53,-9.955C1.476,-10.336 -4.033,-9.245 -4.422,-9.151C-5.396,-8.914 -6.607,-8.846 -6.862,-7.412C-6.953,-6.902 -7.619,-6.785 -8.037,-7.035C-8.631,-7.399 -8.723,-8.095 -8.607,-8.724C-8.519,-9.201 -8.115,-9.441 -7.606,-9.232C-7.16,-9.046 -6.734,-8.959 -6.265,-9.154C-4.236,-10.004 -2.017,-9.91 -0.115,-10.404C0.228,-10.438 1.002,-10.335 1.295,-10.499C1.604,-10.676 1.377,-11.461 1.333,-11.848C1.12,-13.74 1.118,-13.695 -0.791,-13.547C-3.187,-13.364 -5.469,-12.939 -7.371,-11.312C-7.809,-10.935 -8.331,-11.103 -8.688,-11.559C-9.081,-12.063 -9.156,-12.626 -8.722,-13.114C-8.294,-13.602 -7.832,-13.289 -7.509,-12.959C-7.106,-12.551 -6.773,-12.573 -6.272,-12.788C-4.826,-13.395 -3.377,-14.035 -1.93,-13.882C-1.119,-14.005 -0.497,-14.119 0.133,-14.194C0.973,-14.292 1.271,-14.808 1.212,-15.573C1.151,-16.372 0.508,-16.252 0,-16.254" style="fill:rgb(40,82,100);fill-rule:nonzero;"/>
            </g>
            <g transform="matrix(5.98321,0,0,5.98321,-4229.06,-100.993)">
                <path d="M0,13.944C0.167,13.92 0.338,13.931 0.508,13.928C0.506,14.215 0.202,14.057 0.094,14.203C0.067,14.239 -0.046,14.226 -0.115,14.212C-0.156,14.203 -0.186,14.146 -0.239,14.094C-0.149,14.035 -0.079,13.956 0,13.944M-2.563,11.367C-2.376,11.908 -2.201,12.416 -2.026,12.924C-2.46,12.507 -2.66,12.01 -2.563,11.367M-8.258,9.15C-7.924,8.621 -7.457,8.327 -6.804,8.355C-7.382,8.458 -7.805,8.83 -8.258,9.15M-8.581,12.028C-8.868,11.764 -9.147,11.485 -9.177,11.065C-9.18,11.014 -9.074,10.956 -9.01,10.893C-8.698,11.194 -8.393,11.446 -8.365,11.876C-8.357,12 -8.5,12.103 -8.581,12.028M-7.247,3.077C-7.281,3.069 -7.319,3.07 -7.348,3.054C-7.442,3.002 -7.532,2.944 -7.624,2.889C-7.594,2.876 -7.558,2.844 -7.535,2.851C-7.427,2.886 -7.323,2.931 -7.218,2.973L-7.247,3.077ZM-8.004,2.839C-8.128,2.835 -8.253,2.835 -8.377,2.824C-8.418,2.821 -8.456,2.791 -8.496,2.773C-8.465,2.754 -8.433,2.718 -8.403,2.719C-8.267,2.722 -8.132,2.737 -7.997,2.747C-7.999,2.778 -8.002,2.808 -8.004,2.839M-10.473,4.797C-10.512,4.908 -10.67,4.881 -10.732,4.764C-10.863,4.514 -10.784,3.898 -10.59,3.717C-10.558,3.688 -10.496,3.692 -10.447,3.68C-10.408,3.738 -10.364,3.78 -10.35,3.829C-10.259,4.167 -10.364,4.485 -10.473,4.797M-2.446,2.431C-3.128,3.398 -4.122,3.911 -5.225,4.231C-5.738,4.38 -5.798,4.326 -5.986,3.798C-6.005,3.745 -6.038,3.696 -6.054,3.642C-6.28,2.874 -7.268,2.158 -8.186,2.188C-8.753,2.206 -9.247,2.358 -9.687,2.717C-9.958,2.938 -10.208,3.195 -10.6,3.23C-10.715,3.24 -10.847,3.392 -10.918,3.51C-11.15,3.898 -11.166,4.336 -11.111,4.766C-11.077,5.025 -10.944,5.24 -10.66,5.363C-10.448,5.455 -10.248,5.626 -10.101,5.808C-9.748,6.246 -9.325,6.541 -8.781,6.707C-7.653,7.052 -6.441,6.38 -6.034,5.327C-5.93,5.059 -5.807,4.924 -5.543,4.874C-4.335,4.646 -3.213,4.211 -2.191,3.425C-2.197,3.905 -2.279,4.316 -2.401,4.732C-2.79,6.066 -3.517,7.182 -4.527,8.121C-4.92,8.486 -4.931,8.473 -5.434,8.203C-5.584,8.123 -5.739,8.054 -5.888,7.974C-6.345,7.728 -6.84,7.741 -7.311,7.852C-8.334,8.094 -9.13,8.947 -9.158,10.114C-9.162,10.32 -9.189,10.491 -9.378,10.59C-9.589,10.701 -9.59,10.87 -9.554,11.071C-9.457,11.62 -9.124,12.022 -8.724,12.37C-8.637,12.447 -8.444,12.421 -8.302,12.413C-8.118,12.402 -7.936,12.337 -7.754,12.342C-7.474,12.35 -7.196,12.405 -6.915,12.426C-5.51,12.534 -4.278,11.262 -4.501,9.845C-4.53,9.66 -4.579,9.478 -4.627,9.297C-4.692,9.053 -4.638,8.867 -4.428,8.703C-4.163,8.496 -3.901,8.276 -3.675,8.028C-3.225,7.532 -2.802,7.013 -2.341,6.473C-2.318,6.607 -2.298,6.731 -2.276,6.855C-2.167,7.465 -2.11,8.09 -1.936,8.68C-1.744,9.335 -1.765,9.323 -2.28,9.765C-2.584,10.026 -2.869,10.304 -2.994,10.686C-3.253,11.471 -3.205,12.236 -2.756,12.956C-2.39,13.543 -1.938,13.892 -1.199,14.17C-1.083,14.213 -0.979,14.309 -0.891,14.402C-0.434,14.885 0.177,14.957 0.718,14.575C0.881,14.459 1.021,14.304 1.193,14.206C1.567,13.993 1.559,13.678 1.437,13.347C1.385,13.207 1.364,13.112 1.466,12.991C1.86,12.526 1.885,12.002 1.786,11.415C1.555,10.047 0.731,9.257 -0.657,9.153C-0.695,9.15 -0.732,9.147 -0.77,9.144C-1.212,9.117 -1.206,9.115 -1.342,8.701C-1.719,7.556 -1.761,6.379 -1.646,5.196C-1.574,4.451 -1.446,3.71 -1.315,2.972C-1.273,2.739 -1.208,0.951 -1.07,0.366C-0.933,-0.219 -1.289,-1.013 -1.478,0.285C-1.666,1.583 -2.179,2.052 -2.446,2.431" style="fill:rgb(82,142,128);fill-rule:nonzero;"/>
            </g>
            <g transform="matrix(5.98321,0,0,5.98321,-4223.52,-629.906)">
                <path d="M0,-10.272C2.817,-9.596 5.564,-8.746 8.374,-8.309C12.296,-7.7 16.266,-7.4 20.215,-6.966C23.137,-6.645 25.998,-6.187 28.309,-4.095C28.769,-3.678 29.443,-3.498 30.018,-3.208C30.002,-3.098 29.986,-2.987 29.969,-2.876C26.55,-3.071 23.13,-3.266 19.71,-3.461C19.703,-3.361 19.696,-3.26 19.688,-3.16C22.57,-2.874 25.452,-2.589 28.436,-2.293C27.973,-1.369 26.993,-1.119 26.104,-0.838C23.453,0 20.774,-0.32 18.166,-0.984C11.589,-2.66 5.639,-5.645 0.307,-9.85C0.191,-9.942 0.096,-10.062 -0.001,-10.176C-0.018,-10.196 -0.001,-10.247 0,-10.272" style="fill:rgb(61,123,81);fill-rule:nonzero;"/>
            </g>
            <g transform="matrix(5.98321,0,0,5.98321,-4581.88,-187.356)">
                <path d="M0,17.256C2.197,3.885 5.781,-9.044 12.102,-21.107C12.166,-21.095 12.23,-21.083 12.295,-21.071C12.251,-20.832 12.267,-20.558 12.153,-20.359C11.32,-18.896 11.171,-17.278 11.123,-15.658C11.105,-15.057 11.352,-14.441 11.51,-13.841C12.065,-11.734 11.994,-9.614 11.686,-7.483C11.111,-3.507 9.766,0.251 8.437,4.012C7.212,7.474 5.876,10.898 4.71,14.38C3.705,17.38 2.794,20.417 1.978,23.474C0.713,28.216 -0.121,33.04 -0.393,37.951C-0.4,38.08 -0.423,38.208 -0.439,38.336C-0.49,38.345 -0.541,38.354 -0.592,38.363C-0.806,37.62 -1.047,36.883 -1.228,36.131C-2.071,32.624 -2.532,29.06 -2.821,25.468C-3.224,20.453 -3.318,15.433 -2.894,10.422C-2.628,7.28 -2.264,4.136 -1.721,1.032C-0.974,-3.239 0.248,-7.382 2.474,-11.161C3.653,-13.163 5.147,-14.88 7.1,-16.155C7.629,-16.501 8.25,-16.708 8.912,-16.934C3.795,-6.08 1.321,5.438 0,17.256" style="fill:rgb(61,123,81);fill-rule:nonzero;"/>
            </g>
            <g transform="matrix(5.98321,0,0,5.98321,-3689.75,-622.451)">
                <path d="M0,-10.811C0.022,-10.851 0.136,-10.854 0.205,-10.849C0.247,-10.846 0.285,-10.794 0.345,-10.749C0.264,-10.678 0.206,-10.59 0.129,-10.568C-0.033,-10.521 -0.204,-10.508 -0.372,-10.481C-0.41,-10.766 -0.087,-10.652 0,-10.811M3.025,-8.371C2.765,-8.881 2.521,-9.36 2.277,-9.839C2.765,-9.486 3.032,-9.023 3.025,-8.371M8.973,-6.967C8.715,-6.397 8.293,-6.04 7.643,-5.978C8.201,-6.16 8.568,-6.587 8.973,-6.967M8.893,-9.862C9.214,-9.64 9.529,-9.403 9.616,-8.991C9.627,-8.941 9.53,-8.869 9.475,-8.798C9.124,-9.053 8.788,-9.259 8.7,-9.681C8.674,-9.803 8.802,-9.925 8.893,-9.862M-1.19,-9.421C-1.516,-8.905 -1.468,-8.383 -1.289,-7.815C-0.87,-6.493 0.056,-5.825 1.445,-5.914C1.482,-5.917 1.52,-5.919 1.558,-5.922C1.999,-5.956 1.993,-5.954 2.186,-5.562C2.718,-4.481 2.923,-3.321 2.973,-2.133C3.005,-1.385 2.936,-0.519 2.954,0.115C2.972,0.75 3.718,0.46 3.739,-0.16C3.76,-0.779 3.723,-1.349 3.785,-1.778C3.986,-3.154 4.551,-4.36 5.42,-5.43C5.759,-5.846 5.772,-5.835 6.308,-5.637C6.467,-5.579 6.63,-5.532 6.789,-5.473C7.276,-5.294 7.763,-5.375 8.215,-5.551C9.195,-5.932 9.864,-6.887 9.729,-8.047C9.706,-8.252 9.708,-8.424 9.881,-8.549C10.075,-8.688 10.053,-8.855 9.989,-9.05C9.817,-9.58 9.431,-9.932 8.987,-10.221C8.89,-10.284 8.703,-10.232 8.563,-10.204C8.383,-10.168 8.211,-10.078 8.03,-10.058C7.752,-10.027 7.468,-10.043 7.188,-10.025C5.782,-9.936 4.738,-8.506 5.155,-7.134C5.209,-6.954 5.283,-6.781 5.356,-6.608C5.454,-6.375 5.427,-6.184 5.242,-5.993C5.008,-5.751 4.779,-5.497 4.59,-5.219C4.213,-4.666 3.866,-4.093 3.484,-3.494C3.443,-3.624 3.406,-3.744 3.367,-3.864C3.175,-4.452 3.031,-5.063 2.777,-5.624C2.496,-6.246 2.518,-6.237 2.967,-6.746C3.232,-7.047 3.475,-7.362 3.547,-7.757C3.694,-8.571 3.54,-9.322 2.996,-9.972C2.551,-10.503 2.055,-10.785 1.285,-10.958C1.164,-10.985 1.048,-11.065 0.948,-11.145C0.428,-11.561 -0.188,-11.547 -0.67,-11.093C-0.816,-10.956 -0.932,-10.783 -1.089,-10.662C-1.43,-10.399 -1.378,-10.089 -1.211,-9.777C-1.141,-9.645 -1.106,-9.554 -1.19,-9.421" style="fill:rgb(82,142,128);fill-rule:nonzero;"/>
            </g>
            <g transform="matrix(5.98321,0,0,5.98321,-4023.15,-487.227)">
                <path d="M0,-1.131C-1.145,-1.262 -2.29,-1.25 -3.436,-1.134C-3.54,-1.125 -3.694,-1.132 -3.719,-1.007C-3.747,-0.871 -3.59,-0.838 -3.502,-0.782C-2.538,-0.186 -1.61,0.431 -0.977,1.421C-0.227,2.593 -0.472,3.626 -1.588,4.433C-2.676,5.22 -4.116,4.861 -4.881,3.839C-5.872,2.512 -6.23,1.048 -5.713,-0.564C-5.634,-0.81 -5.656,-0.875 -5.913,-0.842C-6.648,-0.739 -7.334,-0.474 -8.016,-0.207C-8.447,-0.04 -8.105,0.141 -7.973,0.274C-7.113,1.128 -6.529,2.14 -6.175,3.298C-5.747,4.701 -6.252,5.957 -7.495,6.52C-8.967,7.191 -10.571,6.056 -10.57,4.319C-10.569,3.542 -10.378,2.791 -10.11,2.062C-9.974,1.692 -9.849,1.316 -9.724,0.942C-9.686,0.819 -9.615,0.673 -9.748,0.579C-9.869,0.495 -10.006,0.568 -10.119,0.634C-10.724,0.98 -11.327,1.331 -11.841,1.806C-11.997,1.948 -12.155,2.126 -12.029,2.347C-11.707,2.922 -11.955,3.468 -12.147,3.981C-12.531,5.016 -13.174,5.878 -14.226,6.31C-15.231,6.725 -16.224,6.46 -17.169,6.048C-17.693,5.823 -18.147,5.514 -18.358,4.919C-18.765,3.757 -18.379,2.65 -17.324,1.991C-15.753,1.008 -14.127,0.885 -12.432,1.615C-12.312,1.666 -12.228,1.665 -12.122,1.597C-11.564,1.247 -11.005,0.903 -10.447,0.55C-10.375,0.503 -10.253,0.447 -10.302,0.349C-10.327,0.3 -10.473,0.3 -10.563,0.303C-11.378,0.328 -12.174,0.248 -12.959,0.003C-13.653,-0.215 -14.289,-0.554 -14.863,-0.97C-15.406,-1.367 -15.8,-1.918 -15.638,-2.669C-15.451,-3.533 -15.005,-4.209 -14.124,-4.479C-12.602,-4.949 -9.766,-4.042 -9.338,-1.921C-9.275,-1.613 -9.112,-1.33 -9.128,-0.996C-9.157,-0.374 -8.952,-0.224 -8.329,-0.415C-7.717,-0.597 -7.111,-0.804 -6.499,-1.002C-6.445,-1.019 -6.386,-1.03 -6.342,-1.06C-6.214,-1.159 -5.941,-1.032 -5.933,-1.251C-5.925,-1.405 -6.169,-1.397 -6.297,-1.459C-7.864,-2.217 -8.888,-3.413 -9.279,-5.132C-9.386,-5.607 -9.303,-6.022 -9.02,-6.411C-7.74,-8.174 -5.338,-8.322 -4.145,-5.974C-3.783,-5.261 -3.617,-4.331 -3.971,-3.452C-4.203,-2.881 -4.206,-2.23 -4.566,-1.695C-4.721,-1.47 -4.568,-1.371 -4.364,-1.399C-3.035,-1.569 -1.696,-1.557 -0.361,-1.55C-0.288,-1.552 0.286,-1.098 0,-1.131" style="fill:rgb(82,142,128);fill-rule:nonzero;"/>
            </g>
            <g transform="matrix(5.98321,0,0,5.98321,-3601.46,-426.547)">
                <path d="M0,8.104C1.15,5.905 2.31,3.715 3.362,1.463C4.293,-0.528 5.623,-2.279 6.893,-4.056C7.497,-4.901 8.391,-5.525 9.064,-6.349C9.602,-7.005 9.841,-7.674 9.695,-8.497C9.67,-8.631 9.662,-8.768 9.653,-8.905C9.645,-9.027 9.666,-9.165 9.807,-9.175C9.953,-9.186 9.992,-9.046 10.006,-8.928C10.108,-8.111 10.284,-7.289 10.281,-6.467C10.274,-5.625 10.213,-3.238 10.214,-3.108C10.215,-1.584 10.199,-0.063 10.229,1.461C10.246,2.231 10.088,2.974 9.993,3.728C9.472,7.951 8.005,11.872 6.158,15.667C5.887,16.228 5.508,16.735 4.95,17.07C4.589,17.29 4.364,17.193 4.27,16.776C4.121,16.121 4.082,15.47 4.243,14.804C5.125,11.237 6.182,7.719 7.297,4.224C8.146,1.566 8.986,-1.097 9.843,-3.751C10.046,-4.373 9.927,-4.992 9.931,-5.612C9.93,-5.72 9.908,-5.874 9.778,-5.895C9.647,-5.916 9.586,-5.776 9.518,-5.685C9.167,-5.19 8.854,-4.67 8.507,-3.915C8.255,-2.946 7.616,-1.887 7.47,-0.628C7.299,0.849 6.545,2.149 5.859,3.442C4.911,5.22 3.89,6.957 2.697,8.583C1.857,9.728 1.033,10.906 -0.19,11.705C-0.391,11.837 -0.6,12.079 -0.866,11.883C-1.106,11.704 -1.133,11.414 -1.063,11.13C-0.812,10.086 -0.507,9.073 0,8.104" style="fill:rgb(6,103,56);fill-rule:nonzero;"/>
            </g>
        </g>
    </g>
</svg>
