<?xml version="1.0" encoding="UTF-8" standalone="no"?>
<!DOCTYPE svg PUBLIC "-//W3C//DTD SVG 1.1//EN" "http://www.w3.org/Graphics/SVG/1.1/DTD/svg11.dtd">
<svg width="100%" height="100%" viewBox="0 0 1279 1279" version="1.1" xmlns="http://www.w3.org/2000/svg" xmlns:xlink="http://www.w3.org/1999/xlink" xml:space="preserve" xmlns:serif="http://www.serif.com/" style="fill-rule:evenodd;clip-rule:evenodd;stroke-linejoin:round;stroke-miterlimit:2;">
    <g transform="matrix(1,0,0,1,-1650,-3327)">
        <g id="corner-bottom-right" transform="matrix(0.928524,0,0,0.928524,5922.96,3989.68)">
            <rect x="-4600.85" y="-713.077" width="1376.14" height="1376.14" style="fill:none;"/>
            <g transform="matrix(5.98321,0,0,5.98321,-3900.42,414.989)">
                <path d="M0,-44.5C0.398,-43.2 0.895,-41.92 1.175,-40.594C1.753,-37.86 2.351,-35.119 2.697,-32.35C3.408,-26.657 3.461,-20.958 2.067,-15.336C1.421,-12.727 0.443,-10.259 -1.534,-8.319C-2.164,-7.701 -2.868,-7.2 -3.858,-6.801C-2.468,-10.381 -1.424,-13.893 -0.673,-17.492C0.074,-21.076 0.588,-24.684 0.662,-28.348C0.089,-23.768 -0.729,-19.237 -1.9,-14.772C-3.074,-10.296 -4.514,-5.915 -6.707,-1.81C-6.663,-1.777 -6.618,-1.744 -6.574,-1.711C-5.873,-2.343 -5.153,-2.955 -4.474,-3.61C-1.441,-6.536 1.369,-9.654 3.668,-13.204C4.029,-13.76 4.374,-14.327 4.728,-14.888C5.519,-16.139 5.665,-17.505 5.551,-18.951C5.408,-20.774 5.789,-22.527 6.441,-24.228C7.829,-27.846 10.039,-30.95 12.599,-33.799C14.204,-35.586 15.967,-37.235 17.705,-38.897C18.947,-40.084 20.194,-41.287 21.568,-42.309C23.542,-43.778 25.631,-45.093 27.678,-46.465C28.027,-46.699 28.409,-46.886 28.87,-46.987C28.61,-46.688 28.352,-46.387 28.089,-46.091C25.716,-43.417 23.763,-40.447 21.859,-37.431C19.893,-34.317 18.42,-30.959 16.786,-27.679C15.389,-24.876 14.033,-22.046 12.058,-19.579C10.94,-18.182 9.649,-17.014 7.932,-16.398C7.623,-16.287 7.301,-16.211 6.808,-16.068C9.356,-23.283 13.45,-29.448 17.702,-35.546C16.819,-34.508 15.83,-33.541 15.074,-32.418C13.327,-29.824 11.586,-27.215 10.046,-24.497C8.6,-21.944 7.385,-19.258 6.124,-16.604C4.982,-14.201 3.5,-12.024 1.909,-9.91C1.852,-9.834 1.797,-9.759 1.659,-9.574C2.854,-9.67 3.967,-9.722 4.861,-10.407C6.983,-12.035 9.421,-12.764 12.023,-12.846C15.673,-12.962 19.329,-12.946 22.982,-12.919C27.087,-12.89 31.19,-12.934 35.258,-13.521C37.44,-13.836 39.597,-14.327 41.959,-14.775C40.987,-14.16 40.168,-13.594 39.306,-13.103C35.608,-10.996 31.678,-9.434 27.636,-8.124C23.915,-6.919 20.134,-6.021 16.238,-5.645C13.577,-5.389 10.924,-5.41 8.33,-6.163C6.955,-6.562 5.71,-7.212 4.696,-8.248C4.565,-8.382 4.459,-8.539 4.245,-8.805C11.93,-7.904 19.364,-8.665 26.748,-10.138C26.743,-10.202 26.738,-10.267 26.733,-10.331C26.016,-10.24 25.301,-10.139 24.583,-10.06C22.254,-9.802 19.929,-9.427 17.593,-9.328C14.199,-9.185 10.796,-9.223 7.396,-9.228C5.993,-9.23 4.589,-9.397 3.186,-9.398C1.972,-9.399 1.031,-8.865 0.219,-7.89C-2.958,-4.075 -6.601,-0.742 -10.584,2.22C-10.709,2.313 -10.835,2.435 -10.977,2.466C-11.068,2.487 -11.286,2.352 -11.28,2.309C-11.26,2.159 -11.205,1.973 -11.097,1.881C-10.309,1.209 -9.47,0.594 -8.714,-0.111C-7.177,-1.542 -6.079,-3.281 -5.585,-5.321C-5.406,-6.065 -5.406,-6.96 -5.647,-7.677C-6.705,-10.814 -6.491,-13.932 -5.657,-17.037C-4.534,-21.216 -3.293,-25.363 -2.164,-29.54C-1.146,-33.305 -0.419,-37.128 -0.235,-41.036C-0.181,-42.176 -0.18,-43.319 -0.155,-44.461C-0.103,-44.474 -0.052,-44.487 0,-44.5" style="fill:rgb(61,123,81);fill-rule:nonzero;"/>
            </g>
            <g transform="matrix(5.98321,0,0,5.98321,-3759.55,357.243)">
                <path d="M0,32.242C7.203,27.906 13.925,23.312 18.583,16.292C16.827,19.626 14.577,22.596 11.661,24.964C8.786,27.298 5.732,29.413 2.513,31.805C3.595,31.742 4.507,31.781 5.382,31.62C8.685,31.013 11.449,29.343 13.915,27.128C17.849,23.594 20.387,19.171 21.835,14.152C23.111,9.733 23.157,5.219 22.193,0.711C22.148,0.498 22.017,0.304 21.88,0C21.719,1.556 21.672,3.024 21.398,4.447C20.856,7.256 19.559,9.719 17.835,12.009C14.466,16.482 9.993,19.785 5.904,23.497C3.888,25.326 2.135,27.334 1.337,30.042C1.125,30.759 0.546,31.367 0,32.242" style="fill:rgb(61,123,81);fill-rule:nonzero;"/>
            </g>
            <g transform="matrix(5.98321,0,0,5.98321,-3241.71,275.94)">
                <path d="M0,2.405C-0.624,2.388 -1.249,2.344 -1.872,2.358C-7.917,2.489 -13.855,3.415 -19.716,4.848C-25.972,6.377 -32.045,8.438 -37.815,11.327C-41.662,13.254 -45.32,15.482 -48.462,18.459C-50.956,20.821 -52.982,23.503 -53.835,26.91C-54.016,27.632 -54.068,28.387 -54.106,29.152C-44.634,20.722 -34.079,14.13 -22.381,9.37C-29.39,12.771 -36.069,16.735 -42.448,21.203C-48.83,25.673 -54.894,30.52 -60.037,36.437C-60.087,36.401 -60.138,36.365 -60.188,36.329C-59.978,35.778 -59.789,35.218 -59.552,34.678C-58.255,31.716 -57.033,28.718 -55.621,25.811C-53.362,21.159 -50.612,16.799 -47.482,12.674C-45.951,10.657 -44.093,9.237 -41.623,8.54C-37.759,7.45 -34.632,5.144 -31.998,2.189C-30.481,0.488 -29.033,-1.299 -27.762,-3.187C-26.083,-5.681 -24.484,-8.247 -23.078,-10.902C-21.579,-13.734 -20.319,-16.695 -19.002,-19.621C-17.234,-23.547 -15.88,-27.627 -14.672,-31.754C-13.767,-34.844 -13.063,-37.981 -12.659,-41.179C-12.618,-41.503 -12.626,-41.833 -12.707,-42.204C-12.972,-41.696 -13.214,-41.174 -13.507,-40.683C-15.128,-37.962 -16.667,-35.187 -18.41,-32.546C-22.505,-26.339 -27.515,-20.874 -32.555,-15.439C-34.392,-13.458 -36.205,-11.455 -38.017,-9.451C-40.169,-7.071 -42.245,-4.627 -43.903,-1.868C-45.383,0.595 -46.466,3.202 -46.508,6.139C-46.512,6.449 -46.505,6.76 -46.48,7.068C-46.454,7.376 -46.399,7.682 -46.333,8.161C-35.979,-0.739 -28.258,-11.598 -21.077,-22.919C-21.318,-22.419 -21.521,-21.896 -21.807,-21.424C-23.939,-17.916 -26.044,-14.39 -28.247,-10.927C-29.464,-9.013 -30.77,-7.143 -32.181,-5.369C-36.308,-0.18 -40.819,4.667 -45.524,9.336C-47.248,11.047 -48.73,12.965 -50.083,14.981C-51.074,16.457 -52.068,17.93 -53.081,19.436C-53.141,19.368 -53.261,19.296 -53.274,19.208C-53.448,18.07 -53.659,16.933 -53.749,15.786C-53.797,15.175 -53.728,14.515 -53.543,13.931C-52.577,10.886 -52.714,7.83 -53.366,4.764C-54.405,-0.126 -56.323,-4.718 -58.182,-9.328C-58.834,-10.944 -59.618,-12.508 -60.239,-14.135C-61.063,-16.293 -61.812,-18.481 -62.545,-20.673C-63.338,-23.045 -64.127,-25.421 -64.829,-27.821C-66.254,-32.692 -67.264,-37.649 -67.702,-42.713C-67.71,-42.805 -67.752,-42.893 -67.898,-43.015C-67.958,-42.853 -68.036,-42.695 -68.074,-42.528C-68.997,-38.532 -69.571,-34.481 -69.79,-30.391C-69.971,-27.015 -70.105,-23.627 -70.048,-20.249C-69.941,-13.866 -69.333,-7.531 -67.763,-1.314C-66.867,2.234 -65.694,5.669 -63.844,8.839C-62.509,11.125 -60.88,13.175 -58.603,14.602C-57.768,15.125 -56.851,15.516 -55.878,15.88C-60.888,6.096 -63.97,-4.247 -65.846,-14.973C-65.781,-14.995 -65.717,-15.017 -65.652,-15.039C-65.574,-14.828 -65.482,-14.62 -65.422,-14.404C-64.596,-11.403 -63.807,-8.391 -62.943,-5.401C-61.239,0.498 -59.038,6.213 -56.531,11.815C-55.684,13.706 -54.846,15.606 -54.147,17.553C-53.848,18.387 -53.8,19.359 -53.855,20.256C-53.894,20.882 -54.259,21.506 -54.548,22.097C-56.036,25.137 -57.629,28.128 -59.029,31.207C-60.982,35.499 -62.453,39.976 -63.783,44.498C-64.024,45.318 -64.009,45.343 -63.084,45.42C-63.02,45.218 -62.945,45.002 -62.882,44.783C-62.083,42.002 -61.162,39.274 -59.471,36.88C-58.371,35.322 -57.063,33.956 -55.581,32.757C-54.249,31.678 -52.66,31.413 -51.016,31.304C-48.195,31.115 -45.498,30.478 -42.955,29.188C-39.99,27.683 -37.246,25.842 -34.589,23.864C-31.48,21.548 -28.411,19.178 -25.307,16.856C-20.348,13.148 -15.258,9.64 -9.761,6.762C-6.617,5.117 -3.373,3.697 -0.002,2.576C-0.002,2.519 -0.001,2.462 0,2.405" style="fill:rgb(61,123,81);fill-rule:nonzero;"/>
            </g>
            <g transform="matrix(5.98321,0,0,5.98321,-3464.49,103.557)">
                <path d="M0,-20.228C-2.624,-6.934 -3.795,6.431 -2.099,19.943C-2.035,19.955 -1.97,19.966 -1.906,19.978C-1.863,19.738 -1.753,19.488 -1.789,19.261C-2.058,17.599 -1.63,16.031 -1.108,14.497C-0.914,13.927 -0.467,13.437 -0.109,12.93C1.149,11.151 1.824,9.141 2.282,7.037C3.136,3.111 3.193,-0.88 3.264,-4.868C3.33,-8.54 3.278,-12.215 3.405,-15.885C3.514,-19.047 3.724,-22.21 4.031,-25.359C4.505,-30.244 5.414,-35.055 6.879,-39.75C6.918,-39.873 6.941,-40.001 6.971,-40.127C6.926,-40.153 6.881,-40.18 6.837,-40.206C6.376,-39.584 5.892,-38.978 5.46,-38.338C3.442,-35.348 1.762,-32.171 0.234,-28.908C-1.9,-24.352 -3.746,-19.682 -5.104,-14.84C-5.955,-11.804 -6.715,-8.731 -7.293,-5.634C-8.089,-1.372 -8.395,2.936 -7.634,7.256C-7.231,9.544 -6.433,11.675 -5.05,13.554C-4.675,14.063 -4.166,14.474 -3.626,14.917C-4.618,2.959 -2.901,-8.696 0,-20.228" style="fill:rgb(61,123,81);fill-rule:nonzero;"/>
            </g>
            <g transform="matrix(5.98321,0,0,5.98321,-3356.06,122.524)">
                <path d="M0,-27.424C-0.32,-26.632 -0.64,-25.839 -0.961,-25.047C-1.957,-22.587 -3.277,-20.298 -4.73,-18.089C-6.522,-15.362 -8.411,-12.699 -10.176,-9.955C-11.277,-8.244 -12.012,-6.38 -11.99,-4.273C-11.977,-3.07 -12.832,-2.272 -13.562,-1.443C-13.975,-0.973 -14.397,-0.511 -14.756,0C-10.147,-4.593 -6.554,-9.895 -3.835,-15.805C-3.773,-15.774 -3.711,-15.743 -3.649,-15.713C-3.974,-14.995 -4.291,-14.273 -4.627,-13.559C-4.968,-12.834 -5.313,-12.11 -5.685,-11.4C-6.065,-10.672 -6.468,-9.955 -6.882,-9.246C-7.286,-8.556 -7.698,-7.869 -8.14,-7.202C-8.592,-6.519 -9.076,-5.856 -9.564,-5.197C-10.036,-4.56 -10.532,-3.939 -11.017,-3.311C-10.994,-3.254 -10.971,-3.198 -10.948,-3.141C-10.595,-3.232 -10.229,-3.291 -9.89,-3.42C-8.296,-4.028 -7.147,-5.185 -6.158,-6.52C-4.125,-9.264 -2.887,-12.388 -1.874,-15.616C-0.862,-18.843 -0.176,-22.136 0.111,-25.508C0.163,-26.123 0.141,-26.745 0.153,-27.363C0.102,-27.384 0.051,-27.404 0,-27.424" style="fill:rgb(61,123,81);fill-rule:nonzero;"/>
            </g>
            <g transform="matrix(5.98321,0,0,5.98321,-4069.7,627.159)">
                <path d="M0,-23.164C0.046,-23.174 0.092,-23.183 0.138,-23.191C0.354,-23.233 0.612,-23.249 0.77,-23.051C0.967,-22.804 0.871,-22.414 0.756,-22.121C-1.161,-17.226 -5.262,-13.778 -9.812,-13.235C-9.402,-12.918 -8.914,-12.818 -8.442,-12.725C-6.649,-12.373 -4.857,-12.021 -3.064,-11.668C-2.481,-11.554 -1.883,-11.439 -1.314,-11.567C-0.333,-11.787 0.403,-12.678 1.096,-13.511C2.239,-14.883 3.437,-16.213 4.831,-17.207C6.225,-18.202 7.837,-18.851 9.502,-18.768C9.825,-18.752 10.238,-18.613 10.289,-18.226C10.32,-17.987 10.186,-17.779 10.058,-17.605C7.537,-14.194 3.939,-11.974 0.085,-11.453C0.26,-11.233 0.531,-11.193 0.777,-11.169C4.469,-10.818 8.17,-11.021 11.767,-11.772C11.889,-11.798 12.032,-11.787 12.154,-11.741C12.212,-11.719 12.278,-11.686 12.316,-11.623C12.463,-11.375 12.113,-11.402 12.007,-11.383C11.871,-11.359 11.734,-11.335 11.598,-11.312C11.325,-11.266 11.052,-11.222 10.778,-11.18C10.231,-11.097 9.683,-11.024 9.133,-10.961C8.033,-10.835 6.929,-10.748 5.821,-10.7C4.713,-10.652 3.602,-10.644 2.49,-10.676C2.156,-10.685 1.823,-10.698 1.489,-10.714C1.322,-10.723 1.155,-10.732 0.988,-10.742C0.905,-10.747 0.821,-10.752 0.738,-10.758C0.681,-10.761 0.535,-10.739 0.487,-10.775C3.298,-8.665 6.647,-7.68 9.177,-5.091C9.475,-4.787 9.84,-4.175 9.394,-3.94C8.945,-3.705 8.275,-3.736 7.785,-3.763C6.708,-3.822 5.634,-4.205 4.653,-4.802C3.136,-5.726 1.836,-7.13 0.68,-8.647C0.04,-9.486 -0.592,-10.392 -1.441,-10.874C-1.996,-11.189 -2.605,-11.299 -3.204,-11.404C-5.415,-11.796 -7.626,-12.187 -9.837,-12.578C-6.403,-10.059 -3.232,-6.987 -0.443,-3.477C0.163,-2.713 0.768,-1.898 1.065,-0.916C1.135,-0.683 1.18,-0.4 1.049,-0.225C0.962,-0.109 0.822,-0.077 0.69,-0.06C-0.467,0.085 -1.626,-0.547 -2.686,-1.224C-5.837,-3.232 -8.961,-6.092 -10.063,-10.138C-10.337,-11.14 -10.583,-12.345 -11.39,-12.768C-11.721,-12.942 -12.088,-12.939 -12.441,-12.934C-13.78,-12.914 -15.119,-12.893 -16.458,-12.873C-16.545,-13.199 -16.159,-13.353 -15.879,-13.346C-14.746,-13.32 -13.614,-13.294 -12.482,-13.268C-12.047,-13.258 -11.604,-13.25 -11.196,-13.403C-10.506,-13.661 -10.009,-14.342 -9.543,-14.993C-8.231,-16.824 -6.888,-18.642 -5.307,-20.138C-3.763,-21.6 -1.97,-22.753 0,-23.164" style="fill:rgb(6,103,56);fill-rule:nonzero;"/>
            </g>
            <g transform="matrix(5.98321,0,0,5.98321,-3903.99,634.919)">
                <path d="M0,-34.704C0.042,-34.105 -0.405,-33.855 -0.816,-33.583C-0.883,-33.54 -0.978,-33.53 -1.057,-33.531C-2.052,-33.566 -2.569,-32.875 -3.049,-32.181C-3.547,-31.461 -4.003,-30.701 -4.142,-29.81C-4.18,-29.578 -4.118,-29.268 -3.871,-29.168C-3.659,-29.085 -3.573,-29.366 -3.45,-29.497C-1.454,-31.712 0.807,-33.59 3.477,-34.948C3.786,-35.103 3.877,-35.376 4.018,-35.633C4.339,-36.243 4.858,-36.569 5.536,-36.605C6.105,-36.633 6.389,-36.206 6.166,-35.681C5.882,-35.003 5.358,-34.626 4.624,-34.678C3.983,-34.726 3.397,-34.566 2.903,-34.235C0.845,-32.87 -1.123,-31.394 -2.81,-29.573C-3.051,-29.309 -3.284,-29.023 -3.319,-28.652C-3.347,-28.329 -3.399,-27.918 -3.137,-27.719C-2.806,-27.465 -2.671,-27.962 -2.415,-28.076C-2.246,-28.148 -2.108,-28.299 -1.971,-28.432C0.532,-30.865 3.47,-32.639 6.624,-34.073C6.874,-34.191 7.146,-34.251 7.29,-34.519C7.765,-35.42 8.4,-35.764 9.367,-35.642C9.707,-35.597 10.048,-35.516 10.147,-35.148C10.261,-34.74 9.936,-34.574 9.648,-34.404C9.334,-34.221 8.996,-34.044 8.643,-34.082C7.252,-34.226 6.183,-33.454 5.055,-32.858C4.598,-32.611 4.176,-32.291 3.707,-32.07C1.381,-30.992 -0.419,-29.214 -2.307,-27.556C-2.689,-27.219 -2.964,-26.756 -2.536,-26.263C-2.092,-25.754 -1.771,-26.312 -1.506,-26.506C0.89,-28.261 3.421,-29.769 6.18,-30.887C6.737,-31.112 7.296,-31.292 7.487,-32.001C7.574,-32.329 7.977,-32.507 8.335,-32.586C8.737,-32.677 9.245,-32.797 9.439,-32.355C9.64,-31.896 9.219,-31.595 8.828,-31.437C8.071,-31.125 7.293,-30.87 6.534,-30.572C3.579,-29.41 0.862,-27.845 -1.631,-25.885C-2.023,-25.579 -2.143,-25.279 -1.83,-24.842C-1.487,-24.363 -1.178,-24.698 -0.936,-24.897C0.37,-25.984 1.981,-26.511 3.408,-27.357C5.835,-28.794 8.54,-29.478 11.12,-30.494C11.39,-30.601 11.704,-30.603 12.005,-30.631C12.265,-30.658 12.511,-30.59 12.617,-30.324C12.718,-30.062 12.588,-29.829 12.406,-29.662C11.844,-29.136 11.12,-28.885 10.438,-29.171C9.725,-29.472 9.128,-29.356 8.459,-29.165C5.829,-28.414 3.607,-26.787 1.108,-25.761C0.286,-25.425 -0.424,-24.815 -1.092,-24.202C-1.538,-23.796 -1.138,-23.455 -0.99,-23.099C-0.898,-22.891 -0.734,-22.82 -0.529,-22.99C0.597,-23.929 1.921,-24.541 3.215,-25.177C5.199,-26.156 7.196,-27.118 9.423,-27.488C10.911,-27.733 12.506,-27.439 13.888,-28.334C14.09,-28.463 14.511,-28.463 14.728,-28.197C14.922,-27.963 15.028,-27.637 14.893,-27.348C14.639,-26.809 14.138,-26.579 13.574,-26.491C13.14,-26.424 12.742,-26.459 12.566,-26.963C12.481,-27.209 12.293,-27.291 12.057,-27.291C10.848,-27.302 9.606,-27.322 8.473,-26.933C5.939,-26.068 3.461,-25.021 1.158,-23.623C0.63,-23.3 0.085,-22.998 -0.233,-22.394C-0.508,-21.87 -0.298,-21.472 -0.033,-21.107C0.245,-20.72 0.569,-21.071 0.838,-21.186C3.452,-22.31 6.071,-23.401 8.829,-24.167C10.815,-24.721 12.845,-24.99 14.859,-25.391C15.173,-25.454 15.466,-25.384 15.639,-25.078C15.772,-24.844 15.748,-24.609 15.589,-24.385C15.232,-23.881 14.125,-23.778 13.795,-24.292C13.559,-24.653 13.297,-24.667 12.966,-24.625C12.422,-24.555 11.877,-24.493 11.344,-24.378C7.704,-23.609 4.244,-22.336 0.907,-20.712C0.142,-20.338 0.029,-19.932 0.542,-18.985C0.942,-18.256 1.391,-18.881 1.677,-19.064C3.557,-20.268 5.688,-20.812 7.795,-21.384C8.963,-21.7 10.229,-21.614 11.189,-22.582C11.549,-22.943 12.115,-22.87 12.588,-22.624C12.789,-22.521 12.794,-22.314 12.755,-22.118C12.648,-21.584 12.247,-21.368 11.777,-21.235C11.33,-21.106 10.886,-20.963 10.434,-21.249C10.213,-21.39 9.95,-21.298 9.709,-21.275C8.257,-21.123 6.851,-20.798 5.475,-20.302C4.056,-19.791 2.628,-19.31 1.383,-18.422C0.9,-18.079 0.763,-17.355 1.14,-16.835C1.491,-16.358 1.803,-16.855 2.126,-16.947C2.259,-16.981 2.376,-17.064 2.495,-17.129C5.231,-18.572 8.162,-19.443 11.162,-20.104C12.776,-20.461 14.481,-20.412 15.991,-21.261C16.387,-21.485 16.857,-21.313 17.053,-20.918C17.222,-20.574 17.015,-20.181 16.658,-20.033C16.181,-19.834 15.642,-19.667 15.168,-20.01C14.84,-20.25 14.503,-20.244 14.154,-20.199C10.767,-19.76 7.505,-18.851 4.346,-17.574C3.435,-17.21 2.54,-16.78 1.714,-16.235C1.236,-15.92 1.274,-15.464 1.473,-15.074C1.674,-14.675 2.048,-14.918 2.332,-15.055C4.391,-16.064 6.616,-16.502 8.828,-17.031C10.616,-17.457 12.47,-17.671 14.191,-18.382C14.443,-18.486 14.787,-18.651 14.987,-18.261C15.18,-17.879 14.926,-17.641 14.669,-17.421C14.298,-17.099 13.819,-16.877 13.381,-17.077C12.51,-17.474 11.687,-17.35 10.822,-17.114C10.006,-16.89 9.177,-16.688 8.343,-16.549C6.139,-16.178 4.073,-15.372 2.019,-14.539C1.367,-14.271 1.554,-13.722 1.666,-13.268C1.796,-12.761 2.228,-13.018 2.49,-13.114C5.169,-14.062 8.02,-14.195 10.757,-14.857C12.66,-15.319 14.686,-15.194 16.495,-16.114C17.005,-16.373 17.58,-16.338 17.991,-15.833C18.19,-15.591 18.161,-15.276 17.956,-15.074C17.516,-14.635 16.898,-14.594 16.427,-14.859C15.519,-15.37 14.618,-15.156 13.717,-15.007C11.265,-14.593 8.819,-14.144 6.373,-13.694C5.028,-13.448 3.702,-13.117 2.398,-12.697C1.57,-12.43 1.858,-11.883 1.942,-11.373C2.051,-10.705 2.552,-10.932 2.911,-11.029C3.701,-11.244 4.468,-11.548 5.256,-11.777C7.074,-12.305 8.989,-12.362 10.813,-12.886C11.774,-13.16 12.784,-13.178 13.719,-13.652C14.499,-14.046 15.072,-13.663 14.959,-12.994C14.859,-12.414 14.397,-12.203 13.912,-12.082C13.44,-11.962 12.863,-11.748 12.556,-12.264C12.249,-12.785 11.863,-12.707 11.44,-12.632C10.662,-12.492 9.884,-12.321 9.072,-12.158C6.851,-11.956 4.73,-11.2 2.578,-10.556C1.862,-10.343 1.823,-9.791 1.896,-9.257C1.979,-8.636 2.512,-8.955 2.824,-8.999C6.673,-9.528 10.523,-10.08 14.37,-10.65C14.886,-10.725 15.393,-10.795 15.755,-11.355C16.019,-11.766 16.618,-11.873 17.075,-11.519C17.458,-11.227 17.468,-10.747 17.167,-10.423C16.807,-10.03 16.233,-9.737 15.757,-10.033C15.004,-10.499 14.27,-10.343 13.532,-10.21C9.837,-9.557 6.131,-8.972 2.394,-8.613C1.493,-8.524 1.758,-7.857 1.706,-7.387C1.638,-6.817 2.127,-6.943 2.459,-6.944C6.135,-6.951 9.781,-7.388 13.436,-7.674C13.934,-7.715 14.387,-7.744 14.662,-8.3C14.867,-8.706 15.329,-8.709 15.76,-8.669C16.047,-8.644 16.311,-8.611 16.416,-8.29C16.529,-7.952 16.376,-7.687 16.117,-7.504C15.63,-7.155 15.096,-6.966 14.495,-7.173C14.041,-7.324 13.586,-7.337 13.116,-7.296C10.661,-7.081 8.212,-6.858 5.756,-6.68C4.608,-6.599 3.458,-6.619 2.31,-6.57C1.542,-6.538 1.219,-6.178 1.214,-5.345C1.205,-4.631 1.845,-4.828 2.191,-4.803C3.093,-4.74 3.987,-4.615 4.873,-4.447C5.711,-4.296 6.556,-4.122 7.402,-4.272C9.129,-4.586 10.874,-4.756 12.623,-4.903C13.239,-4.957 13.851,-5.038 14.306,-5.59C14.61,-5.956 15.096,-5.893 15.537,-5.85C15.819,-5.82 16.002,-5.687 16.084,-5.427C16.181,-5.132 16.083,-4.895 15.845,-4.705C15.367,-4.325 14.817,-4.323 14.279,-4.457C13.952,-4.536 13.625,-4.586 13.307,-4.546C11.788,-4.352 10.233,-4.448 8.736,-4.086C7.282,-3.74 5.866,-3.894 4.425,-4.147C3.437,-4.317 2.419,-4.348 1.413,-4.451C0.835,-4.509 0.727,-4.076 0.63,-3.686C0.515,-3.211 0.958,-3.335 1.171,-3.299C2.76,-3.018 4.347,-2.715 5.944,-2.524C7.381,-2.354 8.827,-2.19 10.278,-2.406C10.567,-2.451 10.878,-2.379 11.05,-2.734C11.413,-3.494 12.106,-3.527 12.809,-3.465C13.616,-3.392 14.157,-2.944 14.081,-2.456C14.007,-1.977 13.209,-1.548 12.543,-1.639C12.358,-1.666 12.141,-1.692 12.004,-1.805C11.74,-2.014 11.466,-2.017 11.158,-2.006C9.518,-1.937 7.879,-1.858 6.24,-2.107C4.914,-2.308 3.599,-2.589 2.254,-2.644C2.104,-2.653 1.88,-2.757 1.828,-2.555C1.775,-2.361 1.997,-2.299 2.138,-2.228C3.098,-1.767 4.062,-1.302 5.026,-0.845C5.859,-0.452 6.624,0.183 7.676,-0.402C8.075,-0.626 8.579,-0.334 8.898,0.056C9.109,0.314 9.148,0.618 8.969,0.9C8.674,1.353 8.2,1.395 7.728,1.334C7.312,1.278 6.906,1.133 6.729,0.708C6.596,0.391 6.332,0.27 6.062,0.136C5.4,-0.191 4.735,-0.513 4.066,-0.835C3.202,-1.242 2.334,-1.648 1.467,-2.054C1.348,-2.105 1.233,-2.221 1.101,-2.113C1.064,-2.084 1.065,-1.932 1.103,-1.896C1.811,-1.294 2.057,-0.157 3.184,-0.05C3.766,0.003 3.947,0.307 3.853,0.831C3.74,1.445 3.126,1.929 2.544,1.843C1.935,1.762 1.878,1.276 2.015,0.853C2.214,0.225 1.966,-0.208 1.591,-0.631C1.018,-1.277 0.581,-2.277 -0.157,-2.741C-0.705,-3.081 -1.374,-3.134 -2,-3.111C-5.301,-2.987 -7.944,-4.43 -10.196,-6.656C-11.654,-8.095 -12.986,-9.673 -14.793,-10.706C-15.42,-11.059 -16.112,-11.321 -16.785,-11.585C-17.134,-11.722 -18.105,-11.975 -18.156,-12.422C-18.171,-12.558 -18.11,-12.69 -18.045,-12.81C-17.824,-13.217 -17.395,-13.513 -17.078,-13.855C-16.722,-14.237 -16.377,-14.628 -16.051,-15.036C-15.413,-15.833 -14.848,-16.694 -14.44,-17.633C-13.521,-19.75 -12.3,-21.6 -10.725,-23.279C-8.983,-25.131 -7.31,-27.047 -5.367,-28.704C-5.109,-28.924 -4.657,-28.99 -4.622,-29.416C-4.451,-31.654 -2.632,-33.009 -1.705,-34.841C-1.479,-35.293 -0.961,-35.47 -0.417,-35.333C-0.081,-35.251 -0.016,-34.988 0,-34.704" style="fill:rgb(38,62,84);fill-rule:nonzero;"/>
            </g>
            <g transform="matrix(5.98321,0,0,5.98321,-3388.29,415.593)">
                <path d="M0,10.197C0.169,10.26 0.24,10.073 0.314,9.965C0.733,9.371 1.14,8.77 1.557,8.173C2.264,7.165 2.95,6.15 3.464,5.018C3.91,4.031 4.219,2.991 4.828,2.06C5.802,0.572 6.913,-0.789 8.158,-2.051C8.839,-2.742 9.411,-3.526 9.944,-4.322C10.833,-5.647 11.44,-7.106 11.485,-8.742C11.488,-8.802 11.503,-8.916 11.522,-8.916C11.633,-8.929 11.62,-8.821 11.638,-8.758C11.931,-7.721 12.126,-6.671 12.187,-5.589C12.266,-4.161 11.849,-2.913 10.97,-1.821C10.316,-1.008 9.641,-0.209 8.913,0.538C7.533,1.952 6.485,3.511 6.01,5.487C5.372,8.16 5.076,10.83 5.364,13.569C5.567,15.519 5.717,17.474 5.501,19.437C5.446,19.938 5.446,20.447 5.43,20.951C5.425,21.117 5.467,21.281 5.649,21.334C5.807,21.379 5.913,21.27 6.01,21.16C6.377,20.737 6.651,20.257 6.834,19.73C7.285,18.429 7.839,17.173 8.393,15.914C8.918,14.722 9.343,13.495 9.556,12.213C9.878,10.295 9.86,8.34 10.037,6.403C10.166,4.991 10.472,3.617 11.036,2.321C11.569,1.108 12.221,-0.056 12.496,-1.37C12.511,-1.441 12.554,-1.51 12.583,-1.578C12.593,-1.502 12.614,-1.428 12.614,-1.351C12.614,-0.479 12.653,0.392 12.647,1.265C12.643,1.807 12.603,2.367 12.586,2.917C12.557,3.821 12.55,4.731 12.69,5.627C12.822,6.477 13.042,7.292 12.977,8.162C12.965,8.331 13.229,8.331 13.241,8.162C13.289,7.521 13.264,6.947 13.11,6.324C12.713,4.725 12.839,2.904 12.861,1.267C12.862,1.171 12.857,-0.191 12.952,-0.188C13.05,-0.185 13.047,-0.082 13.071,-0.016C13.435,1.063 13.873,2.086 14.577,3.018C15.445,4.158 16.171,5.408 16.933,6.627C18.079,8.456 18.867,10.424 19.105,12.587C19.192,13.371 19.189,14.163 19.245,14.949C19.321,16.075 19.268,17.191 19.229,18.313C19.224,18.463 19.118,18.682 19.311,18.73C19.524,18.78 19.498,18.526 19.553,18.395C20.126,17.038 20.469,15.603 20.894,14.199C21.239,13.049 21.501,11.867 21.363,10.648C21.234,9.5 21.028,8.369 20.698,7.258C20.121,5.313 19.197,3.588 17.772,2.118C17.092,1.414 16.416,0.704 15.738,-0.003C14.667,-1.117 13.947,-2.486 13.021,-3.708C12.794,-4.008 12.691,-4.354 12.633,-4.713C12.49,-5.599 12.361,-6.489 12.224,-7.378C12.2,-7.539 12.055,-7.779 12.219,-7.837C12.356,-7.887 12.456,-7.61 12.509,-7.46C12.96,-6.204 13.873,-5.312 14.839,-4.46C15.538,-3.845 16.295,-3.288 16.944,-2.623C18.028,-1.52 19.092,-0.396 19.92,0.931C20.836,2.395 22.005,3.712 22.559,5.39C22.593,5.49 22.64,5.625 22.785,5.572C22.894,5.535 22.888,5.408 22.862,5.324C22.698,4.767 22.775,4.192 22.743,3.625C22.654,2.034 22.25,0.503 21.854,-1.024C21.456,-2.557 20.72,-3.89 19.485,-4.932C19.023,-5.322 18.522,-5.649 18.042,-6.006C16.759,-6.958 15.469,-7.897 14.155,-8.8C13.261,-9.415 12.242,-9.86 11.736,-10.921C11.654,-11.093 11.398,-11.182 11.205,-11.164C11.039,-11.148 11.108,-10.924 11.073,-10.797C10.812,-9.805 10.263,-8.984 9.58,-8.243C8.593,-7.172 7.522,-6.188 6.374,-5.296C4.863,-4.119 3.438,-2.845 2.103,-1.473C1.686,-1.043 1.401,-0.544 1.219,0.023C0.781,1.39 0.62,2.817 0.609,4.229C0.594,6.126 0.28,7.97 -0.053,9.82C-0.077,9.946 -0.185,10.126 0,10.197" style="fill:rgb(6,103,56);fill-rule:nonzero;"/>
            </g>
            <g transform="matrix(5.98321,0,0,5.98321,-3349.88,528.99)">
                <path d="M0,8.033C-1.699,9.414 -2.704,11.378 -4.153,12.971C-4.341,13.179 -4.309,13.467 -4.188,13.723C-4.106,13.891 -3.956,13.932 -3.786,13.888C-3.489,13.808 -3.365,13.591 -3.342,13.3C-3.336,13.197 -3.321,13.088 -3.336,12.985C-3.371,12.724 -3.271,12.497 -3.157,12.28C-2.348,10.746 -1.12,9.552 0.059,8.318C0.129,8.245 0.229,8.195 0.323,8.145C0.444,8.08 0.585,7.968 0.708,8.083C0.858,8.215 0.702,8.336 0.632,8.447C-0.006,9.467 -0.359,10.622 -0.896,11.689C-1.096,12.08 -1.205,12.486 -1.675,12.691C-2.001,12.833 -2.043,13.194 -1.931,13.523C-1.875,13.694 -1.722,13.835 -1.525,13.788C-1.199,13.711 -1.008,13.494 -1.02,13.141C-1.032,12.78 -0.923,12.445 -0.776,12.121C-0.359,11.21 0.059,10.299 0.497,9.397C0.658,9.065 0.87,8.756 1.067,8.444C1.184,8.259 1.349,8.168 1.561,8.297C1.822,8.459 1.59,8.609 1.516,8.732C0.65,10.14 0.279,11.698 0.041,13.314C-0.065,14.017 -0.076,14.781 -0.685,15.337C-0.888,15.525 -0.908,15.848 -0.891,16.136C-0.882,16.265 -0.847,16.392 -0.72,16.445C-0.57,16.506 -0.514,16.365 -0.423,16.286C-0.088,15.986 -0.029,15.619 0.012,15.172C0.156,13.614 0.494,12.083 0.932,10.581C1.14,9.852 1.555,9.209 2.01,8.6C2.131,8.439 2.281,8.424 2.428,8.509C2.589,8.603 2.454,8.721 2.41,8.824C1.464,10.969 0.817,13.182 0.802,15.554C0.799,16.23 0.694,16.897 0.076,17.338C-0.068,17.441 -0.094,17.605 -0.138,17.752C-0.229,18.055 -0.25,18.414 0.106,18.514C0.511,18.628 0.62,18.24 0.644,17.955C0.72,17.012 1.043,16.118 1.07,15.151C1.123,13.109 1.722,11.169 2.489,9.282C2.628,8.944 2.804,8.641 3.239,8.662C3.506,8.674 3.621,8.753 3.5,9.059C2.886,10.608 2.745,12.268 2.425,13.885C2.278,14.622 2.372,15.445 1.713,16.027C1.602,16.124 1.59,16.353 1.566,16.524C1.54,16.689 1.599,16.847 1.766,16.921C1.946,17 2.098,16.938 2.239,16.797C2.498,16.533 2.53,16.207 2.507,15.869C2.486,15.572 2.448,15.278 2.504,14.975C2.78,13.488 3.042,11.995 3.321,10.505C3.418,9.985 3.612,9.491 3.871,9.026C4.047,8.709 4.326,8.794 4.57,8.862C4.876,8.947 4.702,9.176 4.647,9.338C4.25,10.546 3.95,11.777 3.8,13.038C3.677,14.07 3.444,15.087 3.427,16.13C3.418,16.803 3.65,17.491 3.201,18.129C3.068,18.314 3.186,18.578 3.35,18.758C3.459,18.875 3.606,18.869 3.738,18.787C3.944,18.664 4.006,18.47 3.976,18.24C3.956,18.085 3.935,17.929 3.894,17.776C3.68,17.003 3.624,16.221 3.738,15.428C3.835,14.749 3.962,14.073 4.05,13.391C4.238,11.957 4.47,10.537 5.049,9.197C5.134,8.997 5.217,8.841 5.464,8.912C5.684,8.971 5.631,9.135 5.602,9.297C5.267,11.098 4.996,12.906 4.841,14.734C4.767,15.592 4.602,16.453 4.849,17.306C4.938,17.617 4.987,17.882 4.817,18.205C4.676,18.47 4.611,18.828 4.911,19.081C5.04,19.193 5.223,19.184 5.349,19.063C5.631,18.79 5.593,18.464 5.467,18.132C5.455,18.099 5.431,18.073 5.414,18.04C5.117,17.564 4.987,17.035 5.008,16.48C5.085,14.19 5.358,11.918 5.816,9.676C5.872,9.388 5.793,8.865 6.26,8.909C6.721,8.953 6.63,9.455 6.619,9.776C6.569,11.251 6.557,12.735 6.263,14.184C6.14,14.787 6.14,15.457 5.608,15.93C5.449,16.068 5.449,16.309 5.628,16.503C5.834,16.724 6.072,16.691 6.31,16.592C6.563,16.483 6.572,16.236 6.475,16.051C6.184,15.495 6.378,14.952 6.466,14.402C6.504,14.161 6.536,13.914 6.575,13.673C6.816,12.174 6.895,10.669 6.848,9.153C6.836,8.788 7.127,8.856 7.342,8.856C7.553,8.853 7.821,8.853 7.733,9.182C7.365,10.54 7.474,11.948 7.301,13.32C7.059,15.225 7.356,17.159 6.939,19.049C6.895,19.251 6.965,19.448 7.221,19.469C7.468,19.489 7.7,19.419 7.756,19.148C7.789,18.981 7.8,18.769 7.724,18.631C7.245,17.782 7.345,16.862 7.389,15.957C7.456,14.499 7.624,13.047 7.642,11.586C7.653,10.734 7.9,9.917 8.021,9.082C8.035,8.976 8.068,8.859 8.191,8.844C8.323,8.827 8.362,8.947 8.403,9.041C8.567,9.42 8.594,9.826 8.644,10.228C8.858,11.91 8.726,13.605 8.882,15.29C8.92,15.701 8.888,16.057 8.547,16.392C8.273,16.659 8.291,17.071 8.514,17.42C8.617,17.585 8.788,17.6 8.935,17.529C9.317,17.347 9.364,17 9.32,16.63C9.305,16.506 9.276,16.386 9.231,16.271C9.158,16.086 9.137,15.898 9.14,15.701C9.149,14.519 8.999,13.347 9.029,12.162C9.052,11.157 8.958,10.161 8.726,9.176C8.682,8.988 8.641,8.771 8.902,8.697C9.173,8.618 9.22,8.838 9.29,9.018C9.308,9.068 9.332,9.118 9.34,9.167C9.52,10.102 9.849,10.998 9.937,11.954C10.007,12.759 10.104,13.561 10.204,14.364C10.337,15.448 10.863,16.503 10.522,17.638C10.492,17.732 10.51,17.852 10.542,17.949C10.61,18.158 10.722,18.358 10.969,18.361C11.186,18.364 11.315,18.205 11.377,18.008C11.509,17.585 11.594,17.168 11.095,16.912C11.007,16.868 10.945,16.812 10.93,16.721C10.725,15.58 10.366,14.461 10.295,13.3C10.225,12.154 10.131,11.022 9.787,9.92C9.684,9.582 9.62,9.235 9.537,8.891C9.473,8.624 9.634,8.544 9.852,8.518C10.101,8.486 10.148,8.624 10.134,8.838C10.119,9.065 10.131,9.294 10.131,9.523C10.069,10.24 10.248,10.919 10.401,11.61C10.657,12.777 11.265,13.838 11.4,15.046C11.433,15.334 11.691,15.531 12.012,15.536C12.241,15.539 12.418,15.416 12.479,15.181C12.559,14.884 12.215,14.234 11.912,14.217C11.547,14.193 11.433,13.961 11.324,13.702C10.93,12.774 10.725,11.789 10.498,10.813C10.337,10.114 10.378,9.414 10.472,8.712C10.486,8.591 10.498,8.436 10.645,8.415C10.845,8.392 10.839,8.574 10.866,8.706C11.074,9.829 11.739,10.737 12.329,11.666C12.917,12.591 13.499,13.505 13.731,14.596C13.811,14.975 13.846,15.313 13.505,15.604C13.311,15.772 13.243,16.036 13.284,16.286C13.337,16.6 13.349,17.047 13.802,17C14.201,16.959 14.325,16.574 14.328,16.198C14.328,16.06 14.263,15.924 14.228,15.789C14.187,15.636 14.125,15.486 14.104,15.334C13.899,13.867 13.27,12.591 12.435,11.381C11.88,10.572 11.374,9.714 11.157,8.732C11.11,8.515 11.013,8.28 11.333,8.159C11.647,8.042 11.768,8.224 11.909,8.456C12.456,9.376 13.008,10.296 13.584,11.201C13.922,11.733 14.34,12.204 14.237,12.924C14.184,13.317 14.636,13.406 14.901,13.582C15.036,13.67 15.171,13.626 15.28,13.508C15.571,13.194 15.351,12.156 14.942,12.142C14.419,12.121 14.26,11.769 14.055,11.448C13.449,10.496 12.861,9.538 12.282,8.571C12.174,8.392 11.965,8.168 12.194,7.957C12.42,7.754 12.711,7.719 12.982,7.892C13.79,8.418 14.642,8.885 15.371,9.529C15.709,9.826 16.088,10.07 15.944,10.649C15.886,10.884 16.029,11.172 16.332,11.269C16.517,11.331 16.679,11.284 16.808,11.137C17.005,10.916 16.926,10.69 16.858,10.443C16.732,9.967 16.256,9.946 15.959,9.696C15.201,9.068 14.448,8.439 13.581,7.957C13.408,7.86 13.061,7.733 13.164,7.504C13.273,7.254 13.578,7.451 13.781,7.51C14.431,7.701 15.13,7.766 15.642,8.306C15.765,8.439 15.994,8.483 16.174,8.324C16.271,8.239 16.326,8.115 16.262,7.992C16.121,7.719 15.939,7.439 15.595,7.48C14.924,7.56 14.31,7.36 13.678,7.201C13.27,7.101 13.129,6.916 13.117,6.478C13.067,4.3 12.532,2.293 10.877,0.738C9.202,-0.834 8.708,-2.865 8.611,-5.052C8.55,-6.512 8.485,-7.976 8.265,-9.419C8.194,-9.88 8.093,-10.365 7.815,-10.751C7.497,-11.191 6.954,-11.456 6.42,-11.389C5.94,-11.328 5.606,-10.84 5.387,-10.435C5.139,-9.975 5.011,-9.462 4.902,-8.955C4.529,-7.218 4.55,-5.463 4.658,-3.7C4.729,-2.551 4.638,-1.413 4.059,-0.37C3.721,0.242 3.177,0.677 2.739,1.203C1.352,2.878 0.738,4.891 0.338,6.981C0.294,7.219 0.256,7.366 -0.003,7.422C-0.823,7.598 -1.555,7.989 -2.257,8.433C-2.375,8.509 -2.525,8.638 -2.628,8.612C-3.13,8.486 -3.207,8.894 -3.383,9.176C-3.509,9.382 -3.536,9.617 -3.409,9.829C-3.324,9.976 -3.154,10.008 -2.986,9.964C-2.719,9.89 -2.575,9.696 -2.531,9.435C-2.498,9.244 -2.492,9.059 -2.337,8.906C-1.731,8.303 -0.961,8.001 -0.182,7.713C-0.076,7.674 0.079,7.636 0.144,7.777C0.197,7.892 0.076,7.968 0,8.033" style="fill:rgb(38,62,84);fill-rule:nonzero;"/>
            </g>
            <g transform="matrix(5.98321,0,0,5.98321,-4289.36,448.179)">
                <path d="M0,17.438C1.2,15.529 2.401,13.62 3.601,11.711C3.991,11.089 4.394,10.455 4.972,10.003C5.967,9.224 6.198,8.03 6.383,7.784C7.877,5.8 9.504,3.916 11.25,2.148C13.145,0.23 15.241,-1.494 17.257,-3.281C17.64,-3.62 18.024,-3.955 18.41,-4.289C18.596,-4.451 18.344,-4.74 18.158,-4.578C17.722,-4.2 17.295,-3.811 16.856,-3.437C16.137,-2.824 15.411,-2.218 14.7,-1.596C14.178,-1.136 13.662,-0.668 13.154,-0.192C12.136,0.759 11.147,1.739 10.188,2.749C9.229,3.758 8.299,4.795 7.401,5.859C7.132,6.178 6.865,6.5 6.601,6.824C6.469,6.986 6.338,7.148 6.208,7.311C6.143,7.393 6.078,7.475 6.013,7.557C5.968,7.612 5.829,7.734 5.819,7.803C6.424,3.807 8.399,0.031 8.378,-4.009C8.376,-4.484 8.178,-5.22 7.615,-4.952C7.05,-4.683 6.519,-4.034 6.133,-3.556C5.287,-2.508 4.709,-1.253 4.384,0.051C3.88,2.07 3.951,4.192 4.234,6.254C4.391,7.393 4.608,8.569 4.298,9.676C4.095,10.4 3.679,11.042 3.268,11.672C1.752,13.999 0.236,16.326 -1.28,18.653C-0.492,13.809 -0.376,8.857 -0.937,3.982C-1.059,2.921 -1.225,1.83 -1.783,0.92C-1.915,0.705 -2.11,0.48 -2.363,0.491C-2.53,0.498 -2.673,0.608 -2.796,0.721C-3.876,1.714 -4.32,3.208 -4.647,4.639C-5.617,8.887 -5.869,13.659 -3.468,17.296C-2.874,18.197 -2.09,19.203 -2.414,20.232C-2.547,20.655 -2.854,20.998 -3.152,21.326C-4.28,22.57 -3.831,22.658 -2.912,21.579C-2.558,21.165 -0.316,17.941 0,17.438" style="fill:rgb(6,103,56);fill-rule:nonzero;"/>
            </g>
            <g transform="matrix(5.98321,0,0,5.98321,-4146.39,350.23)">
                <path d="M0,1.684C-1.097,0.633 -2.235,-0.375 -3.367,-1.389C-3.987,-1.943 -4.758,-2.568 -4.004,-3.641C-3.322,-4.617 -5.569,-5.189 -6.006,-4.482C-6.148,-4.256 -6.095,-3.964 -6.011,-3.706C-5.957,-3.536 -5.886,-3.362 -5.765,-3.231C-5.59,-3.039 -5.401,-3.102 -5.206,-3.002C-5.003,-2.902 -4.88,-2.685 -4.781,-2.494C-4.482,-1.936 -4.105,-1.366 -3.614,-0.983C-2.382,-0.023 -1.327,1.112 -0.203,2.18C0.014,2.389 0.319,2.644 0.099,2.958C-0.176,3.348 -0.421,3.786 -0.858,4.046C-0.903,4.072 -1.022,4.021 -1.08,3.97C-2.567,2.82 -4.043,1.661 -5.526,0.515C-6.082,0.081 -6.688,-0.263 -6.316,-1.184C-6.148,-1.595 -6.527,-1.913 -6.972,-2.011C-7.421,-2.106 -7.868,-2.053 -8.076,-1.601C-8.262,-1.194 -8.065,-0.838 -7.684,-0.589C-7.408,-0.404 -7.112,-0.23 -6.875,-0.004C-5.35,1.444 -3.424,2.399 -2.053,4.042C-1.782,4.367 -1.13,4.454 -1.577,5.042C-1.965,5.55 -2.345,6.208 -3.195,5.7C-4.89,4.684 -6.572,3.645 -8.095,2.384C-8.389,2.141 -8.738,1.897 -8.788,1.454C-8.889,0.533 -9.46,0.214 -10.319,0.586C-10.661,0.737 -10.858,0.984 -10.844,1.364C-10.829,1.791 -10.524,1.937 -10.16,1.951C-9.757,1.963 -9.421,2.069 -9.069,2.309C-7.406,3.427 -5.912,4.793 -4.098,5.69C-3.881,5.799 -3.673,5.935 -3.481,6.085C-3.22,6.29 -2.924,6.498 -3.131,6.91C-3.306,7.252 -3.564,7.329 -3.951,7.336C-5.36,7.35 -6.548,6.657 -7.771,6.143C-8.891,5.675 -10.061,5.182 -10.706,3.973C-10.961,3.504 -11.591,3.542 -12.038,3.743C-12.392,3.904 -12.482,4.335 -12.355,4.712C-12.191,5.177 -11.886,5.526 -11.323,5.365C-10.749,5.201 -10.217,5.305 -9.754,5.617C-8.321,6.59 -6.69,7.107 -5.081,7.669C-4.721,7.794 -4.318,7.875 -4.251,8.269C-4.188,8.62 -4.562,8.826 -4.781,9.079C-5.047,9.379 -5.388,9.298 -5.72,9.291C-6.99,9.271 -8.169,8.814 -9.39,8.555C-9.903,8.449 -10.307,8.343 -10.648,7.815C-11.017,7.238 -11.974,7.019 -12.313,7.722C-12.38,7.855 -12.426,8.003 -12.432,8.151C-12.445,8.453 -12.277,8.753 -12.016,8.897C-11.706,9.073 -11.356,8.956 -11.025,8.923C-10.574,8.881 -10.131,8.893 -9.689,8.98C-8.556,9.207 -7.449,9.551 -6.295,9.693C-5.644,9.772 -5.608,10.1 -5.886,10.594C-6.378,11.468 -7.244,13.016 -5.477,12.793C-5.459,12.79 -5.444,12.795 -5.427,12.796C-4.845,12.667 -4.236,12.652 -3.651,12.544C-3.106,12.447 -2.978,12.315 -3.017,12.951C-3.051,13.462 -3.013,13.977 -3.043,14.484C-3.072,14.977 -2.964,15.41 -2.909,15.89C-2.828,16.578 -3.856,17.315 -2.858,17.782C-2.367,18.01 -1.764,18.003 -1.463,17.488C-1.181,17.005 -1.256,16.448 -1.89,16.211C-2.338,16.04 -2.471,15.717 -2.523,15.295C-2.613,14.596 -2.595,13.889 -2.52,13.194C-2.436,12.361 -2.153,11.687 -1.227,11.391C-0.788,11.251 -0.587,11.102 -0.525,11.691C-0.371,13.181 0.288,14.507 1.013,15.775C1.223,16.147 1.407,16.575 1.231,16.992C1.06,17.393 0.873,17.611 1.347,17.968C1.584,18.146 1.894,18.214 2.188,18.186C2.512,18.154 2.832,18.009 3.009,17.739C3.193,17.47 3.194,17.076 2.967,16.848C2.805,16.685 2.563,16.626 2.369,16.498C1.882,16.173 1.634,15.34 1.279,14.872C0.604,13.986 0.207,12.96 -0.017,11.869C-0.219,10.895 0.057,10.375 0.935,9.939C1.222,9.803 1.42,9.812 1.489,10.138C1.691,11.058 2.078,11.925 2.495,12.765C2.698,13.183 2.883,13.611 3.116,14.016C3.335,14.406 3.713,14.746 3.866,15.167C3.924,15.326 3.931,15.497 3.974,15.662C4.031,15.89 4.168,16.101 4.353,16.25C4.525,16.392 4.75,16.479 4.96,16.417C5.067,16.384 5.158,16.318 5.246,16.248C5.414,16.108 5.569,15.945 5.64,15.74C5.725,15.504 5.679,15.219 5.522,15.025C5.306,14.747 5.114,14.813 4.83,14.791C4.453,14.755 4.309,14.583 4.057,14.295C2.993,13.094 2.514,11.611 2.031,10.131C1.734,9.212 1.987,8.727 3.073,8.251C3.474,8.075 3.519,8.219 3.662,8.514C4.596,10.424 6.473,11.802 7.071,13.885C7.182,14.276 7.586,14.389 7.992,14.257C8.572,14.068 8.652,13.565 8.66,13.07C8.67,12.641 8.346,12.472 7.976,12.552C7.404,12.673 7.137,12.345 6.856,11.961C6.422,11.373 5.931,10.82 5.521,10.211C5.015,9.456 4.343,8.804 4.135,7.862C3.985,7.181 4.485,6.94 4.888,6.642C5.386,6.267 5.497,6.812 5.709,7.046C6.369,7.769 7.006,8.512 7.658,9.241C8.407,10.082 9.502,10.613 9.866,11.818C9.979,12.18 10.42,12.281 10.814,12.105C11.127,11.967 11.429,11.771 11.415,11.376C11.401,10.942 11.127,10.714 10.693,10.729C10.36,10.735 10.104,10.574 9.867,10.381C8.51,9.287 7.192,8.152 6.153,6.733C5.944,6.456 5.613,6.163 5.939,5.762C6.281,5.348 6.643,5.552 7.005,5.75C8.392,6.514 9.781,7.288 11.175,8.045C11.669,8.317 12.138,8.55 12.035,9.276C11.976,9.68 12.327,9.888 12.702,9.844C13.233,9.778 13.565,9.399 13.741,8.92C13.878,8.557 13.632,8.339 13.302,8.248C11.279,7.677 9.572,6.469 7.748,5.499C7.461,5.351 6.878,5.279 7.159,4.68C7.446,4.057 8.279,3.639 8.752,3.862C10.023,4.456 11.327,4.994 12.557,5.664C13.31,6.075 14.333,6.223 14.547,7.349C14.6,7.627 14.998,7.726 15.328,7.545C15.677,7.348 16.073,7.19 16.077,6.707C16.078,6.306 15.811,6.086 15.438,6.054C14.436,5.977 13.561,5.557 12.696,5.095C11.999,4.724 11.317,4.271 10.579,4.023C8.259,3.244 8.825,3.094 10.239,1.639C10.549,1.328 10.788,1.322 11.188,1.554C13.026,2.633 14.825,3.807 16.846,4.537C17.272,4.692 17.395,5.18 17.798,5.37C17.969,5.45 18.178,5.463 18.365,5.422C18.64,5.357 18.887,5.175 19.029,4.928C19.496,4.107 18.788,3.183 17.919,3.706C17.479,3.969 17.059,3.93 16.604,3.774C14.88,3.197 13.397,2.16 11.814,1.31C11.559,1.174 11.218,0.986 11.38,0.606C11.517,0.291 11.795,0.067 12.161,0.052C12.404,0.043 12.646,0.088 12.889,0.133C14.924,0.532 16.975,0.856 19.041,1.058C19.285,1.082 19.659,1.052 19.833,1.266C20.03,1.499 19.926,1.767 20.229,1.982C20.457,2.142 20.739,2.24 21.018,2.226C21.301,2.209 21.58,2.079 21.744,1.848C21.843,1.714 21.9,1.555 21.926,1.391C22.067,0.57 21.438,0.477 20.81,0.519C18.158,0.714 15.591,0.11 13.01,-0.332C12.789,-0.369 12.527,-0.458 12.683,-0.737C12.929,-1.175 13.173,-1.755 13.826,-1.527C14.451,-1.316 15.034,-1.454 15.631,-1.523C17.45,-1.727 19.268,-1.924 21.082,-2.157C21.894,-2.258 21.909,-1.513 22.593,-1.251C22.677,-1.217 22.766,-1.193 22.852,-1.194C22.972,-1.197 23.083,-1.248 23.185,-1.302C23.47,-1.464 23.717,-1.715 23.821,-2.022C23.928,-2.332 23.874,-2.704 23.643,-2.936C23.359,-3.222 22.869,-3.233 22.533,-3.014C21.869,-2.581 20.887,-2.798 20.094,-2.605C18.336,-2.184 16.505,-2.335 14.749,-1.888C14.485,-1.826 14.166,-1.859 14.011,-2.136C13.833,-2.448 14.137,-2.626 14.289,-2.84C14.46,-3.078 14.695,-3.195 14.974,-3.256C17.445,-3.829 19.91,-4.409 22.378,-4.97C22.598,-5.02 22.787,-5.16 23.065,-4.99C23.648,-4.633 24.596,-4.942 24.896,-5.536C25.104,-5.948 24.969,-6.249 24.526,-6.384C24.123,-6.504 23.717,-6.434 23.406,-6.148C22.744,-5.535 21.899,-5.371 21.076,-5.158C19.508,-4.767 17.934,-4.392 16.361,-4.024C15.994,-3.94 15.474,-3.606 15.27,-3.97C15.08,-4.318 15.562,-4.719 15.794,-5.065C15.902,-5.22 16.14,-5.32 16.338,-5.372C19.281,-6.126 21.827,-7.935 24.823,-8.559C25.1,-8.613 25.504,-8.709 25.669,-8.962C25.765,-9.107 25.791,-9.286 25.774,-9.46C25.745,-9.78 25.548,-10.082 25.267,-10.241C24.877,-10.462 24.37,-9.904 24.131,-9.667C22.056,-7.628 19.307,-7.009 16.706,-6.073C16.536,-6.012 16.294,-5.956 16.205,-6.143C16.072,-6.411 16.359,-6.493 16.521,-6.602C17.551,-7.321 18.57,-8.044 19.62,-8.725C21.046,-9.648 22.147,-11.106 24.062,-11.238C24.686,-11.276 24.958,-12.165 24.627,-12.627C24.201,-13.222 23.724,-12.886 23.267,-12.642C22.683,-12.334 22.588,-11.614 22.123,-11.241C20.364,-9.823 18.549,-8.478 16.641,-7.262C16.441,-7.134 16.189,-6.927 15.988,-7.157C15.735,-7.438 16.025,-7.664 16.2,-7.858C17.268,-9.029 18.261,-10.292 19.447,-11.336C20.555,-12.306 21.377,-13.703 23.069,-13.951C23.627,-14.04 24.023,-14.516 23.825,-15.06C23.745,-15.275 23.606,-15.464 23.452,-15.641C23.011,-16.129 22.487,-15.405 22.269,-15.005C21.936,-14.395 21.472,-13.935 20.972,-13.484C19.751,-12.381 18.583,-11.224 17.476,-9.997C16.822,-9.275 16.147,-8.569 15.481,-7.852C15.31,-7.668 15.106,-7.469 14.859,-7.666C14.65,-7.835 14.835,-8.064 14.919,-8.247C15.412,-9.362 15.847,-10.521 16.653,-11.457C17.725,-12.707 18.511,-14.269 20.243,-14.843C20.668,-14.985 20.808,-15.405 20.645,-15.838C20.458,-16.338 20.02,-16.53 19.537,-16.446C19.033,-16.357 18.523,-16.019 18.638,-15.47C18.811,-14.653 18.353,-14.218 17.902,-13.735C16.902,-12.657 15.961,-11.543 15.327,-10.194C14.936,-9.365 14.496,-8.56 14.063,-7.755C13.968,-7.57 13.834,-7.351 13.585,-7.404C13.289,-7.463 13.256,-7.718 13.248,-7.982C13.235,-8.655 13.247,-9.322 13.395,-9.987C13.811,-11.834 14.671,-13.473 15.789,-14.98C16.178,-15.503 16.17,-16.302 15.365,-16.363C14.779,-16.405 13.82,-15.552 14.267,-14.941C14.79,-14.227 14.412,-13.761 14.12,-13.221C13.258,-11.614 12.652,-9.939 12.673,-8.082C12.681,-7.717 12.664,-7.349 12.608,-6.988C12.54,-6.509 12.111,-6.364 11.745,-6.28C11.308,-6.183 11.298,-6.628 11.24,-6.895C10.695,-9.282 10.085,-11.673 11.613,-13.966C11.974,-14.505 11.562,-15.099 10.903,-15.071C10.559,-15.061 10.227,-14.953 10.084,-14.591C9.915,-14.165 9.655,-13.688 10.086,-13.32C10.383,-13.065 10.374,-12.82 10.314,-12.517C10.043,-11.149 10.126,-9.746 10.364,-8.383C10.475,-7.762 10.621,-7.146 10.772,-6.533C10.9,-6.008 10.925,-5.576 10.327,-5.378C9.389,-5.065 9.263,-6.532 9.056,-7.123C8.72,-8.088 8.365,-9.051 8.043,-10.022C7.829,-10.661 7.367,-11.482 7.786,-12.133C8.019,-12.486 8.477,-12.751 8.44,-13.227C8.402,-13.735 7.85,-14.125 7.366,-14.067C6.901,-14.019 6.511,-13.583 6.501,-13.114C6.501,-12.897 6.57,-12.687 6.64,-12.484C7.432,-10.124 8.158,-7.678 9.131,-5.36C9.215,-5.109 9.433,-4.852 9.153,-4.615C8.637,-4.183 8.129,-3.657 7.482,-3.538C7.054,-3.454 6.798,-4.064 6.46,-4.357C5.013,-5.616 4.218,-7.228 4.008,-9.124C3.982,-9.324 3.922,-9.563 4.021,-9.751C4.149,-9.999 4.389,-9.972 4.594,-10.117C5.14,-10.507 4.49,-11.327 4.074,-11.477C3.594,-11.646 2.89,-11.531 2.641,-11.042C2.247,-10.277 3.052,-10.108 3.341,-9.576C3.509,-9.276 3.499,-8.916 3.575,-8.589C3.753,-7.844 3.991,-7.124 4.342,-6.437C4.915,-5.326 5.561,-4.464 6.473,-3.616C6.578,-3.519 6.69,-3.414 6.746,-3.28C7.065,-2.537 5.444,-1.836 5.017,-1.488C4.739,-1.272 1.806,-5.497 1.61,-5.806C1.12,-6.582 0.366,-7.398 1.111,-8.504C1.375,-8.898 1.011,-9.399 0.578,-9.5C-0.045,-9.639 -0.548,-9.239 -0.873,-8.751C-1.118,-8.381 -1.005,-7.966 -0.537,-7.78C-0.125,-7.618 0.211,-7.405 0.395,-6.977C1.189,-5.126 2.71,-3.776 3.648,-2.24C3.852,-1.999 4.427,-1.575 4.516,-1.28C4.607,-0.967 3.957,-0.595 3.682,-0.368C2.337,0.742 2.365,0.711 1.203,-0.601C-0.259,-2.247 -1.49,-3.979 -1.707,-6.261C-1.755,-6.788 -2.206,-7.009 -2.731,-6.936C-3.31,-6.855 -3.718,-6.532 -3.743,-5.935C-3.772,-5.341 -3.269,-5.253 -2.845,-5.264C-2.321,-5.277 -2.116,-5.05 -1.923,-4.589C-1.357,-3.27 -0.811,-1.927 0.24,-1.106C0.694,-0.509 1.032,-0.038 1.399,0.412C1.89,1.012 1.757,1.541 1.231,2.008C0.683,2.495 0.336,2.006 0,1.684" style="fill:rgb(40,82,100);fill-rule:nonzero;"/>
            </g>
            <g transform="matrix(5.98321,0,0,5.98321,-3536,-287.686)">
                <path d="M0,1.584C-0.129,0.376 -0.051,-0.846 -0.334,-2.037C-0.379,-2.219 -0.245,-2.506 -0.531,-2.554C-0.757,-2.595 -0.887,-2.355 -1,-2.196C-1.935,-0.918 -3.123,0.127 -4.197,1.273C-5.585,2.764 -7.265,3.874 -8.92,5.016C-10.588,6.16 -12.435,6.959 -14.346,7.605C-14.639,7.705 -14.943,7.781 -15.243,7.852C-15.484,7.908 -15.757,8.067 -15.945,7.77C-16.121,7.494 -16.001,7.239 -15.852,6.976C-14.56,4.703 -13.106,2.568 -11.137,0.794C-9.694,-0.508 -8.03,-1.279 -6.19,-1.782C-4.725,-2.181 -3.24,-2.478 -1.767,-2.842C-0.855,-3.065 -0.435,-3.686 -0.505,-4.623C-0.617,-6.167 -0.82,-7.705 -0.993,-9.246C-1.047,-9.713 -1.252,-9.73 -1.594,-9.442C-2.963,-8.3 -4.282,-7.098 -5.727,-6.06C-8.264,-4.243 -10.823,-2.446 -13.799,-1.379C-14.354,-1.177 -14.937,-1.037 -15.519,-0.932C-16.106,-0.826 -16.272,-1.081 -16.066,-1.632C-15.914,-2.03 -15.625,-2.329 -15.378,-2.658C-12.897,-5.925 -9.913,-8.548 -6.009,-10.012C-4.676,-10.514 -3.299,-10.847 -1.916,-11.163C-1.362,-11.291 -1.198,-11.504 -1.224,-12.112C-1.294,-13.66 -1.444,-15.199 -1.6,-16.742C-1.621,-16.94 -1.55,-17.211 -1.76,-17.306C-2.014,-17.418 -2.164,-17.159 -2.34,-17.015C-4.944,-14.9 -7.639,-12.906 -10.456,-11.081C-11.607,-10.335 -12.808,-9.691 -14.067,-9.146C-14.805,-8.829 -15.568,-8.596 -16.347,-8.422C-16.601,-8.36 -16.875,-8.292 -17.066,-8.54C-17.238,-8.773 -17.163,-9.041 -17.063,-9.282C-16.571,-10.443 -15.761,-11.379 -14.904,-12.284C-12.236,-15.103 -8.876,-16.635 -5.173,-17.536C-4.223,-17.772 -3.296,-18.104 -2.349,-18.366C-1.899,-18.491 -1.715,-18.762 -1.724,-19.208C-1.767,-21.244 -1.807,-23.285 -1.855,-25.32C-1.863,-25.519 -1.831,-25.787 -2.032,-25.886C-2.255,-25.988 -2.39,-25.744 -2.536,-25.616C-5.373,-23.078 -8.593,-21.137 -12.051,-19.59C-13.841,-18.784 -15.74,-18.261 -17.657,-17.836C-18.05,-17.747 -18.471,-17.663 -18.697,-18.085C-18.908,-18.474 -18.695,-18.835 -18.447,-19.147C-17.39,-20.499 -16.135,-21.647 -14.742,-22.644C-11.113,-25.232 -7.018,-26.608 -2.671,-27.335C-2.186,-27.413 -1.915,-27.554 -1.933,-28.089C-1.971,-29.225 -1.592,-30.34 -1.509,-31.471C-1.439,-32.362 -1.326,-33.254 -1.261,-34.149C-1.216,-34.786 -1.358,-35.794 -0.782,-36.241C-0.713,-36.291 -0.607,-36.307 -0.544,-36.249C-0.344,-36.075 -0.627,-35.438 -0.674,-35.234C-1.051,-33.647 -0.956,-32.015 -1.179,-30.405C-1.281,-29.662 -1.576,-28.847 -1.496,-28.093C-1.544,-27.615 -1.365,-27.556 -0.945,-27.519C1.572,-27.28 4.099,-27.475 6.62,-27.237C8.839,-27.031 10.819,-26.297 12.742,-25.241C14.427,-24.315 15.985,-23.229 17.398,-21.928C17.605,-21.733 17.883,-21.564 17.809,-21.235C17.734,-20.885 17.387,-20.883 17.116,-20.867C14.307,-20.715 11.502,-20.616 8.79,-21.623C7.775,-22.004 6.659,-21.989 5.617,-22.333C3.322,-23.09 1.262,-24.335 -0.863,-25.448C-1.322,-25.685 -1.434,-25.681 -1.422,-25.159C-1.386,-23.403 -1.351,-21.648 -1.333,-19.895C-1.329,-19.202 -1.026,-19.087 -0.364,-19.131C2.858,-19.349 6.086,-19.558 9.246,-18.643C11.746,-17.916 13.889,-16.546 15.837,-14.851C16.267,-14.481 16.688,-14.101 17.083,-13.692C17.282,-13.488 17.661,-13.312 17.467,-12.936C17.283,-12.587 16.939,-12.438 16.547,-12.496C15.066,-12.698 13.569,-12.712 12.098,-13.062C9.907,-13.578 7.799,-14.372 5.61,-14.867C3.91,-15.249 2.45,-16.099 0.978,-16.948C0.484,-17.233 -0.035,-17.468 -0.517,-17.763C-1.128,-18.132 -1.225,-17.814 -1.195,-17.293C-1.105,-15.595 -0.796,-13.908 -0.839,-12.2C-0.851,-11.779 -0.623,-11.673 -0.199,-11.64C2.151,-11.466 4.493,-11.763 6.843,-11.749C8.864,-11.734 10.656,-11.184 12.229,-9.922C13.698,-8.739 15.163,-7.552 16.628,-6.369C16.728,-6.284 16.831,-6.205 16.907,-6.104C17.063,-5.904 17.291,-5.712 17.183,-5.423C17.067,-5.094 16.759,-5.096 16.469,-5.087C15.403,-5.047 14.353,-5.23 13.321,-5.441C9.166,-6.29 5.073,-7.34 1.272,-9.297C0.837,-9.524 0.397,-9.75 -0.009,-10.018C-0.484,-10.327 -0.634,-10.073 -0.613,-9.668C-0.564,-8.798 -0.463,-7.929 -0.375,-7.063C-0.287,-6.241 -0.144,-5.424 -0.095,-4.602C-0.06,-3.982 0.235,-3.818 0.797,-3.835C2.011,-3.868 3.201,-4.16 4.424,-4.112C6.752,-4.018 9.002,-3.599 11.075,-2.52C12.31,-1.876 13.436,-1.025 14.432,-0.048C15.241,0.754 16.099,1.49 16.985,2.198C17.501,2.611 17.892,3.111 18.189,3.694C18.408,4.126 18.25,4.351 17.845,4.537C17.407,4.74 16.991,4.611 16.558,4.535C14.898,4.244 13.328,3.666 11.751,3.097C9.052,2.124 6.362,1.149 3.884,-0.311C2.978,-0.847 2.129,-1.494 1.255,-2.09C1.194,-2.135 1.147,-2.212 1.075,-2.235C0.774,-2.337 0.411,-2.576 0.173,-2.486C-0.076,-2.386 0.137,-1.97 0.153,-1.699C0.221,-0.489 0.324,0.722 0.388,1.933C0.41,2.299 0.534,2.446 0.902,2.567C2.02,2.933 3.192,2.917 4.334,3.098C8.447,3.765 11.372,6.132 13.701,9.406C14.491,10.518 15.358,11.583 15.893,12.86C15.981,13.072 16.057,13.298 16.107,13.522C16.217,14.03 15.94,14.116 15.534,14.008C15.146,13.902 14.822,13.663 14.558,13.388C13.422,12.196 11.899,11.73 10.433,11.184C7.907,10.248 5.449,9.18 3.161,7.751C2.339,7.236 1.658,6.581 1.047,5.84C0.938,5.713 0.846,5.458 0.647,5.54C0.476,5.61 0.534,5.864 0.526,6.038C0.496,6.527 0.496,7.017 0.457,7.506C0.39,8.258 0.551,8.796 1.362,9.13C2.527,9.608 3.681,10.157 4.744,10.823C7.209,12.363 9.222,14.337 10.663,16.922C11.7,18.775 12.736,20.605 13.373,22.643C13.401,22.74 13.45,22.835 13.49,22.925C13.642,23.299 13.767,23.741 13.463,24.016C13.118,24.317 12.8,23.892 12.502,23.737C11.951,23.445 11.495,23.034 11.108,22.533C10.019,21.137 8.622,20.06 7.296,18.918C4.757,16.723 2.601,14.215 0.789,11.396C0.69,11.238 0.636,10.94 0.412,10.99C0.221,11.028 0.303,11.305 0.282,11.476C0.17,12.424 0.072,13.37 -0.035,14.322C-0.081,14.738 0.095,14.975 0.43,15.273C2.438,17.04 4.625,18.657 5.63,21.301C6.445,23.455 6.842,25.639 6.773,27.96C6.711,29.947 6.749,31.932 6.553,33.911C6.52,34.218 6.594,34.669 6.141,34.722C5.743,34.773 5.534,34.401 5.425,34.105C4.402,31.293 3.062,28.594 2.436,25.645C2.224,24.632 1.983,23.626 1.699,22.634C1.311,21.267 1.246,19.844 0.904,18.464C0.734,17.758 0.468,17.093 0.253,16.41C0.194,16.226 0.11,15.97 -0.139,15.988C-0.44,16.007 -0.327,16.298 -0.386,16.478C-0.945,18.188 -0.615,19.899 -0.386,21.608C-0.013,24.372 -0.404,27.052 -1.165,29.715C-1.672,31.502 -2.188,33.286 -2.834,35.032C-3.163,35.929 -3.691,36.674 -4.3,37.38C-4.744,37.891 -5.09,37.82 -5.259,37.166C-5.534,36.13 -5.483,35.062 -5.387,34.012C-4.941,29.16 -3.977,24.421 -2.33,19.831C-2.049,19.047 -1.883,18.206 -1.181,17.598C-0.931,17.381 -0.806,16.765 -1.017,16.536C-1.184,16.351 -1.524,16.816 -1.743,17.038C-2.698,18.041 -3.27,19.298 -3.937,20.483C-5.6,23.42 -7.06,26.469 -9.28,29.067C-10.231,30.187 -10.987,31.467 -12.315,32.224C-12.682,32.432 -13.091,32.744 -13.453,32.523C-13.837,32.286 -13.511,31.814 -13.48,31.447C-13.471,31.294 -13.423,31.133 -13.341,31.007C-12.137,29.046 -11.415,26.833 -10.189,24.883C-9.574,23.903 -8.851,22.999 -8.114,22.11C-7.442,21.302 -6.75,20.509 -6.088,19.693C-5.533,19.006 -4.995,18.32 -4.326,17.764C-3.319,16.929 -2.394,15.968 -1.149,15.454C-0.722,15.275 -0.503,14.931 -0.456,14.432C-0.349,13.328 -0.183,12.236 -0.053,11.135C-0.034,10.994 -0.061,10.741 -0.128,10.718C-0.281,10.665 -0.378,10.853 -0.478,10.968C-1.266,11.832 -1.778,12.883 -2.425,13.844C-3.948,16.103 -5.763,18.103 -7.803,19.898C-9.674,21.535 -11.789,22.831 -13.843,24.219C-14.122,24.405 -14.477,24.607 -14.743,24.267C-15.04,23.883 -14.753,23.484 -14.522,23.213C-13.487,21.985 -12.658,20.614 -11.82,19.251C-10.512,17.127 -8.838,15.311 -6.976,13.674C-5.518,12.392 -3.913,11.312 -2.15,10.487C-1.589,10.224 -1.039,9.94 -0.482,9.673C0.215,9.343 -0.014,8.613 0.058,8.116C0.223,7.054 0.115,5.957 0.133,4.871C0.141,4.576 0.124,4.218 -0.105,4.1C-0.361,3.971 -0.518,4.334 -0.672,4.515C-2.896,7.1 -5.281,9.525 -7.879,11.743C-9.551,13.173 -11.315,14.466 -13.175,15.634C-13.541,15.864 -13.977,15.997 -14.4,16.098C-14.737,16.182 -15.159,16.292 -15.394,15.918C-15.602,15.593 -15.385,15.263 -15.207,14.984C-14.629,14.064 -14.053,13.128 -13.28,12.374C-11.639,10.774 -10.224,8.959 -8.397,7.53C-6.141,5.765 -3.721,4.32 -1.086,3.225C-0.257,2.876 0.092,2.449 0,1.584" style="fill:rgb(39,102,116);fill-rule:nonzero;"/>
            </g>
            <g transform="matrix(5.98321,0,0,5.98321,-3516.71,562.828)">
                <path d="M0,2.497C-0.204,2.418 -0.076,2.239 -0.053,2.097C0.214,0.601 0.74,-0.821 1.173,-2.27C2.094,-5.342 2.678,-8.457 2.125,-11.68C2.057,-12.081 1.894,-12.418 1.71,-12.77C1.325,-13.513 0.815,-13.757 0.038,-12.802C-0.522,-12.112 -0.758,-11.235 -1.032,-10.407C-1.921,-7.74 -2.029,-4.979 -1.922,-2.201C-1.864,-0.733 -1.92,0.74 -1.807,2.208C-1.778,2.58 -1.809,2.96 -1.638,3.301C-1.419,3.736 -1.621,3.933 -2.002,4.101C-2.704,4.415 -3.461,4.42 -4.198,4.471C-6.103,4.594 -8.01,4.67 -9.92,4.749C-10.464,4.771 -11.021,4.807 -11.529,4.53C-11.853,4.357 -11.967,4.184 -11.552,3.945C-9.35,2.676 -7.886,0.742 -6.621,-1.406C-5.255,-3.728 -4.678,-6.277 -4.249,-8.884C-4.144,-9.516 -4.472,-9.804 -5.09,-9.595C-5.911,-9.314 -6.591,-8.765 -6.994,-8.047C-8.162,-5.967 -9.422,-3.951 -10.276,-1.682C-10.932,0.062 -11.588,1.858 -12.685,3.425C-12.902,3.739 -13.101,3.818 -13.438,3.739C-14.252,3.551 -15.014,3.207 -15.801,2.936C-16.114,2.825 -16.674,2.567 -16.749,2.823C-16.878,3.263 -16.274,3.164 -15.999,3.302C-15.276,3.668 -14.524,3.982 -13.772,4.292C-13.5,4.404 -13.351,4.549 -13.326,4.858C-13.297,5.231 -13.187,5.594 -13.15,5.963C-12.965,7.938 -12.275,9.761 -11.469,11.542C-10.627,13.403 -9.123,14.625 -7.395,15.625C-6.413,16.195 -5.418,16.677 -4.266,16.747C-3.509,16.793 -3.403,16.56 -3.709,15.852C-4.153,14.826 -5.016,14.168 -5.724,13.369C-7.429,11.445 -8.894,9.337 -10.421,7.274C-10.489,7.185 -10.652,7.083 -10.512,6.949C-10.488,6.925 -10.321,7.019 -10.237,7.083C-8.294,8.522 -6.093,9.39 -3.718,9.706C-2.032,9.925 -0.314,9.934 1.399,9.777C2.886,9.639 4.372,9.531 5.818,9.116C6.121,9.031 6.548,9.064 6.585,8.637C6.625,8.225 6.423,7.864 6.046,7.65C5.663,7.429 5.255,7.257 4.814,7.205C2.091,6.886 -0.633,6.581 -3.359,6.324C-5.235,6.145 -7.098,5.797 -8.961,5.523C-9.132,5.498 -9.413,5.477 -9.412,5.33C-9.408,5.147 -9.134,5.226 -8.986,5.209C-7.451,5.03 -5.92,5.024 -4.388,5.187C-1.616,5.479 1.154,5.878 3.947,5.643C7.994,5.305 12.048,4.985 15.976,3.831C17.292,3.445 18.689,3.232 19.791,2.304C20.027,2.105 20.438,1.987 20.292,1.556C20.165,1.17 19.846,0.978 19.455,0.888C18.759,0.736 18.052,0.77 17.357,0.798C14.983,0.893 12.637,1.202 10.367,1.946C8.888,2.429 7.442,3.028 5.92,3.377C3.355,3.967 0.761,4.426 -1.841,4.834C-1.997,4.858 -2.25,4.916 -2.297,4.718C-2.338,4.554 -2.077,4.552 -1.956,4.486C-0.496,3.719 0.95,2.933 2.429,2.211C4.06,1.417 5.848,1.104 7.58,0.628C10.38,-0.142 13.232,-0.916 15.878,-2.125C16.894,-2.589 17.87,-3.125 18.862,-3.623C20.701,-4.543 22.206,-5.869 23.533,-7.411C23.722,-7.631 24.089,-7.807 23.942,-8.161C23.798,-8.511 23.409,-8.516 23.083,-8.532C22.194,-8.575 21.336,-8.352 20.486,-8.142C15.944,-7.037 11.641,-5.392 7.938,-2.437C6.773,-1.509 5.711,-0.45 4.484,0.408C3.618,1.016 2.693,1.548 1.8,2.118C1.777,2.131 1.754,2.148 1.728,2.143C1.685,2.136 1.666,2.077 1.687,2.037C1.708,1.998 1.75,1.975 1.788,1.952C2.198,1.723 2.585,1.453 2.945,1.152C3.865,0.385 4.621,-0.586 5.255,-1.59C6.777,-3.987 8.912,-5.91 10.406,-8.33C11.228,-9.661 11.811,-11.109 12.533,-12.486C12.794,-12.98 12.798,-13.589 12.354,-13.947C11.92,-14.296 11.341,-14.14 10.856,-13.891C8.209,-12.553 6.097,-10.713 5.009,-7.846C4.284,-5.933 3.173,-4.201 2.323,-2.344C1.705,-0.986 1.305,0.465 0.551,1.763C0.461,1.915 0.414,2.089 0.324,2.238C0.251,2.362 0.19,2.567 0,2.497" style="fill:rgb(6,103,56);fill-rule:nonzero;"/>
            </g>
            <g transform="matrix(5.98321,0,0,5.98321,-4170.49,467.066)">
                <path d="M0,15.003C-2.254,15.606 -4.489,16.302 -6.863,16.219C-8.356,16.165 -9.83,16.067 -11.321,15.992C-11.967,15.959 -12.613,15.917 -13.258,15.887C-14.552,15.824 -15.849,15.798 -17.139,15.924C-19.364,16.144 -21.278,16.939 -22.806,18.599C-22.949,18.757 -23.105,18.902 -23.267,19.034C-23.388,19.136 -23.528,19.308 -23.704,19.127C-23.837,18.989 -23.812,18.81 -23.729,18.652C-23.545,18.284 -23.255,18.004 -22.955,17.732C-20.864,15.836 -19.69,15.1 -19.635,15.059C-18.791,14.388 -17.767,13.95 -17.044,13.123C-16.446,12.443 -14.743,11.389 -14.617,11.495C-14.443,11.638 -14.266,11.418 -14.133,11.299C-12.766,10.082 -11.308,9.023 -10.326,7.35C-8.753,4.673 -6.789,2.258 -4.096,0.556C-3.085,-0.082 -2.003,-0.566 -0.9,-1.009C0.597,-1.614 1.983,-2.466 3.521,-2.981C4.488,-3.304 5.43,-3.708 6.39,-4.047C7.122,-4.305 7.261,-4.162 7.129,-3.381C6.956,-2.364 6.346,-1.631 5.52,-1.108C3.293,0.3 1.022,1.636 -1.323,2.845C-2.061,3.227 -2.73,3.717 -3.414,4.184C-3.497,4.241 -3.693,4.256 -3.609,4.432C-3.594,4.464 -3.414,4.441 -3.319,4.409C-1.115,3.646 1.057,2.804 3.227,1.947C5.26,1.148 7.352,0.463 9.491,0.037C11.13,-0.291 12.786,-0.622 14.48,-0.589C14.712,-0.585 15.062,-0.671 15.163,-0.381C15.273,-0.061 15.023,0.204 14.763,0.342C13.66,0.924 12.598,1.621 11.416,2.021C9.182,2.779 7.005,3.678 4.798,4.505C3.716,4.911 2.612,5.214 1.495,5.448C-0.831,5.936 -3.122,6.567 -5.435,7.1C-6.205,7.274 -6.95,7.511 -7.694,7.76C-8.196,7.925 -8.625,8.206 -9.13,8.372C-9.628,8.536 -10.293,8.616 -10.733,8.898C-11.123,9.145 -11.366,9.606 -11.718,9.902C-11.748,9.923 -11.718,10.015 -11.718,10.074C-11.638,10.053 -11.551,10.048 -11.476,10.015C-11.068,9.833 -10.663,9.645 -10.256,9.46C-8.359,8.525 -6.323,8.181 -4.235,7.968C-2.482,7.788 -0.726,7.641 1.022,7.408C2.58,7.203 4.16,7.26 5.73,7.373C6.499,7.428 7.262,7.452 8.011,7.24C8.266,7.167 8.531,7.168 8.762,7.265C9.104,7.41 9.616,7.473 9.657,7.88C9.69,8.246 9.191,8.313 8.902,8.456C6.22,9.798 3.354,10.305 0.384,10.299C-1.808,10.293 -3.985,10.542 -6.172,10.64C-8.515,10.746 -10.778,11.38 -13.094,11.692C-14.082,11.825 -14.861,12.494 -15.721,12.939C-16.298,13.24 -16.785,13.711 -17.401,13.959C-17.476,13.989 -17.596,14.087 -17.587,14.106C-17.535,14.238 -17.402,14.17 -17.328,14.144C-16.544,13.874 -15.755,13.629 -14.961,13.388C-13.148,12.842 -11.299,12.73 -9.419,12.769C-6.98,12.814 -4.545,12.989 -2.106,12.637C-0.538,12.412 1.033,12.621 2.586,12.91C2.731,12.937 2.894,12.972 2.913,13.158C2.933,13.348 2.794,13.462 2.662,13.576C1.889,14.266 1.008,14.736 0,15.003" style="fill:rgb(6,103,56);fill-rule:nonzero;"/>
            </g>
            <g transform="matrix(5.98321,0,0,5.98321,-3695.54,234.032)">
                <path d="M0,10.181C-1.534,10.639 -3.072,11.09 -4.62,11.497C-5.622,11.759 -6.67,11.738 -7.695,11.846C-9.109,11.994 -10.516,11.945 -11.928,11.837C-12.562,11.792 -13.204,11.792 -13.838,11.828C-14.876,11.889 -15.51,12.638 -16.142,13.325C-16.615,13.84 -16.971,14.465 -17.458,14.982C-17.591,15.121 -17.7,15.253 -17.874,15.086C-18.036,14.932 -17.885,14.782 -17.786,14.684C-16.486,13.338 -15.132,11.824 -14.005,10.328C-13.648,9.854 -13.472,9.377 -13.483,8.761C-13.516,6.083 -13.087,3.461 -11.718,1.143C-10.449,-1.005 -8.882,-2.969 -7.143,-4.778C-7.012,-4.916 -6.857,-5.072 -6.655,-4.984C-6.47,-4.905 -6.499,-4.688 -6.496,-4.524C-6.476,-3.575 -6.817,-2.74 -7.295,-1.941C-8.349,-0.183 -9.394,1.578 -10.382,3.377C-11.237,4.932 -11.746,6.612 -12.438,8.222C-12.556,8.498 -12.567,8.819 -12.628,9.117C-12.327,9.012 -12.166,8.724 -11.917,8.557C-10.7,7.739 -10.215,6.436 -9.653,5.18C-8.591,2.804 -7.169,0.666 -5.125,-0.966C-3.376,-2.365 -1.545,-3.673 0.655,-4.312C0.846,-4.365 1.069,-4.519 1.241,-4.338C1.425,-4.144 1.282,-3.91 1.191,-3.712C0.866,-2.994 0.379,-2.373 -0.183,-1.847C-1.343,-0.76 -2.355,0.466 -3.513,1.551C-4.757,2.72 -6.111,3.761 -7.448,4.818C-7.926,5.194 -8.354,5.614 -8.778,6.04C-9.36,6.626 -9.902,7.251 -10.458,7.864C-10.546,7.962 -10.7,8.101 -10.617,8.209C-10.515,8.342 -10.376,8.172 -10.27,8.113C-10.04,7.992 -9.826,7.846 -9.605,7.71C-8.065,6.9 -6.587,5.979 -4.957,5.336C-3.252,4.664 -1.514,4.12 0.274,3.729C0.928,3.582 1.6,3.51 2.268,3.413C2.653,3.358 2.934,3.54 3.127,3.864C3.31,4.177 3.063,4.374 2.919,4.601C2.674,4.989 2.295,5.175 1.887,5.342C0.771,5.796 -0.34,6.265 -1.448,6.745C-2.632,7.261 -3.909,7.406 -5.142,7.709C-7.037,8.174 -8.917,8.69 -10.746,9.36C-11.731,9.721 -12.674,10.204 -13.512,10.859C-13.576,10.909 -13.681,11.017 -13.671,11.035C-13.593,11.149 -13.492,11.05 -13.402,11.031C-11.061,10.539 -8.783,9.801 -6.45,9.263C-4.715,8.863 -2.969,8.602 -1.199,8.455C-0.354,8.383 0.483,8.463 1.313,8.651C1.762,8.754 1.838,8.977 1.521,9.335C1.116,9.791 0.56,10.015 0,10.181" style="fill:rgb(6,103,56);fill-rule:nonzero;"/>
            </g>
            <g transform="matrix(5.98321,0,0,5.98321,-3404.55,-165.575)">
                <path d="M0,-7.305C0.291,-7.545 0.727,-7.369 1.052,-7.178C6.476,-3.981 10.131,2.031 10.472,8.317C10.854,7.794 10.997,7.138 11.131,6.504C11.637,4.094 12.144,1.683 12.651,-0.727C12.816,-1.511 12.982,-2.314 12.872,-3.108C12.682,-4.475 11.717,-5.586 10.817,-6.632C9.332,-8.356 7.9,-10.15 6.859,-12.173C5.817,-14.196 5.18,-16.477 5.374,-18.744C5.412,-19.184 5.594,-19.733 6.035,-19.756C6.307,-19.771 6.535,-19.564 6.724,-19.368C10.432,-15.52 12.727,-10.339 13.085,-5.008C13.345,-5.221 13.406,-5.588 13.448,-5.921C13.782,-8.613 13.934,-11.328 13.905,-14.04C13.874,-16.985 13.536,-19.93 13.31,-22.863C13.267,-23.42 13.22,-23.975 13.171,-24.53C13.147,-24.799 13.564,-24.834 13.588,-24.565C13.643,-23.938 13.683,-23.308 13.744,-22.682C13.843,-21.654 13.953,-20.628 14.039,-19.599C14.099,-18.841 14.149,-18.083 14.187,-17.323C14.264,-15.805 14.296,-14.284 14.283,-12.763C14.27,-11.243 14.213,-9.723 14.11,-8.205C14.079,-7.75 14.044,-7.295 14.006,-6.841C13.986,-6.614 13.965,-6.386 13.944,-6.159C13.933,-6.046 13.923,-5.932 13.911,-5.819C13.904,-5.741 13.921,-5.54 13.877,-5.478C16.434,-9.075 17.75,-13.539 20.834,-16.695C21.196,-17.066 21.911,-17.494 22.149,-16.856C22.389,-16.215 22.313,-15.303 22.253,-14.635C22.121,-13.169 21.623,-11.745 20.888,-10.475C19.75,-8.508 18.084,-6.895 16.297,-5.492C15.309,-4.716 14.245,-3.958 13.648,-2.853C13.258,-2.131 13.097,-1.31 12.941,-0.504C12.366,2.473 11.79,5.451 11.214,8.429C14.271,4.028 17.939,0.052 22.081,-3.349C22.982,-4.09 23.941,-4.82 25.07,-5.111C25.337,-5.18 25.66,-5.208 25.851,-5.008C25.977,-4.876 26.005,-4.681 26.016,-4.498C26.11,-2.899 25.325,-1.389 24.495,-0.018C22.032,4.055 18.607,7.992 13.961,9.025C12.811,9.281 11.432,9.476 10.905,10.53C10.688,10.963 10.669,11.465 10.653,11.949C10.596,13.782 10.538,15.615 10.48,17.448C10.106,17.529 9.956,16.983 9.98,16.6C10.077,15.055 10.175,13.51 10.273,11.965C10.31,11.372 10.347,10.766 10.198,10.19C9.947,9.217 9.206,8.457 8.498,7.744C6.505,5.734 4.528,3.684 2.93,1.347C1.368,-0.936 0.171,-3.523 -0.174,-6.266C-0.182,-6.329 -0.19,-6.393 -0.197,-6.457C-0.231,-6.759 -0.234,-7.112 0,-7.305" style="fill:rgb(6,103,56);fill-rule:nonzero;"/>
            </g>
            <g transform="matrix(5.98321,0,0,5.98321,-3304.29,-471.385)">
                <path d="M0,16.254C1.659,16.261 3.318,16.335 4.976,16.397C5.884,16.433 6.963,16.528 7.186,15.113C7.392,13.829 9.59,15.086 9.396,15.973C9.336,16.257 9.073,16.447 8.811,16.586C8.64,16.678 8.451,16.761 8.257,16.772C7.974,16.79 7.874,16.597 7.645,16.527C7.409,16.451 7.148,16.529 6.925,16.603C6.267,16.815 5.538,16.976 4.862,16.904C3.166,16.721 1.476,16.812 -0.217,16.797C-0.547,16.797 -0.979,16.766 -1.045,17.179C-1.125,17.694 -1.265,18.225 -1.12,18.76C-1.104,18.814 -0.972,18.865 -0.887,18.869C1.153,19.095 3.192,19.305 5.226,19.531C5.992,19.613 6.728,19.802 7.136,18.797C7.316,18.346 7.855,18.385 8.279,18.646C8.703,18.912 9.014,19.293 8.834,19.806C8.671,20.266 8.247,20.396 7.758,20.303C7.401,20.238 7.037,20.151 6.679,20.147C4.382,20.127 2.145,19.414 -0.179,19.664C-0.638,19.713 -1.215,19.287 -1.311,20.088C-1.392,20.781 -1.593,21.585 -0.54,21.833C1.561,22.322 3.671,22.782 5.824,22.949C6.24,22.981 6.698,23.055 7.074,22.744C7.852,22.099 8.543,22.281 8.935,23.225C9.089,23.603 9.056,23.947 8.756,24.234C8.421,24.558 8.07,24.442 7.775,24.177C7.448,23.88 7.105,23.708 6.646,23.629C4.492,23.244 2.281,23.183 0.176,22.51C-0.077,22.431 -0.343,22.38 -0.608,22.352C-0.968,22.315 -1.359,22.253 -1.509,22.734C-1.631,23.135 -1.487,23.391 -1.189,23.69C-0.094,24.771 1.366,25.13 2.716,25.654C3.951,26.137 5.244,26.638 6.668,26.178C7.223,26.004 7.69,26.512 7.888,27.009C8.044,27.404 7.787,27.81 7.402,28.01C6.919,28.251 6.415,28.293 6.095,27.739C5.769,27.175 5.273,26.853 4.672,26.747C2.808,26.422 1.136,25.59 -0.554,24.81C-0.931,24.635 -1.309,24.393 -1.662,24.651C-1.977,24.878 -1.84,25.325 -1.86,25.689C-1.879,26.126 -1.55,26.322 -1.284,26.568C-0.272,27.517 1.001,28.053 2.156,28.777C2.639,29.083 3.038,29.307 3.706,29.15C4.434,28.978 5.351,29.532 5.084,30.342C5.035,30.497 4.958,30.648 4.851,30.769C4.632,31.016 4.272,31.124 3.958,31.039C3.581,30.942 3.395,30.583 3.16,30.307C2.838,29.932 2.482,29.604 2.068,29.337C1.007,28.655 -0.124,28.085 -1.137,27.321C-1.709,26.888 -1.986,27.118 -2.143,27.717C-2.42,28.778 -2.915,30.65 -4.133,29.133C-4.145,29.117 -4.161,29.11 -4.175,29.098C-4.533,28.555 -5.001,28.08 -5.378,27.552C-5.732,27.062 -5.732,26.861 -6.185,27.39C-6.545,27.817 -6.966,28.192 -7.328,28.613C-7.679,29.022 -8.093,29.28 -8.5,29.616C-9.086,30.094 -8.839,31.453 -9.977,31.062C-10.535,30.869 -11.003,30.405 -10.849,29.772C-10.703,29.18 -10.221,28.799 -9.543,29.094C-9.063,29.3 -8.713,29.148 -8.352,28.855C-7.75,28.375 -7.228,27.806 -6.759,27.203C-6.193,26.486 -5.903,25.742 -6.406,24.807C-6.644,24.363 -6.689,24.093 -7.184,24.509C-8.437,25.562 -9.961,26.103 -11.492,26.549C-11.939,26.681 -12.409,26.876 -12.588,27.338C-12.757,27.782 -12.776,28.096 -13.419,28.016C-13.741,27.976 -14.035,27.794 -14.245,27.549C-14.475,27.277 -14.616,26.921 -14.55,26.575C-14.49,26.223 -14.192,25.914 -13.841,25.907C-13.59,25.903 -13.355,26.04 -13.106,26.086C-12.476,26.201 -11.65,25.735 -11.016,25.638C-9.814,25.454 -8.722,24.949 -7.719,24.263C-6.82,23.652 -6.643,23.034 -7.001,22.025C-7.123,21.7 -7.285,21.558 -7.587,21.761C-8.444,22.33 -9.405,22.717 -10.371,23.06C-10.847,23.234 -11.317,23.429 -11.808,23.571C-12.276,23.71 -12.831,23.69 -13.271,23.905C-13.437,23.986 -13.572,24.114 -13.731,24.211C-13.949,24.347 -14.217,24.408 -14.476,24.385C-14.717,24.366 -14.961,24.264 -15.078,24.056C-15.138,23.949 -15.159,23.828 -15.175,23.706C-15.2,23.468 -15.198,23.223 -15.099,23.008C-14.986,22.758 -14.733,22.57 -14.463,22.536C-14.082,22.482 -13.982,22.68 -13.742,22.878C-13.419,23.136 -13.175,23.11 -12.759,23.075C-11.012,22.94 -9.509,22.14 -8.007,21.344C-7.077,20.848 -6.906,20.275 -7.397,19.077C-7.579,18.634 -7.724,18.713 -8.06,18.836C-10.244,19.627 -12.763,19.284 -14.814,20.466C-15.197,20.688 -15.601,20.47 -15.819,20.058C-16.131,19.47 -15.812,19.013 -15.442,18.62C-15.125,18.275 -14.741,18.388 -14.512,18.732C-14.155,19.261 -13.696,19.206 -13.184,19.118C-12.397,18.985 -11.592,18.924 -10.808,18.758C-9.837,18.549 -8.815,18.547 -7.937,17.966C-7.302,17.544 -7.511,16.976 -7.601,16.436C-7.707,15.763 -8.209,16.107 -8.553,16.13C-9.62,16.197 -10.683,16.296 -11.749,16.374C-12.976,16.465 -14.238,16.051 -15.439,16.721C-15.802,16.919 -16.225,16.664 -16.401,16.226C-16.542,15.881 -16.63,15.497 -16.32,15.198C-15.979,14.868 -15.591,14.897 -15.261,15.238C-15.005,15.496 -14.681,15.563 -14.349,15.592C-12.453,15.763 -10.557,15.873 -8.663,15.547C-8.289,15.488 -7.806,15.509 -7.759,14.947C-7.712,14.362 -8.152,14.248 -8.586,14.128C-10.255,13.675 -11.933,13.229 -13.602,12.765C-14.197,12.603 -14.741,12.43 -15.212,13.078C-15.473,13.441 -15.905,13.337 -16.166,13.018C-16.534,12.563 -16.507,12.014 -16.282,11.504C-16.113,11.115 -15.754,11.13 -15.427,11.309C-13.404,12.397 -11.147,12.745 -8.979,13.368C-8.641,13.468 -8.129,13.856 -7.895,13.172C-7.647,12.464 -7.984,11.504 -8.525,11.32C-9.973,10.821 -11.405,10.254 -12.88,9.846C-13.783,9.598 -14.698,8.937 -15.721,9.659C-15.974,9.836 -16.361,9.612 -16.483,9.22C-16.608,8.8 -16.799,8.375 -16.435,7.993C-16.132,7.677 -15.755,7.707 -15.438,7.966C-14.592,8.666 -13.587,9.001 -12.557,9.294C-11.728,9.532 -10.849,9.694 -10.081,10.06C-7.668,11.209 -7.999,10.662 -8.005,8.446C-8.011,7.966 -8.194,7.78 -8.685,7.659C-10.947,7.111 -13.251,6.667 -15.392,5.706C-15.844,5.504 -16.311,5.794 -16.771,5.637C-16.967,5.569 -17.141,5.422 -17.256,5.247C-17.423,4.988 -17.478,4.657 -17.403,4.355C-17.145,3.356 -15.888,3.168 -15.603,4.238C-15.458,4.779 -15.099,5.067 -14.622,5.29C-12.831,6.146 -10.879,6.458 -8.992,6.992C-8.688,7.079 -8.277,7.19 -8.117,6.769C-7.984,6.417 -8.033,6.03 -8.309,5.741C-8.492,5.549 -8.717,5.401 -8.941,5.252C-10.842,4.02 -12.698,2.717 -14.474,1.308C-14.684,1.141 -14.955,0.834 -15.253,0.87C-15.586,0.904 -15.707,1.193 -16.108,1.131C-16.408,1.084 -16.704,0.947 -16.913,0.724C-17.122,0.496 -17.243,0.182 -17.195,-0.124C-17.172,-0.304 -17.096,-0.472 -16.991,-0.621C-16.479,-1.373 -15.915,-0.967 -15.453,-0.459C-13.52,1.708 -11.046,3.183 -8.684,4.795C-8.482,4.934 -8.209,5.062 -8.12,4.725C-7.98,4.195 -7.732,3.554 -8.417,3.237C-9.068,2.928 -9.421,2.377 -9.837,1.87C-11.111,0.329 -12.389,-1.206 -13.636,-2.766C-14.197,-3.462 -14.774,-2.888 -15.509,-3.201C-15.602,-3.238 -15.689,-3.287 -15.757,-3.354C-15.848,-3.447 -15.897,-3.571 -15.935,-3.691C-16.037,-4.034 -16.041,-4.419 -15.889,-4.739C-15.737,-5.064 -15.412,-5.314 -15.055,-5.322C-14.615,-5.331 -14.221,-4.967 -14.124,-4.54C-13.931,-3.696 -12.995,-3.121 -12.519,-2.367C-11.459,-0.703 -9.907,0.57 -8.868,2.253C-8.707,2.502 -8.432,2.719 -8.1,2.619C-7.724,2.509 -7.827,2.138 -7.784,1.855C-7.738,1.539 -7.833,1.268 -8.006,1.008C-9.511,-1.317 -11.007,-3.644 -12.517,-5.958C-12.652,-6.164 -12.695,-6.418 -13.042,-6.495C-13.771,-6.657 -14.281,-7.62 -14.065,-8.314C-13.915,-8.795 -13.581,-8.929 -13.131,-8.699C-12.723,-8.487 -12.458,-8.124 -12.431,-7.663C-12.376,-6.679 -11.838,-5.909 -11.353,-5.117C-10.418,-3.62 -9.468,-2.131 -8.512,-0.647C-8.288,-0.303 -8.133,0.354 -7.697,0.223C-7.283,0.094 -7.357,-0.587 -7.277,-1.035C-7.244,-1.238 -7.355,-1.497 -7.471,-1.689C-9.209,-4.514 -9.835,-7.868 -11.712,-10.632C-11.89,-10.885 -12.134,-11.266 -12.071,-11.59C-12.037,-11.777 -11.922,-11.937 -11.776,-12.061C-11.51,-12.29 -11.126,-12.378 -10.784,-12.289C-10.31,-12.167 -10.337,-11.344 -10.328,-10.976C-10.248,-7.8 -8.559,-5.227 -7.227,-2.518C-7.14,-2.341 -6.993,-2.114 -6.781,-2.193C-6.472,-2.302 -6.636,-2.585 -6.681,-2.793C-6.944,-4.139 -7.195,-5.481 -7.502,-6.812C-7.921,-8.619 -7.678,-10.599 -9.081,-12.158C-9.542,-12.661 -9.081,-13.565 -8.471,-13.677C-7.685,-13.821 -7.565,-13.194 -7.392,-12.656C-7.167,-11.971 -7.639,-11.334 -7.557,-10.688C-7.252,-8.24 -6.848,-5.805 -6.274,-3.402C-6.214,-3.15 -6.173,-2.796 -5.84,-2.824C-5.429,-2.853 -5.485,-3.25 -5.475,-3.536C-5.424,-5.265 -5.246,-7.011 -5.384,-8.73C-5.517,-10.333 -5.102,-12.054 -6.242,-13.533C-6.613,-14.027 -6.563,-14.702 -5.994,-14.978C-5.769,-15.086 -5.516,-15.13 -5.26,-15.151C-4.544,-15.199 -4.681,-14.233 -4.814,-13.753C-5.016,-13.022 -5.001,-12.308 -4.951,-11.575C-4.829,-9.782 -4.791,-7.987 -4.853,-6.184C-4.887,-5.12 -4.893,-4.053 -4.916,-2.985C-4.921,-2.711 -4.911,-2.399 -4.568,-2.366C-4.276,-2.34 -4.247,-2.661 -4.174,-2.868C-3.715,-4.118 -3.176,-5.358 -3.098,-6.704C-2.991,-8.5 -2.423,-10.323 -3.347,-12.089C-3.573,-12.522 -3.363,-12.958 -2.907,-13.175C-2.38,-13.426 -1.891,-13.243 -1.576,-12.811C-1.247,-12.359 -1.104,-11.706 -1.611,-11.362C-2.367,-10.853 -2.337,-10.163 -2.35,-9.441C-2.383,-7.836 -2.491,-6.247 -3.016,-4.707C-3.339,-3.759 -3.604,-2.793 -3.876,-1.832C-3.941,-1.614 -4.003,-1.341 -3.767,-1.193C-3.49,-1.015 -3.27,-1.19 -3.063,-1.392C-2.542,-1.91 -2.045,-2.443 -1.657,-3.078C-0.581,-4.843 -0.012,-6.783 0.254,-8.815C0.346,-9.521 0.959,-10.142 1.637,-9.578C2.129,-9.167 2.234,-7.769 1.42,-7.628C0.467,-7.465 0.41,-6.813 0.23,-6.167C-0.314,-4.251 -1.11,-2.476 -2.536,-1.034C-2.82,-0.753 -3.085,-0.452 -3.315,-0.126C-3.625,0.302 -3.399,0.741 -3.175,1.086C-2.906,1.493 -2.56,1.152 -2.312,0.986C-0.072,-0.474 2.222,-1.888 2.763,-4.848C2.889,-5.545 3.663,-5.699 4.159,-5.177C4.422,-4.908 4.601,-4.571 4.438,-4.178C4.248,-3.716 4.089,-3.144 3.471,-3.182C3.045,-3.208 2.866,-3.009 2.683,-2.725C1.857,-1.445 0.727,-0.407 -0.495,0.482C-1.053,0.886 -1.636,1.259 -2.22,1.626C-2.718,1.941 -3.066,2.26 -2.747,2.87C-2.248,3.828 -1.035,2.772 -0.424,2.464C0.573,1.962 1.582,1.476 2.571,0.958C3.224,0.619 4.211,0.324 4.376,-0.505C4.461,-0.958 4.303,-1.515 4.693,-1.86C5.109,-2.23 5.838,-2.117 6.174,-1.704C6.503,-1.313 6.478,-0.674 6.129,-0.299C5.965,-0.129 5.751,-0.016 5.542,0.091C3.128,1.342 0.702,2.711 -1.821,3.792C-2.078,3.926 -2.444,3.962 -2.405,4.36C-2.327,5.091 -2.327,5.889 -1.91,6.474C-1.637,6.865 -0.974,6.581 -0.486,6.607C1.606,6.717 3.454,6.055 5.058,4.726C5.231,4.589 5.459,4.447 5.524,4.224C5.611,3.932 5.402,3.771 5.352,3.501C5.219,2.781 6.352,2.631 6.793,2.828C7.297,3.06 7.763,3.685 7.587,4.258C7.316,5.158 6.556,4.679 5.925,4.877C5.565,4.985 5.299,5.276 4.992,5.474C4.287,5.924 3.554,6.309 2.756,6.582C1.463,7.02 0.301,7.206 -1.058,7.18C-1.215,7.176 -1.383,7.173 -1.528,7.235C-2.343,7.577 -1.603,9.358 -1.53,9.955C-1.476,10.336 4.033,9.245 4.422,9.151C5.396,8.914 6.607,8.846 6.862,7.412C6.953,6.902 7.619,6.785 8.037,7.035C8.631,7.399 8.723,8.095 8.607,8.724C8.519,9.201 8.115,9.441 7.606,9.232C7.16,9.046 6.734,8.959 6.265,9.154C4.236,10.004 2.017,9.91 0.115,10.404C-0.228,10.438 -1.002,10.335 -1.295,10.499C-1.604,10.676 -1.377,11.461 -1.333,11.848C-1.12,13.74 -1.118,13.695 0.791,13.547C3.187,13.364 5.469,12.939 7.371,11.312C7.809,10.935 8.331,11.103 8.688,11.559C9.081,12.063 9.156,12.626 8.722,13.114C8.294,13.602 7.832,13.289 7.509,12.959C7.106,12.551 6.773,12.573 6.272,12.788C4.826,13.395 3.377,14.035 1.93,13.882C1.119,14.005 0.497,14.119 -0.133,14.194C-0.973,14.292 -1.271,14.808 -1.212,15.573C-1.151,16.372 -0.508,16.252 0,16.254" style="fill:rgb(40,82,100);fill-rule:nonzero;"/>
            </g>
            <g transform="matrix(5.98321,0,0,5.98321,-3596.51,50.9794)">
                <path d="M0,-13.944C-0.167,-13.92 -0.338,-13.931 -0.508,-13.928C-0.506,-14.215 -0.202,-14.057 -0.094,-14.203C-0.067,-14.239 0.046,-14.226 0.115,-14.212C0.156,-14.203 0.186,-14.146 0.239,-14.094C0.149,-14.035 0.079,-13.956 0,-13.944M2.563,-11.367C2.376,-11.908 2.201,-12.416 2.026,-12.924C2.46,-12.507 2.66,-12.01 2.563,-11.367M8.258,-9.15C7.924,-8.621 7.457,-8.327 6.804,-8.355C7.382,-8.458 7.805,-8.83 8.258,-9.15M8.581,-12.028C8.868,-11.764 9.147,-11.485 9.177,-11.065C9.18,-11.014 9.074,-10.956 9.01,-10.893C8.698,-11.194 8.393,-11.446 8.365,-11.876C8.357,-12 8.5,-12.103 8.581,-12.028M7.247,-3.077C7.281,-3.069 7.319,-3.07 7.348,-3.054C7.442,-3.002 7.532,-2.944 7.624,-2.889C7.594,-2.876 7.558,-2.844 7.535,-2.851C7.427,-2.886 7.323,-2.931 7.218,-2.973L7.247,-3.077ZM8.004,-2.839C8.128,-2.835 8.253,-2.835 8.377,-2.824C8.418,-2.821 8.456,-2.791 8.496,-2.773C8.465,-2.754 8.433,-2.718 8.403,-2.719C8.267,-2.722 8.132,-2.737 7.997,-2.747C7.999,-2.778 8.002,-2.808 8.004,-2.839M10.473,-4.797C10.512,-4.908 10.67,-4.881 10.732,-4.764C10.863,-4.514 10.784,-3.898 10.59,-3.717C10.558,-3.688 10.496,-3.692 10.447,-3.68C10.408,-3.738 10.364,-3.78 10.35,-3.829C10.259,-4.167 10.364,-4.485 10.473,-4.797M2.446,-2.431C3.128,-3.398 4.122,-3.911 5.225,-4.231C5.738,-4.38 5.798,-4.326 5.986,-3.798C6.005,-3.745 6.038,-3.696 6.054,-3.642C6.28,-2.874 7.268,-2.158 8.186,-2.188C8.753,-2.206 9.247,-2.358 9.687,-2.717C9.958,-2.938 10.208,-3.195 10.6,-3.23C10.715,-3.24 10.847,-3.392 10.918,-3.51C11.15,-3.898 11.166,-4.336 11.111,-4.766C11.077,-5.025 10.944,-5.24 10.66,-5.363C10.448,-5.455 10.248,-5.626 10.101,-5.808C9.748,-6.246 9.325,-6.541 8.781,-6.707C7.653,-7.052 6.441,-6.38 6.034,-5.327C5.93,-5.059 5.807,-4.924 5.543,-4.874C4.335,-4.646 3.213,-4.211 2.191,-3.425C2.197,-3.905 2.279,-4.316 2.401,-4.732C2.79,-6.066 3.517,-7.182 4.527,-8.121C4.92,-8.486 4.931,-8.473 5.434,-8.203C5.584,-8.123 5.739,-8.054 5.888,-7.974C6.345,-7.728 6.84,-7.741 7.311,-7.852C8.334,-8.094 9.13,-8.947 9.158,-10.114C9.162,-10.32 9.189,-10.491 9.378,-10.59C9.589,-10.701 9.59,-10.87 9.554,-11.071C9.457,-11.62 9.124,-12.022 8.724,-12.37C8.637,-12.447 8.444,-12.421 8.302,-12.413C8.118,-12.402 7.936,-12.337 7.754,-12.342C7.474,-12.35 7.196,-12.405 6.915,-12.426C5.51,-12.534 4.278,-11.262 4.501,-9.845C4.53,-9.66 4.579,-9.478 4.627,-9.297C4.692,-9.053 4.638,-8.867 4.428,-8.703C4.163,-8.496 3.901,-8.276 3.675,-8.028C3.225,-7.532 2.802,-7.013 2.341,-6.473C2.318,-6.607 2.298,-6.731 2.276,-6.855C2.167,-7.465 2.11,-8.09 1.936,-8.68C1.744,-9.335 1.765,-9.323 2.28,-9.765C2.584,-10.026 2.869,-10.304 2.994,-10.686C3.253,-11.471 3.205,-12.236 2.756,-12.956C2.39,-13.543 1.938,-13.892 1.199,-14.17C1.083,-14.213 0.979,-14.309 0.891,-14.402C0.434,-14.885 -0.177,-14.957 -0.718,-14.575C-0.881,-14.459 -1.021,-14.304 -1.193,-14.206C-1.567,-13.993 -1.559,-13.678 -1.437,-13.347C-1.385,-13.207 -1.364,-13.112 -1.466,-12.991C-1.86,-12.526 -1.885,-12.002 -1.786,-11.415C-1.555,-10.047 -0.731,-9.257 0.657,-9.153C0.695,-9.15 0.732,-9.147 0.77,-9.144C1.212,-9.117 1.206,-9.115 1.342,-8.701C1.719,-7.556 1.761,-6.379 1.646,-5.196C1.574,-4.451 1.446,-3.71 1.315,-2.972C1.273,-2.739 1.208,-0.951 1.07,-0.366C0.933,0.219 1.289,1.013 1.478,-0.285C1.666,-1.583 2.179,-2.052 2.446,-2.431" style="fill:rgb(82,142,128);fill-rule:nonzero;"/>
            </g>
            <g transform="matrix(5.98321,0,0,5.98321,-3602.05,579.893)">
                <path d="M0,10.272C-2.817,9.596 -5.564,8.746 -8.374,8.309C-12.296,7.7 -16.266,7.4 -20.215,6.966C-23.137,6.645 -25.998,6.187 -28.309,4.095C-28.769,3.678 -29.443,3.498 -30.018,3.208C-30.002,3.098 -29.986,2.987 -29.969,2.876C-26.55,3.071 -23.13,3.266 -19.71,3.461C-19.703,3.361 -19.696,3.26 -19.688,3.16C-22.57,2.874 -25.452,2.589 -28.436,2.293C-27.973,1.369 -26.993,1.119 -26.104,0.838C-23.453,0 -20.774,0.32 -18.166,0.984C-11.589,2.66 -5.639,5.645 -0.307,9.85C-0.191,9.942 -0.096,10.062 0.001,10.176C0.018,10.196 0.001,10.247 0,10.272" style="fill:rgb(61,123,81);fill-rule:nonzero;"/>
            </g>
            <g transform="matrix(5.98321,0,0,5.98321,-3243.69,137.342)">
                <path d="M0,-17.256C-2.197,-3.885 -5.781,9.044 -12.102,21.107C-12.166,21.095 -12.23,21.083 -12.295,21.071C-12.251,20.832 -12.267,20.558 -12.153,20.359C-11.32,18.896 -11.171,17.278 -11.123,15.658C-11.105,15.056 -11.352,14.441 -11.51,13.841C-12.065,11.734 -11.994,9.614 -11.686,7.483C-11.111,3.507 -9.766,-0.251 -8.437,-4.012C-7.212,-7.474 -5.876,-10.898 -4.71,-14.38C-3.705,-17.38 -2.794,-20.417 -1.978,-23.474C-0.713,-28.216 0.121,-33.04 0.393,-37.951C0.4,-38.08 0.423,-38.208 0.439,-38.336C0.49,-38.345 0.541,-38.354 0.592,-38.363C0.806,-37.62 1.047,-36.883 1.228,-36.131C2.071,-32.624 2.532,-29.06 2.821,-25.468C3.224,-20.453 3.318,-15.433 2.894,-10.422C2.628,-7.28 2.264,-4.136 1.721,-1.032C0.974,3.239 -0.248,7.382 -2.474,11.161C-3.653,13.163 -5.147,14.88 -7.1,16.155C-7.629,16.501 -8.25,16.708 -8.912,16.934C-3.795,6.08 -1.321,-5.438 0,-17.256" style="fill:rgb(61,123,81);fill-rule:nonzero;"/>
            </g>
            <g transform="matrix(5.98321,0,0,5.98321,-4135.82,572.436)">
                <path d="M0,10.811C-0.022,10.851 -0.136,10.854 -0.205,10.849C-0.247,10.846 -0.285,10.794 -0.345,10.749C-0.264,10.678 -0.206,10.59 -0.129,10.568C0.033,10.521 0.204,10.508 0.372,10.481C0.41,10.766 0.087,10.652 0,10.811M-3.025,8.371C-2.765,8.881 -2.521,9.36 -2.277,9.839C-2.765,9.486 -3.032,9.023 -3.025,8.371M-8.973,6.967C-8.715,6.397 -8.293,6.04 -7.643,5.978C-8.201,6.16 -8.568,6.587 -8.973,6.967M-8.893,9.862C-9.214,9.64 -9.529,9.403 -9.616,8.991C-9.627,8.941 -9.53,8.869 -9.475,8.798C-9.124,9.053 -8.788,9.259 -8.7,9.681C-8.674,9.803 -8.802,9.925 -8.893,9.862M1.19,9.421C1.516,8.905 1.468,8.383 1.289,7.815C0.87,6.493 -0.056,5.825 -1.445,5.914C-1.482,5.917 -1.52,5.919 -1.558,5.922C-1.999,5.956 -1.993,5.954 -2.186,5.562C-2.718,4.481 -2.923,3.321 -2.973,2.133C-3.005,1.385 -2.936,0.519 -2.954,-0.115C-2.972,-0.75 -3.718,-0.46 -3.739,0.16C-3.76,0.779 -3.723,1.349 -3.785,1.778C-3.986,3.154 -4.551,4.36 -5.42,5.43C-5.759,5.846 -5.772,5.835 -6.308,5.637C-6.467,5.579 -6.63,5.532 -6.789,5.473C-7.276,5.294 -7.763,5.375 -8.215,5.551C-9.195,5.932 -9.864,6.887 -9.729,8.047C-9.706,8.252 -9.708,8.424 -9.881,8.549C-10.075,8.688 -10.053,8.855 -9.989,9.05C-9.817,9.58 -9.431,9.932 -8.987,10.221C-8.89,10.284 -8.703,10.232 -8.563,10.204C-8.383,10.168 -8.211,10.078 -8.03,10.058C-7.752,10.027 -7.468,10.043 -7.188,10.025C-5.782,9.936 -4.738,8.506 -5.155,7.134C-5.209,6.955 -5.283,6.781 -5.356,6.608C-5.454,6.375 -5.427,6.184 -5.242,5.993C-5.008,5.751 -4.779,5.497 -4.59,5.219C-4.213,4.666 -3.866,4.093 -3.484,3.494C-3.443,3.624 -3.406,3.744 -3.367,3.864C-3.175,4.452 -3.031,5.063 -2.777,5.624C-2.496,6.246 -2.518,6.237 -2.967,6.746C-3.232,7.047 -3.475,7.362 -3.547,7.757C-3.694,8.571 -3.54,9.322 -2.996,9.972C-2.551,10.503 -2.055,10.785 -1.285,10.958C-1.164,10.985 -1.048,11.065 -0.948,11.145C-0.428,11.561 0.188,11.547 0.67,11.093C0.816,10.956 0.932,10.783 1.089,10.662C1.43,10.399 1.378,10.089 1.211,9.777C1.141,9.645 1.106,9.554 1.19,9.421" style="fill:rgb(82,142,128);fill-rule:nonzero;"/>
            </g>
            <g transform="matrix(5.98321,0,0,5.98321,-3802.42,437.213)">
                <path d="M0,1.131C1.145,1.262 2.29,1.25 3.436,1.134C3.54,1.125 3.694,1.132 3.719,1.007C3.747,0.871 3.59,0.838 3.502,0.782C2.538,0.186 1.61,-0.431 0.977,-1.421C0.227,-2.593 0.472,-3.626 1.588,-4.433C2.676,-5.22 4.116,-4.861 4.881,-3.839C5.872,-2.512 6.23,-1.048 5.713,0.564C5.634,0.81 5.656,0.875 5.913,0.842C6.648,0.739 7.334,0.474 8.016,0.207C8.447,0.04 8.105,-0.141 7.973,-0.274C7.113,-1.128 6.529,-2.14 6.174,-3.298C5.747,-4.701 6.252,-5.957 7.495,-6.52C8.967,-7.191 10.571,-6.056 10.57,-4.319C10.569,-3.542 10.378,-2.79 10.11,-2.062C9.974,-1.692 9.849,-1.316 9.724,-0.942C9.686,-0.819 9.615,-0.673 9.748,-0.579C9.869,-0.495 10.006,-0.568 10.119,-0.634C10.724,-0.98 11.327,-1.331 11.841,-1.806C11.997,-1.948 12.155,-2.126 12.029,-2.347C11.707,-2.922 11.955,-3.468 12.147,-3.981C12.531,-5.016 13.173,-5.878 14.226,-6.31C15.231,-6.725 16.224,-6.46 17.169,-6.048C17.693,-5.823 18.147,-5.514 18.358,-4.919C18.765,-3.757 18.379,-2.65 17.324,-1.991C15.753,-1.008 14.127,-0.885 12.432,-1.614C12.312,-1.666 12.228,-1.665 12.122,-1.597C11.564,-1.247 11.005,-0.903 10.447,-0.55C10.375,-0.503 10.253,-0.447 10.302,-0.349C10.327,-0.3 10.473,-0.3 10.563,-0.303C11.378,-0.328 12.174,-0.248 12.959,-0.003C13.653,0.215 14.289,0.554 14.863,0.97C15.406,1.367 15.8,1.918 15.638,2.669C15.451,3.533 15.005,4.209 14.124,4.479C12.602,4.949 9.766,4.042 9.338,1.921C9.275,1.613 9.112,1.33 9.128,0.996C9.157,0.374 8.952,0.224 8.329,0.415C7.717,0.597 7.111,0.804 6.499,1.002C6.445,1.019 6.386,1.03 6.342,1.06C6.214,1.159 5.941,1.032 5.933,1.251C5.925,1.405 6.169,1.397 6.297,1.459C7.864,2.217 8.888,3.413 9.279,5.132C9.386,5.607 9.303,6.022 9.02,6.411C7.74,8.174 5.338,8.322 4.145,5.974C3.783,5.261 3.617,4.331 3.971,3.452C4.203,2.881 4.206,2.23 4.566,1.695C4.721,1.47 4.568,1.371 4.364,1.399C3.035,1.569 1.696,1.557 0.361,1.55C0.288,1.552 -0.286,1.098 0,1.131" style="fill:rgb(82,142,128);fill-rule:nonzero;"/>
            </g>
            <g transform="matrix(5.98321,0,0,5.98321,-4224.11,376.532)">
                <path d="M0,-8.104C-1.15,-5.905 -2.31,-3.715 -3.362,-1.463C-4.293,0.528 -5.623,2.279 -6.893,4.056C-7.497,4.901 -8.391,5.525 -9.064,6.349C-9.602,7.005 -9.841,7.674 -9.695,8.497C-9.67,8.631 -9.662,8.768 -9.653,8.905C-9.645,9.027 -9.666,9.165 -9.807,9.175C-9.953,9.186 -9.992,9.046 -10.006,8.928C-10.108,8.111 -10.284,7.289 -10.281,6.467C-10.275,5.625 -10.213,3.238 -10.214,3.108C-10.215,1.584 -10.199,0.063 -10.229,-1.461C-10.246,-2.231 -10.088,-2.974 -9.993,-3.728C-9.472,-7.951 -8.005,-11.872 -6.158,-15.667C-5.887,-16.228 -5.508,-16.735 -4.95,-17.07C-4.589,-17.29 -4.364,-17.193 -4.27,-16.776C-4.121,-16.121 -4.082,-15.47 -4.243,-14.804C-5.125,-11.237 -6.182,-7.719 -7.297,-4.224C-8.146,-1.566 -8.986,1.097 -9.843,3.751C-10.046,4.373 -9.927,4.992 -9.931,5.612C-9.93,5.72 -9.908,5.874 -9.778,5.895C-9.647,5.916 -9.586,5.776 -9.518,5.685C-9.167,5.19 -8.854,4.67 -8.507,3.915C-8.255,2.946 -7.616,1.887 -7.47,0.628C-7.299,-0.849 -6.545,-2.149 -5.859,-3.442C-4.911,-5.22 -3.89,-6.957 -2.697,-8.583C-1.857,-9.728 -1.033,-10.906 0.19,-11.705C0.391,-11.838 0.6,-12.079 0.866,-11.883C1.106,-11.704 1.133,-11.414 1.063,-11.13C0.812,-10.086 0.507,-9.073 0,-8.104" style="fill:rgb(6,103,56);fill-rule:nonzero;"/>
            </g>
        </g>
    </g>
</svg>
