<?xml version="1.0" encoding="UTF-8" standalone="no"?>
<!DOCTYPE svg PUBLIC "-//W3C//DTD SVG 1.1//EN" "http://www.w3.org/Graphics/SVG/1.1/DTD/svg11.dtd">
<svg width="100%" height="100%" viewBox="0 0 1279 1279" version="1.1" xmlns="http://www.w3.org/2000/svg" xmlns:xlink="http://www.w3.org/1999/xlink" xml:space="preserve" xmlns:serif="http://www.serif.com/" style="fill-rule:evenodd;clip-rule:evenodd;stroke-linejoin:round;stroke-miterlimit:2;">
    <g transform="matrix(1,0,0,1,-1653,-1658)">
        <g id="corner-top-right" transform="matrix(0.928524,0,0,0.928524,5925.8,2320.68)">
            <rect x="-4600.85" y="-713.077" width="1376.14" height="1376.14" style="fill:none;"/>
            <clipPath id="_clip1">
                <rect x="-4600.85" y="-713.077" width="1376.14" height="1376.14"/>
            </clipPath>
            <g clip-path="url(#_clip1)">
                <g transform="matrix(5.98321,0,0,5.98321,-3316.38,240.059)">
                    <path d="M0,-30.442C-0.504,-29.48 -1.011,-28.519 -1.512,-27.555C-3.596,-23.546 -4.891,-19.288 -5.567,-14.827C-6.421,-9.194 -6.246,-3.549 -5.753,2.095C-5.447,5.589 -5.061,9.076 -4.711,12.566C-4.706,12.625 -4.717,12.692 -4.692,12.741C-4.62,12.878 -4.533,13.009 -4.452,13.142C-4.387,12.986 -4.26,12.827 -4.267,12.675C-4.3,12.009 -4.356,11.344 -4.432,10.681C-4.628,8.946 -4.318,7.349 -3.321,5.877C-1.052,2.527 -0.372,-1.282 -0.263,-5.225C-0.135,-9.896 -0.136,-14.572 0.428,-19.221C0.935,-23.394 1.804,-27.478 3.521,-31.339C4.854,-34.335 6.612,-37.047 8.94,-39.389C10.353,-40.811 11.903,-42.046 13.549,-43.175C13.628,-43.23 13.705,-43.288 13.775,-43.353C13.793,-43.37 13.779,-43.421 13.781,-43.584C12.513,-43.087 11.268,-42.655 10.072,-42.117C6.668,-40.586 3.649,-38.465 0.988,-35.865C-1.376,-33.554 -3.356,-30.929 -5.053,-28.082C-6.99,-24.832 -8.461,-21.385 -9.46,-17.753C-10.87,-12.627 -11.435,-7.417 -10.514,-2.129C-10.054,0.516 -9.193,3.022 -7.558,5.199C-7.168,5.719 -6.707,6.186 -6.279,6.677C-6.23,6.649 -6.182,6.621 -6.133,6.593C-6.139,6.43 -6.129,6.265 -6.152,6.104C-7.061,-0.443 -7.303,-6.999 -6.351,-13.562C-5.963,-16.234 -5.408,-18.875 -4.456,-21.409C-3.785,-23.196 -3.1,-24.984 -2.29,-26.71C-1.671,-28.026 -0.845,-29.245 -0.111,-30.508C-0.074,-30.486 -0.037,-30.464 0,-30.442" style="fill:rgb(61,123,81);fill-rule:nonzero;"/>
                </g>
                <g transform="matrix(5.98321,0,0,5.98321,-4086.78,-713.25)">
                    <path d="M0,49.722C0.54,49.689 1.081,49.65 1.62,49.601C2.719,49.502 3.817,49.392 4.916,49.291C5.513,49.236 6.112,49.209 6.707,49.136C8.176,48.954 9.645,48.767 11.11,48.556C12.519,48.354 13.927,48.14 15.328,47.893C16.546,47.678 17.759,47.432 18.965,47.158C20.17,46.883 21.373,46.588 22.56,46.244C23.728,45.906 24.874,45.496 26.03,45.117C28.191,44.408 30.256,43.475 32.258,42.403C33.664,41.65 35.015,40.807 36.298,39.852C37.551,38.919 38.746,37.925 39.811,36.782C40.338,36.218 40.931,35.793 41.721,35.697C41.925,35.672 42.123,35.603 42.326,35.563C43.355,35.361 44.375,35.099 45.435,35.111C45.675,35.114 47.599,35.005 48.32,34.931C49.107,34.85 49.926,35 50.722,35.11C51.259,35.185 51.782,35.359 52.308,35.501C53.778,35.9 55.19,36.458 56.594,37.04C56.802,37.127 57.024,37.183 57.226,37.282C58.136,37.73 59.067,38.122 60.036,38.431C60.533,38.59 61.006,38.824 61.489,39.027C61.517,39.039 61.532,39.084 61.579,39.149C61.342,39.236 61.12,39.333 60.889,39.4C60.694,39.457 60.498,39.509 60.302,39.562C52.164,45.422 41.624,47.379 31.792,46.021C39.175,46.819 46.791,45.721 53.53,42.569C54.962,41.893 56.379,41.137 57.715,40.271C56.633,40.527 55.538,40.716 54.439,40.887C52.565,41.177 50.673,41.234 48.778,41.206C48.423,41.2 48.066,41.203 47.713,41.17C46.634,41.067 45.548,41.056 44.475,40.865C43.554,40.702 42.619,40.618 41.692,40.493C41.414,40.456 41.138,40.401 40.862,40.352C39.736,40.153 38.609,39.961 37.485,39.748C37.185,39.691 36.959,39.745 36.702,39.924C35.701,40.62 34.706,41.332 33.658,41.951C31.374,43.299 28.963,44.388 26.473,45.302C26.251,45.383 26.044,45.504 25.83,45.606C25.956,45.909 26.268,45.842 26.496,45.927C27.805,46.416 29.191,46.617 30.534,46.98C30.949,47.093 31.373,47.183 31.799,47.244C32.723,47.375 33.651,47.481 34.577,47.596C34.801,47.623 35.024,47.662 35.248,47.669C36.219,47.702 37.19,47.711 38.161,47.755C39.361,47.81 40.554,47.71 41.742,47.582C43.214,47.424 44.667,47.159 46.113,46.827C48.517,46.275 50.823,45.456 53.075,44.471C54.038,44.05 54.98,43.582 55.927,43.124C56.77,42.716 57.611,42.301 58.446,41.874C59.651,41.257 60.872,40.679 62.168,40.274C63.244,39.937 64.343,39.902 65.444,40.04C66.205,40.135 65.742,37.68 64.498,37.096C63.62,36.685 62.779,36.191 61.948,35.69C60.598,34.876 59.338,33.935 58.139,32.91C56.969,31.911 55.819,30.89 54.775,29.76C53.809,28.714 52.869,27.642 51.947,26.556C51.329,25.827 50.753,25.063 50.177,24.299C49.476,23.37 48.804,22.42 48.103,21.49C47.212,20.308 46.31,19.134 45.402,17.964C44.553,16.868 43.719,15.759 42.826,14.699C41.74,13.41 40.616,12.151 39.479,10.905C38.189,9.491 36.832,8.145 35.319,6.963C34.747,6.517 34.216,6.016 33.635,5.583C32.977,5.092 32.304,4.614 31.601,4.191C30.526,3.545 29.446,2.897 28.319,2.353C27.273,1.849 26.181,1.422 25.075,1.069C24.023,0.734 22.932,0.511 21.847,0.288C20.91,0.095 19.956,-0.004 18.996,0.039C18.471,0.063 17.946,0.095 17.425,0.158C15.251,0.424 13.373,1.344 11.743,2.789C11.659,2.864 11.626,2.998 11.545,3.148C11.666,3.132 11.722,3.135 11.771,3.117C11.876,3.077 11.981,3.033 12.079,2.98C13.444,2.243 14.917,1.972 16.432,2.181C18.121,2.414 19.719,3.005 21.159,3.927C22.403,4.723 23.566,5.639 24.629,6.671C25.855,7.862 27.013,9.114 28.026,10.493C29.048,11.883 30.09,13.261 31.044,14.697C32.375,16.698 33.673,18.719 35.089,20.661C36.16,22.13 37.288,23.554 38.583,24.833C39.49,25.729 40.437,26.576 41.506,27.285C42.1,27.678 42.717,28.021 43.327,28.383C44.564,29.118 45.94,29.423 47.295,29.803C47.654,29.904 48.034,29.953 48.407,29.975C49.47,30.036 50.534,30.105 51.598,30.108C51.695,30.108 51.789,30.115 51.884,30.122C47.926,24.678 43.832,19.313 39.34,14.298C37.695,12.509 36.02,10.715 34.036,9.295C35.058,9.962 35.991,10.757 36.894,11.577C41.359,15.743 45.256,20.472 49.118,25.19C50.525,26.934 51.913,28.69 53.28,30.47C53.696,30.658 54.085,30.911 54.45,31.23C55.142,31.834 55.811,32.466 56.517,33.053C57.45,33.83 58.394,34.595 59.363,35.327C60.094,35.878 60.87,36.369 61.626,36.887C61.811,37.014 61.995,37.143 62.181,37.266C62.367,37.389 62.555,37.506 62.743,37.626C61.62,37.442 60.572,37.101 59.552,36.669C58.706,36.311 57.857,35.96 57.008,35.61C56.471,35.388 55.927,35.182 55.392,34.957C54.407,34.541 53.437,34.091 52.442,33.703C51.48,33.328 47.36,31.894 46.358,31.665C45.043,31.366 43.704,31.175 42.373,30.945C42.041,30.887 41.703,30.863 41.369,30.816C40.534,30.7 39.7,30.572 38.864,30.465C38.271,30.389 37.678,30.309 37.081,30.277C33.522,30.083 11.652,30.259 -0.495,29.657L-1.703,29.524L-0.492,29.621C11.024,29.842 22.547,29.332 34.058,28.944C33.731,28.742 33.404,28.54 33.062,28.367C32.31,27.987 31.544,27.633 30.769,27.301C30.08,27.006 29.383,26.718 28.668,26.493C26.946,25.953 25.222,25.413 23.425,25.163C22.535,25.039 21.649,24.891 20.758,24.787C20.013,24.701 19.263,24.655 18.515,24.606C17.675,24.551 16.834,24.469 15.994,24.477C14.628,24.49 13.261,24.548 11.897,24.624C10.795,24.685 9.693,24.771 8.597,24.897C7.479,25.024 6.364,25.191 5.255,25.38C3.87,25.617 2.488,25.872 1.113,26.162C-0.015,26.4 -1.134,26.687 -2.251,26.976C-3.122,27.202 -3.987,27.454 -4.849,27.714C-6.664,28.261 -8.461,28.863 -10.231,29.544C-10.404,29.61 -10.573,29.684 -10.744,29.755C-10.743,29.797 -10.742,29.84 -10.741,29.882C-10.587,29.938 -10.436,30.004 -10.278,30.047C-8.865,30.44 -7.45,30.829 -6.036,31.217C-5.945,31.242 -5.851,31.252 -5.759,31.271C-5.043,31.415 -4.322,31.541 -3.611,31.709C-2.572,31.955 -1.567,32.35 -0.483,32.403C-0.337,32.41 -0.194,32.486 -0.048,32.523C0.152,32.573 0.353,32.624 0.556,32.662C1.294,32.797 2.04,32.896 2.769,33.065C3.665,33.274 4.571,33.408 5.477,33.55C6.013,33.634 6.552,33.701 7.09,33.778C7.81,33.881 8.53,33.99 9.251,34.088C9.731,34.154 10.213,34.208 10.695,34.26C10.973,34.29 11.254,34.304 11.533,34.325C12.091,34.368 12.649,34.413 13.208,34.455C14.197,34.53 15.185,34.628 16.176,34.669C17.071,34.706 17.969,34.694 18.865,34.678C20.1,34.657 21.34,34.674 22.568,34.563C24.114,34.424 25.653,34.199 27.188,33.96C28.11,33.815 29.024,33.599 29.931,33.37C31.829,32.891 33.647,32.184 35.416,31.35C35.798,31.17 36.208,31.111 36.619,31.154C37.268,31.222 37.914,31.327 38.561,31.414C38.654,31.427 38.748,31.426 38.841,31.439C39.748,31.565 40.658,31.677 41.563,31.824C42.21,31.928 42.846,32.113 43.495,32.199C44.155,32.287 47.993,32.978 49.714,34.024C48.861,33.988 45.981,34.123 45.599,34.106C45.254,34.09 44.137,34.332 43.922,34.379C43.228,34.531 42.528,34.658 41.836,34.82C41.343,34.936 40.851,35.05 40.35,35.071C30.605,39.734 20.555,44.056 9.936,46.233C17.895,44.416 25.455,41.214 32.831,37.775C34.808,36.839 36.776,35.873 38.717,34.87C38.388,34.81 38.059,34.753 37.728,34.71C36.762,34.583 35.793,34.512 34.816,34.5C33.37,34.482 31.933,34.57 30.501,34.742C28.261,35.011 26.061,35.487 23.908,36.159C22.499,36.598 21.098,37.071 19.717,37.592C17.907,38.273 16.136,39.055 14.419,39.947C12.801,40.787 11.209,41.681 9.624,42.584C7.845,43.598 6.135,44.722 4.472,45.917C3.527,46.596 2.576,47.27 1.647,47.972C1.05,48.423 0.486,48.918 -0.087,49.402C-0.144,49.451 -0.177,49.553 -0.179,49.631C-0.18,49.661 -0.061,49.726 0,49.722" style="fill:rgb(61,123,81);fill-rule:nonzero;"/>
                </g>
                <g transform="matrix(5.98321,0,0,5.98321,-4080.69,-650.826)">
                    <path d="M0,5.387C0.722,5.821 1.439,6.257 2.225,6.568C2.294,6.595 2.354,6.645 2.421,6.679C3.071,7.009 3.714,7.352 4.372,7.665C5.183,8.051 6.004,8.417 6.825,8.782C7.319,9.001 7.817,9.213 8.322,9.408C8.899,9.63 9.485,9.829 10.068,10.038C10.493,10.189 10.92,10.335 11.343,10.492C11.94,10.714 12.52,10.993 13.131,11.161C14.343,11.494 15.571,11.772 16.794,12.063C17.396,12.207 17.999,12.345 18.607,12.46C19.228,12.577 19.854,12.673 20.48,12.761C21.035,12.84 21.591,12.94 22.149,12.987C14.559,5.17 2.676,4.274 -6.127,-1.738C3.123,4.271 15.465,4.797 23.257,13.147C23.564,13.269 23.826,13.466 24.069,13.71C24.373,14.013 24.646,14.352 24.898,14.701C25.116,15.003 25.331,15.271 25.71,15.232C25.839,15.271 25.928,15.306 26.02,15.322C26.158,15.347 26.331,15.503 26.422,15.331C26.465,15.248 26.356,15.061 26.281,14.943C25.298,13.41 24.21,11.955 23.045,10.554C21.785,9.038 20.402,7.641 18.903,6.37C17.531,5.207 16.076,4.149 14.505,3.254C13.317,2.577 12.135,1.894 10.869,1.368C9.779,0.915 8.705,0.419 7.6,0.006C6.333,-0.466 5.049,-0.896 3.756,-1.292C2.48,-1.682 1.179,-1.989 -0.101,-2.368C-1.326,-2.731 -2.539,-3.137 -3.756,-3.529C-4.847,-3.881 -5.94,-4.227 -7.024,-4.598C-7.663,-4.816 -8.303,-5.045 -8.914,-5.329C-9.762,-5.725 -10.586,-6.171 -11.415,-6.608C-11.762,-6.79 -12.092,-7.005 -12.434,-7.2C-13.137,-7.601 -13.777,-8.086 -14.367,-8.639C-14.414,-8.682 -14.479,-8.788 -14.471,-8.795C-14.298,-8.959 -14.373,-8.987 -14.561,-9.006C-14.636,-9.014 -14.712,-9.098 -14.771,-9.162C-15.01,-9.424 -15.25,-9.686 -15.474,-9.96C-15.602,-10.116 -15.688,-10.009 -15.715,-9.916C-15.747,-9.801 -15.746,-9.652 -15.698,-9.546C-15.589,-9.31 -15.413,-9.103 -15.317,-8.864C-14.895,-7.813 -14.312,-6.856 -13.702,-5.905C-12.793,-4.489 -11.581,-3.337 -10.476,-2.091C-9.83,-1.702 -9.429,-1.038 -8.79,-0.624C-8.233,-0.262 -7.757,0.226 -7.247,0.66C-7.134,0.757 -7.038,0.877 -6.916,0.961C-6.351,1.353 -5.755,1.706 -5.215,2.13C-4.273,2.869 -3.253,3.488 -2.24,4.115C-1.51,4.567 -0.736,4.945 0,5.387" style="fill:rgb(61,123,81);fill-rule:nonzero;"/>
                </g>
                <g transform="matrix(5.98321,0,0,5.98321,-4241.4,-584.695)">
                    <path d="M0,0.166C0.403,0.311 0.84,0.355 1.259,0.458C2.298,0.712 3.335,0.973 4.374,1.231C4.428,1.245 4.484,1.254 4.539,1.266C5.509,1.479 6.479,1.689 7.447,1.908C8.124,2.061 8.796,2.24 9.475,2.382C9.951,2.481 10.452,2.485 10.913,2.625C11.871,2.915 12.863,2.998 13.839,3.179C14.371,3.278 14.912,3.334 15.449,3.404C16.285,3.513 17.119,3.643 17.957,3.716C18.922,3.8 19.892,3.838 20.86,3.884C21.94,3.935 23.019,4.01 24.103,3.922C24.789,3.866 25.486,3.936 26.17,3.871C27.658,3.731 29.144,3.563 30.625,3.366C32.092,3.171 33.541,2.871 34.969,2.47C35.034,2.452 35.101,2.437 35.167,2.42C25.655,0.697 16.008,-0.348 6.348,-0.726C14.142,-0.611 21.926,-0.022 29.658,0.965C32.095,1.277 34.524,1.625 36.953,2.041C37.607,1.983 38.22,2.136 38.798,2.526C39.036,2.686 39.346,2.78 39.635,2.817C39.984,2.862 40.345,2.819 40.7,2.801C40.784,2.797 40.866,2.741 41.033,2.677C40.784,2.499 40.602,2.343 40.397,2.226C39.78,1.872 39.165,1.514 38.53,1.195C37.779,0.816 36.994,0.503 36.25,0.111C34.747,-0.682 33.137,-1.197 31.535,-1.729C30.573,-2.048 29.576,-2.263 28.602,-2.548C27.59,-2.843 26.56,-3.042 25.521,-3.205C25.022,-3.284 24.524,-3.372 24.022,-3.431C23.357,-3.508 22.693,-3.578 22.021,-3.596C21.463,-3.611 20.908,-3.715 20.35,-3.761C19.866,-3.801 19.379,-3.832 18.894,-3.837C17.977,-3.844 17.06,-3.843 16.143,-3.821C14.967,-3.794 13.788,-3.782 12.615,-3.693C10.973,-3.568 9.334,-3.396 7.698,-3.211C6.286,-3.052 4.881,-2.836 3.471,-2.663C2.095,-2.493 0.753,-2.142 -0.633,-2.009C-1.973,-1.88 -3.297,-1.594 -4.628,-1.372C-4.781,-1.346 -4.928,-1.285 -5.198,-1.205C-5,-1.103 -4.927,-1.044 -4.846,-1.028C-4.46,-0.951 -4.054,-0.938 -3.689,-0.807C-2.487,-0.374 -1.202,-0.266 0,0.166" style="fill:rgb(61,123,81);fill-rule:nonzero;"/>
                </g>
                <g transform="matrix(5.98321,0,0,5.98321,-4170.77,-669.915)">
                    <path d="M0,8.802C0.311,8.866 0.625,8.93 0.941,8.958C1.591,9.017 2.251,9.003 2.892,9.107C3.804,9.255 4.72,9.224 5.633,9.263C6.098,9.282 6.565,9.244 7.03,9.222C7.664,9.191 8.297,9.153 8.931,9.113C9.005,9.108 9.079,9.077 9.152,9.054L-14.462,1.926L8.689,8.465C8.524,8.317 8.358,8.171 8.188,8.028C7.874,7.763 7.56,7.496 7.226,7.257C6.45,6.702 5.689,6.117 4.871,5.63C4.021,5.123 3.184,4.582 2.25,4.218C1.623,3.974 1.027,3.654 0.409,3.384C0.1,3.249 -0.243,3.185 -0.541,3.03C-1.348,2.609 -2.211,2.356 -3.066,2.045C-4.038,1.84 -5.028,1.696 -5.978,1.415C-7.373,1 -8.817,0.878 -10.232,0.591C-11.294,0.375 -12.387,0.306 -13.467,0.188C-14.393,0.086 -15.326,0.107 -16.253,-0.042C-17.057,-0.172 -17.891,-0.075 -18.697,-0.257C-18.75,-0.269 -18.81,-0.245 -18.865,-0.248C-19.576,-0.296 -20.286,-0.344 -20.996,-0.396C-21.314,-0.42 -21.631,-0.461 -21.949,-0.475C-22.049,-0.48 -22.153,-0.423 -22.255,-0.394C-22.19,-0.32 -22.139,-0.218 -22.058,-0.176C-20.963,0.395 -19.864,0.958 -18.767,1.523C-18.169,1.831 -17.573,2.142 -16.974,2.446C-16.306,2.785 -15.638,3.123 -14.964,3.449C-14.762,3.547 -14.531,3.584 -14.331,3.684C-13.563,4.069 -12.809,4.484 -12.036,4.857C-11.244,5.238 -10.442,5.601 -9.631,5.939C-8.975,6.213 -8.301,6.441 -7.633,6.685C-6.804,6.987 -5.986,7.328 -5.141,7.574C-4.042,7.894 -2.922,8.144 -1.809,8.411C-1.209,8.556 -0.604,8.678 0,8.802" style="fill:rgb(61,123,81);fill-rule:nonzero;"/>
                </g>
                <g transform="matrix(5.98321,0,0,5.98321,-4065.36,-479.874)">
                    <path d="M0,-0.727C0.899,-0.613 1.78,-0.459 2.645,-0.196C2.805,-0.147 2.974,-0.12 3.141,-0.103C4.085,-0.005 4.978,0.294 5.862,0.611C6.461,0.826 7.039,1.097 7.627,1.343L7.652,1.281C7.936,1.38 8.225,1.467 8.503,1.582C8.718,1.67 8.886,1.628 9.085,1.517C9.608,1.225 10.14,0.944 10.684,0.693C12.198,-0.006 13.718,-0.69 15.239,-1.374C15.546,-1.512 15.867,-1.62 16.177,-1.755C16.233,-1.779 16.263,-1.863 16.305,-1.92C16.248,-1.949 16.193,-1.998 16.134,-2.004C15.296,-2.088 14.459,-2.185 13.619,-2.241C12.706,-2.302 11.79,-2.331 10.875,-2.363C10.315,-2.383 9.753,-2.397 9.193,-2.388C8.388,-2.376 7.583,-2.349 6.779,-2.313C5.937,-2.275 5.094,-2.249 4.257,-2.166C3.178,-2.059 2.1,-1.922 1.027,-1.757C-0.029,-1.593 -1.077,-1.38 -2.127,-1.18C-2.196,-1.167 -2.25,-1.073 -2.311,-1.017C-2.247,-0.986 -2.183,-0.929 -2.119,-0.928C-1.407,-0.912 -0.706,-0.817 0,-0.727" style="fill:rgb(61,123,81);fill-rule:nonzero;"/>
                </g>
                <g transform="matrix(5.98321,0,0,5.98321,-4469.44,-624.052)">
                    <path d="M0,18.685C0.279,18.655 0.563,18.663 0.841,18.627C1.657,18.518 2.472,18.402 3.287,18.278C4.209,18.138 5.132,17.995 6.052,17.837C6.531,17.756 7.003,17.634 7.48,17.543C7.773,17.487 8.073,17.469 8.365,17.408C8.859,17.305 9.352,17.192 9.841,17.064C11.108,16.733 12.388,16.44 13.633,16.041C14.701,15.698 15.734,15.245 16.771,14.812C18.017,14.291 19.201,13.647 20.344,12.93C21.52,12.192 22.61,11.347 23.609,10.389C16.967,11.78 10.324,13.447 4.162,16.32C9.279,13.69 14.837,12.043 20.372,10.545C21.739,10.185 24.617,9.415 24.691,9.384C24.998,9.254 25.328,9.16 25.657,9.103C26.658,8.93 27.67,8.847 28.685,8.894C29.114,8.914 29.561,8.946 29.962,9.082C30.581,9.292 31.19,9.557 31.764,9.869C32.969,10.525 34.214,11.079 35.502,11.545C35.727,11.626 35.854,11.566 35.934,11.343C36.035,11.061 36.137,11.494 36.238,11.212C36.327,10.963 36.287,10.9 36.004,10.831C35.676,10.751 35.337,10.709 35.019,10.602C34.153,10.31 33.284,10.018 32.436,9.676C31.429,9.27 30.611,8.432 29.703,7.839C28.594,7.114 27.375,5.792 26.314,5.238C25.254,4.684 23.759,4.453 22.476,4.198C15.891,2.919 9.164,2.537 2.471,2.196C8.671,2.323 14.891,2.53 21.045,3.389C22.143,3.549 23.244,3.733 24.33,3.979C23.226,3.331 22.09,2.738 20.875,2.287C19.91,1.928 18.943,1.574 17.96,1.277C17.501,1.139 17.034,1.024 16.564,0.918C16.543,0.928 16.528,0.936 16.528,0.936C16.52,0.925 16.512,0.915 16.505,0.904C15.992,0.79 15.476,0.686 14.962,0.576C14.303,0.435 13.637,0.324 12.971,0.221C12.563,0.158 12.134,0.189 11.742,0.079C11.297,-0.044 10.854,-0.064 10.404,-0.079C9.632,-0.106 8.858,-0.105 8.088,-0.159C6.865,-0.245 5.65,-0.091 4.432,-0.074C3.748,-0.064 3.092,0.088 2.419,0.138C1.713,0.191 1.007,0.295 0.311,0.431C-0.624,0.614 -1.55,0.842 -2.477,1.065C-3.204,1.24 -3.938,1.402 -4.647,1.634C-5.819,2.018 -6.976,2.451 -8.134,2.874C-8.239,2.913 -8.314,3.033 -8.403,3.116C-8.19,3.199 -8.009,3.2 -7.835,3.164C-6.872,2.967 -5.899,2.92 -4.922,2.961C-4.135,2.995 -3.347,3.054 -2.561,3.12C-1.814,3.183 -1.066,3.25 -0.323,3.35C0.605,3.474 1.528,3.629 2.452,3.782C2.932,3.862 3.407,3.976 3.886,4.059C4.604,4.185 5.328,4.283 6.044,4.418C7.018,4.602 7.986,4.822 8.961,5.001C9.901,5.174 10.846,5.314 11.789,5.468C12.214,5.538 12.637,5.621 13.063,5.677C13.9,5.787 14.738,5.887 15.576,5.981C16.135,6.043 16.695,6.111 17.256,6.133C18.551,6.184 19.848,6.283 21.14,6.083C21.898,5.966 22.676,5.918 23.41,5.711C23.968,5.554 24.509,5.477 25.072,5.531C25.288,5.552 25.521,5.611 25.704,5.723C26.069,5.947 26.409,6.214 26.753,6.473C27.41,6.969 28.063,7.471 28.821,8.049C28.324,8.126 27.955,8.185 27.585,8.239C26.791,8.353 25.976,8.391 25.209,8.603C24.691,8.747 24.21,8.769 23.723,8.645C23.266,8.529 22.81,8.464 22.342,8.426C20.787,8.301 19.24,8.231 17.679,8.44C16.116,8.65 14.595,8.994 13.092,9.465C11.444,9.982 9.857,10.642 8.318,11.417C7.383,11.888 6.462,12.389 5.559,12.918C4.688,13.428 3.827,13.961 3,14.538C1.907,15.3 0.84,16.1 -0.217,16.912C-0.915,17.449 -1.578,18.032 -2.25,18.603C-2.31,18.654 -2.322,18.761 -2.356,18.843C-2.277,18.871 -2.194,18.93 -2.118,18.922C-1.412,18.849 -0.707,18.76 0,18.685" style="fill:rgb(61,123,81);fill-rule:nonzero;"/>
                </g>
                <g transform="matrix(5.98321,0,0,5.98321,-4382.04,-671.797)">
                    <path d="M0,6.826C-1.404,5.478 -2.866,4.186 -4.38,2.962C-5.139,2.351 -5.911,1.754 -6.724,1.215C-3.837,3.047 -1.182,5.239 1.322,7.564C1.686,7.927 2.021,8.224 2.318,8.671C2.43,8.699 2.542,8.726 2.652,8.758C3.69,9.065 4.71,9.433 5.74,9.766C5.831,9.795 5.945,9.752 6.048,9.742C6.03,9.656 6.034,9.555 5.991,9.484C5.446,8.583 4.849,7.719 4.134,6.943C2.991,5.701 1.766,4.553 0.419,3.53C-0.759,2.634 -1.949,1.76 -3.238,1.027C-4.149,0.509 -5.049,-0.029 -5.973,-0.524C-6.631,-0.876 -7.307,-1.202 -7.998,-1.484C-9.019,-1.901 -10.055,-2.279 -11.094,-2.649C-11.478,-2.786 -11.887,-2.852 -12.361,-2.969C-12.371,-2.966 -12.488,-2.968 -12.536,-2.912C-12.569,-2.873 -12.529,-2.735 -12.481,-2.672C-12.165,-2.255 -11.842,-1.842 -11.514,-1.433C-10.316,0.054 -9.099,1.526 -7.808,2.934C-6.477,4.386 -5.061,5.747 -3.574,7.036C-2.846,7.666 -2.444,7.899 -1.59,7.969C-0.84,8.03 -0.106,8.146 0.625,8.308C0.955,8.381 1.288,8.444 1.619,8.511C1.137,7.911 0.538,7.365 0,6.826" style="fill:rgb(61,123,81);fill-rule:nonzero;"/>
                </g>
                <g transform="matrix(5.98321,0,0,5.98321,-3746.31,-661.475)">
                    <path d="M0,10.552C-0.009,10.521 -0.018,10.489 -0.027,10.458C-0.151,10.503 -0.274,10.548 -0.397,10.593C-0.393,10.61 -0.388,10.628 -0.384,10.645C-0.256,10.614 -0.128,10.583 0,10.552M11.847,4.381C11.852,4.417 11.857,4.452 11.863,4.488C11.976,4.482 12.089,4.481 12.202,4.468C12.226,4.466 12.245,4.422 12.267,4.397C12.161,4.384 12.055,4.369 11.948,4.36C11.915,4.358 11.881,4.374 11.847,4.381M12.634,4.287C12.645,4.315 12.655,4.344 12.666,4.373C12.793,4.327 12.922,4.284 13.047,4.232C13.075,4.22 13.089,4.174 13.11,4.144C13.066,4.144 13.019,4.132 12.98,4.146C12.863,4.188 12.749,4.239 12.634,4.287M0.926,-2.776C0.856,-2.802 0.805,-2.841 0.764,-2.832C0.695,-2.817 0.587,-2.782 0.577,-2.738C0.539,-2.561 0.197,-2.58 0.313,-2.317C0.466,-2.39 0.628,-2.45 0.769,-2.541C0.837,-2.584 0.868,-2.685 0.926,-2.776M10.269,-1.57C9.987,-1.092 9.755,-0.579 9.271,-0.247C9.877,-0.49 10.182,-0.951 10.269,-1.57M4.166,-1.247C3.99,-1.874 3.603,-2.243 3.036,-2.445C3.404,-2.054 3.773,-1.663 4.166,-1.247M-2.416,10.554C-2.339,10.434 -2.272,10.377 -2.28,10.334C-2.312,10.156 -2.344,9.971 -2.42,9.81C-2.491,9.659 -2.554,9.392 -2.785,9.492C-2.989,9.581 -2.816,9.804 -2.777,9.936C-2.717,10.135 -2.567,10.307 -2.416,10.554M-0.051,2.597C-0.101,2.575 -0.171,2.514 -0.228,2.524C-0.615,2.592 -0.794,2.925 -1.026,3.185C-1.035,3.195 -0.963,3.321 -0.923,3.324C-0.604,3.35 -0.095,2.944 -0.051,2.597M14.515,2.514C14.555,2.484 14.613,2.461 14.629,2.422C14.732,2.177 14.551,1.583 14.328,1.409C14.223,1.328 14.068,1.369 14.079,1.485C14.107,1.815 14.142,2.148 14.365,2.418C14.398,2.458 14.456,2.477 14.515,2.514M10.237,-3.468C10.269,-3.552 10.342,-3.649 10.318,-3.693C10.118,-4.064 9.749,-4.204 9.379,-4.326C9.274,-4.361 9.185,-4.208 9.244,-4.098C9.447,-3.718 9.828,-3.614 10.237,-3.468M2.388,3.861C2.289,3.476 2.229,3.413 1.771,3.245C2.008,3.474 2.203,3.663 2.398,3.853C2.462,4.024 2.525,4.195 2.588,4.366C2.623,4.347 2.659,4.328 2.694,4.309C2.592,4.16 2.49,4.01 2.388,3.861M3.584,7.915C3.189,7.523 2.826,7.172 2.474,6.81C2.298,6.628 2.142,6.579 1.882,6.684C1.051,7.018 0.254,6.921 -0.45,6.351C-0.939,5.955 -1.247,5.454 -1.185,4.787C-1.169,4.619 -1.175,4.448 -1.163,4.279C-1.145,4.031 -1.148,3.794 -1.308,3.579C-1.448,3.391 -1.425,3.184 -1.294,3.001C-1.066,2.682 -0.842,2.358 -0.446,2.214C-0.197,2.124 0.005,2.074 0.284,2.225C0.603,2.398 0.998,2.443 1.365,2.511C2.357,2.697 3.022,3.375 3.183,4.392C3.267,4.919 3.119,5.397 2.845,5.836C2.629,6.184 2.606,6.153 2.902,6.508C3.558,7.296 4.348,7.917 5.225,8.443C5.753,8.761 6.25,9.129 6.765,9.468C6.832,9.512 6.926,9.515 7.007,9.537C7.017,9.466 7.049,9.389 7.035,9.323C6.856,8.52 6.685,7.715 6.483,6.918C6.299,6.191 6.11,5.463 5.87,4.755C5.487,3.629 4.964,2.574 4.15,1.685C3.855,1.364 3.86,1.359 3.446,1.517C3.411,1.53 3.375,1.542 3.34,1.555C2.033,2.032 0.955,1.65 0.182,0.499C-0.149,0.005 -0.342,-0.483 -0.174,-1.07C-0.131,-1.221 -0.19,-1.299 -0.294,-1.405C-0.542,-1.658 -0.679,-1.941 -0.426,-2.289C-0.309,-2.449 -0.246,-2.648 -0.144,-2.82C0.191,-3.392 0.777,-3.577 1.393,-3.325C1.511,-3.276 1.646,-3.232 1.77,-3.24C2.557,-3.291 3.112,-3.159 3.688,-2.774C4.393,-2.304 4.752,-1.626 4.839,-0.804C4.882,-0.404 4.737,-0.034 4.567,0.33C4.279,0.944 4.255,0.942 4.7,1.46C5.102,1.927 5.411,2.472 5.761,2.983C5.832,3.087 5.901,3.192 5.977,3.305C6.175,2.623 6.348,1.975 6.554,1.339C6.657,1.019 6.805,0.711 6.962,0.413C7.086,0.178 7.058,-0.014 6.899,-0.209C6.78,-0.355 6.661,-0.501 6.558,-0.657C5.772,-1.858 6.372,-3.523 7.697,-4.004C7.961,-4.099 8.237,-4.164 8.496,-4.272C8.664,-4.342 8.803,-4.477 8.966,-4.562C9.093,-4.628 9.257,-4.73 9.369,-4.697C9.875,-4.544 10.345,-4.315 10.659,-3.855C10.775,-3.686 10.843,-3.532 10.696,-3.344C10.565,-3.175 10.611,-3.009 10.692,-2.819C11.147,-1.744 10.773,-0.639 9.94,0.002C9.556,0.298 9.111,0.513 8.593,0.477C8.424,0.465 8.254,0.467 8.085,0.455C7.515,0.416 7.5,0.408 7.292,0.904C6.758,2.174 6.554,3.491 6.748,4.867C6.809,5.296 6.903,5.704 7.095,6.144C7.703,5.008 8.547,4.15 9.553,3.444C9.774,3.29 9.83,3.116 9.814,2.829C9.753,1.702 10.58,0.592 11.751,0.441C12.315,0.369 12.822,0.463 13.323,0.717C13.533,0.823 13.785,0.896 14.017,0.893C14.326,0.888 14.536,1.029 14.673,1.252C14.9,1.62 15.066,2.027 15.014,2.475C14.998,2.613 14.94,2.805 14.839,2.862C14.496,3.055 14.375,3.392 14.218,3.705C13.965,4.213 13.578,4.555 13.068,4.805C12.244,5.21 11.048,4.964 10.526,4.356C10.49,4.314 10.44,4.284 10.401,4.243C10.012,3.839 9.934,3.814 9.529,4.161C8.655,4.907 7.961,5.783 7.737,6.946C7.615,7.581 7.678,8.213 7.864,8.838C8.367,10.535 9.045,12.158 9.9,13.707C10.741,15.23 9.2,15.282 8.549,13.865C8.08,12.843 7.717,11.761 7.023,10.858C6.15,9.721 5.033,8.956 3.604,8.65C3.019,8.524 2.453,8.535 1.875,8.614C1.516,8.662 1.467,8.696 1.458,9.081C1.45,9.451 1.298,9.761 1.17,10.095C0.858,10.912 -0.448,11.371 -1.172,11.103C-1.553,10.962 -1.926,10.773 -2.366,10.841C-2.478,10.859 -2.639,10.727 -2.74,10.627C-3.015,10.352 -3.149,9.997 -3.195,9.62C-3.211,9.486 -3.173,9.289 -3.082,9.209C-2.796,8.959 -2.691,8.618 -2.532,8.3C-2.235,7.702 -1.792,7.273 -1.125,7.1C-0.258,6.875 0.436,7.187 0.986,7.825C1.176,8.046 1.326,8.098 1.6,8.065C2.211,7.992 2.827,7.969 3.584,7.915" style="fill:rgb(82,142,128);fill-rule:nonzero;"/>
                </g>
                <g transform="matrix(5.98321,0,0,5.98321,-3890.79,-395.238)">
                    <path d="M0,27.811C1.648,27.016 3.293,26.215 4.944,25.425C8.371,23.786 11.693,21.976 14.819,19.795C17.359,18.023 19.78,16.133 21.858,13.832C23.629,11.872 25.233,9.793 26.316,7.355C26.426,7.107 26.603,6.841 26.822,6.694C29.341,5.006 32.032,4.125 35.121,4.751C36.543,5.039 38.016,5.067 39.462,5.245C40.005,5.312 40.256,5.133 40.261,4.587C40.263,4.38 40.317,4.173 40.314,3.966C40.305,3.406 40.113,3.221 39.541,3.282C36.073,3.652 32.746,2.897 29.426,2.054C28.272,1.761 27.156,0.852 25.961,1.185C23.639,1.831 12.265,3.508 5.24,5.102C2.432,5.786 -0.636,6.309 -3.584,7.628C1.709,5.26 7.132,4.112 12.771,2.87C16.647,2.085 20.925,1.594 24.822,0.916C24.334,0.801 23.848,0.679 23.359,0.571C22.311,0.34 21.233,0.205 20.162,0.129C18.549,0.016 16.927,-0.087 15.313,-0.045C13.95,-0.01 12.591,0.22 11.234,0.396C10.117,0.541 8.959,0.587 7.904,0.933C5.419,1.746 2.844,2.3 0.473,3.463C-0.424,3.902 -1.427,4.124 -2.322,4.566C-3.992,5.39 -5.673,6.217 -7.25,7.201C-9.046,8.322 -10.743,9.602 -12.461,10.844C-12.874,11.143 -13.198,11.563 -13.563,11.928C-13.173,12.055 -12.897,12.013 -12.658,11.896C-10.841,11.008 -8.915,10.449 -6.949,10.027C-5.318,9.677 -3.683,9.342 -2.039,9.064C-0.439,8.794 1.169,8.511 2.785,8.41C4.281,8.318 5.687,7.611 7.215,7.838C8.177,7.212 9.304,7.458 10.348,7.267C12.278,6.914 14.236,6.721 16.115,6.103C17.229,5.737 18.378,5.474 19.483,5.085C20.543,4.711 21.585,4.275 22.6,3.791C23.273,3.469 23.865,2.979 24.53,2.635C24.926,2.43 25.411,2.209 25.825,2.258C27.397,2.445 28.82,3.135 30.47,3.713C29.899,4.025 29.513,4.25 29.115,4.449C28.405,4.803 27.595,5.027 26.996,5.514C26.529,5.894 25.108,7.053 24.569,7.522C24.029,7.991 12.44,18.834 5.517,22.563C10.662,19.791 18.631,12.077 24.729,6.313C24.676,6.315 24.624,6.319 24.569,6.321C24.117,6.333 23.646,6.376 23.219,6.515C21.441,7.095 19.551,7.36 17.953,8.461C17.343,8.881 16.567,9.054 15.945,9.46C14.659,10.301 13.427,11.225 12.169,12.11C9.836,13.754 7.888,15.815 6.02,17.939C3.587,20.703 1.46,23.702 -0.465,26.841C-0.574,27.019 -0.692,27.198 -0.763,27.392C-0.815,27.535 -0.795,27.704 -0.808,27.861C-0.616,27.875 -0.425,27.898 -0.234,27.897C-0.156,27.897 -0.075,27.847 0,27.811" style="fill:rgb(61,123,81);fill-rule:nonzero;"/>
                </g>
                <g transform="matrix(5.98321,0,0,5.98321,-3416.82,396.986)">
                    <path d="M0,-8.009C4.787,-6.216 9.098,-3.601 12.8,-0.069C14.812,1.85 16.398,4.116 17.355,6.766C17.476,7.098 17.536,7.453 17.611,7.801C17.642,7.942 17.637,8.091 17.677,8.607C12.763,4.458 7.898,0.732 2.465,-2.177C-2.948,-5.074 -12.499,-7.063 -11.343,-6.804C-7.4,-5.921 -3.702,-4.403 -0.122,-2.557C5.389,0.284 10.31,3.992 15.151,7.811C18.439,10.404 21.691,13.047 24.896,15.742C26.211,16.848 27.361,18.149 28.796,19.252C28.003,17.464 27.251,15.657 26.409,13.893C24.021,8.887 21.271,4.024 19.829,-1.37C18.968,-4.588 18.458,-7.9 17.847,-10.893C17.32,-9.911 18.105,-3.455 19.74,0.874C21.209,4.763 22.951,8.549 24.595,12.433C22.945,11.814 21.61,10.638 20.526,9.225C15.693,2.928 14.405,-4.368 15.056,-12.028C15.732,-19.974 19.405,-26.579 24.814,-32.057C23.891,-29.792 22.724,-27.429 21.958,-24.942C20.285,-19.511 20.926,-14.086 22.575,-8.763C23.694,-5.149 25.041,-1.607 26.192,1.998C27.115,4.889 27.464,7.873 26.911,10.885C26.419,13.569 27.55,15.794 28.79,17.975C29.774,19.706 30.926,21.341 31.967,23.041C32.119,23.29 32.065,23.666 32.107,23.983C31.996,24.004 31.884,24.026 31.773,24.048C30.396,22.498 29.107,20.857 27.623,19.419C25.105,16.979 22.484,14.643 19.864,12.312C18.613,11.199 17.1,10.662 15.402,10.695C10.542,10.791 6.349,8.863 2.37,6.339C-3.037,2.909 -7.821,-2.002 -13.688,-4.618C-17.391,-6.269 -23.542,-10.481 -23.542,-10.481C-23.542,-10.481 -6.948,-10.611 0,-8.009" style="fill:rgb(61,123,81);fill-rule:nonzero;"/>
                </g>
                <g transform="matrix(5.98321,0,0,5.98321,-3422.06,382.261)">
                    <path d="M0,-27.224C1.382,-24.678 2.587,-22.068 4.143,-19.686C6.313,-16.363 8.746,-13.212 11.065,-9.986C12.781,-7.6 14.355,-5.166 14.345,-2.049C14.343,-1.429 14.66,-0.807 14.83,-0.186C14.737,-0.124 14.643,-0.062 14.55,0L8.122,-8.017C8.043,-7.955 7.963,-7.893 7.883,-7.832C9.599,-5.498 11.315,-3.165 13.091,-0.75C12.095,-0.476 11.253,-1.037 10.45,-1.509C8.053,-2.92 6.499,-5.125 5.248,-7.508C2.094,-13.517 0.333,-19.937 -0.108,-26.714C-0.118,-26.861 -0.091,-27.012 -0.072,-27.16C-0.068,-27.187 -0.019,-27.208 0,-27.224" style="fill:rgb(61,123,81);fill-rule:nonzero;"/>
                </g>
                <g transform="matrix(5.98321,0,0,5.98321,-3730.14,-290.709)">
                    <path d="M0,1.594C0.624,1.577 1.249,1.533 1.872,1.547C7.917,1.678 13.855,2.604 19.716,4.037C25.972,5.566 32.045,7.627 37.815,10.516C41.662,12.443 45.32,14.671 48.462,17.648C50.956,20.01 52.982,22.692 53.835,26.099C54.016,26.821 54.068,27.576 54.106,28.341C44.634,19.911 34.079,13.319 22.381,8.559C29.39,11.96 36.069,15.924 42.448,20.392C48.83,24.862 54.894,29.709 60.037,35.626C60.087,35.59 60.138,35.554 60.188,35.518C59.978,34.967 59.789,34.407 59.552,33.867C58.255,30.905 57.033,27.907 55.621,25C53.362,20.348 50.612,15.988 47.482,11.863C45.951,9.846 44.093,8.426 41.623,7.729C37.759,6.639 34.632,4.333 31.998,1.378C30.481,-0.323 29.033,-2.11 27.762,-3.998C26.083,-6.492 24.484,-9.058 23.078,-11.713C21.579,-14.545 20.319,-17.506 19.002,-20.432C17.234,-24.358 15.88,-28.438 14.672,-32.565C13.767,-35.655 13.063,-38.792 12.659,-41.99C12.618,-42.314 12.626,-42.644 12.707,-43.015C12.972,-42.507 13.214,-41.985 13.507,-41.494C15.128,-38.773 16.667,-35.998 18.41,-33.357C22.505,-27.15 27.515,-21.685 32.555,-16.25C34.392,-14.269 36.204,-12.266 38.017,-10.262C40.169,-7.882 42.245,-5.438 43.903,-2.679C45.383,-0.216 46.466,2.391 46.508,5.328C46.512,5.638 46.505,5.949 46.48,6.257C46.454,6.565 46.399,6.871 46.333,7.35C35.979,-1.55 28.258,-12.409 21.077,-23.73C21.318,-23.23 21.521,-22.707 21.807,-22.235C23.939,-18.727 26.044,-15.201 28.247,-11.738C29.464,-9.824 30.77,-7.954 32.181,-6.18C36.308,-0.991 40.819,3.856 45.524,8.525C47.248,10.236 48.73,12.154 50.083,14.17C51.074,15.646 54.259,20.695 54.548,21.286C56.036,24.326 57.629,27.317 59.029,30.396C60.982,34.688 62.453,39.165 63.783,43.687C64.024,44.507 64.009,44.532 63.084,44.609C63.02,44.407 62.945,44.191 62.882,43.972C62.083,41.191 61.162,38.463 59.471,36.069C58.371,34.511 57.063,33.145 55.581,31.946C54.249,30.867 52.66,30.602 51.016,30.493C48.195,30.304 45.497,29.667 42.955,28.377C39.99,26.872 37.246,25.031 34.589,23.053C31.48,20.737 28.411,18.367 25.307,16.045C20.348,12.337 15.258,8.829 9.761,5.952C6.617,4.306 3.373,2.886 0.002,1.765C0.002,1.708 0.001,1.651 0,1.594" style="fill:rgb(61,123,81);fill-rule:nonzero;"/>
                </g>
                <g transform="matrix(5.98321,0,0,5.98321,-3507.36,-467.945)">
                    <path d="M0,-20.228C2.624,-6.934 3.795,6.431 2.099,19.943C2.035,19.955 1.97,19.966 1.906,19.978C1.863,19.738 1.753,19.488 1.789,19.261C2.057,17.599 1.63,16.031 1.108,14.497C0.914,13.927 0.467,13.437 0.109,12.93C-1.149,11.151 -1.824,9.141 -2.282,7.037C-3.136,3.111 -3.193,-0.88 -3.264,-4.868C-3.33,-8.54 -3.278,-12.215 -3.405,-15.885C-3.514,-19.047 -3.724,-22.21 -4.031,-25.359C-4.505,-30.244 -5.414,-35.055 -6.879,-39.75C-6.918,-39.873 -6.941,-40.001 -6.971,-40.127C-6.926,-40.154 -6.881,-40.18 -6.837,-40.206C-6.376,-39.584 -5.892,-38.978 -5.46,-38.338C-3.442,-35.348 -1.762,-32.171 -0.234,-28.908C1.9,-24.352 3.746,-19.682 5.104,-14.84C5.955,-11.804 6.715,-8.731 7.293,-5.634C8.089,-1.372 8.395,2.936 7.634,7.256C7.231,9.544 6.433,11.675 5.05,13.554C4.675,14.063 4.166,14.474 3.626,14.917C4.618,2.959 2.901,-8.696 0,-20.228" style="fill:rgb(61,123,81);fill-rule:nonzero;"/>
                </g>
                <g transform="matrix(5.98321,0,0,5.98321,-3615.79,-448.978)">
                    <path d="M0,-27.424C0.32,-26.632 0.64,-25.839 0.961,-25.047C1.957,-22.587 3.277,-20.298 4.73,-18.089C6.522,-15.362 8.411,-12.699 10.176,-9.955C11.277,-8.244 12.012,-6.38 11.99,-4.273C11.977,-3.07 12.843,-2.394 13.574,-1.564C13.987,-1.095 15.1,-0.139 14.756,0C10.147,-4.593 6.554,-9.895 3.835,-15.804C3.773,-15.774 3.711,-15.743 3.649,-15.713C3.974,-14.995 4.291,-14.273 4.627,-13.559C4.968,-12.834 5.313,-12.11 5.685,-11.4C6.065,-10.672 6.468,-9.955 6.882,-9.246C7.286,-8.556 7.698,-7.869 8.14,-7.202C8.592,-6.519 9.076,-5.856 9.564,-5.197C10.036,-4.56 10.532,-3.939 11.017,-3.311C10.994,-3.254 10.971,-3.198 10.948,-3.141C10.595,-3.232 10.229,-3.291 9.89,-3.42C8.296,-4.028 7.147,-5.185 6.158,-6.52C4.125,-9.264 2.887,-12.388 1.874,-15.616C0.862,-18.843 0.176,-22.136 -0.111,-25.508C-0.163,-26.123 -0.141,-26.745 -0.153,-27.363C-0.102,-27.384 -0.051,-27.404 0,-27.424" style="fill:rgb(61,123,81);fill-rule:nonzero;"/>
                </g>
                <g transform="matrix(5.98321,0,0,5.98321,-3960.78,-272.69)">
                    <path d="M0,-20.898C-10.666,-14.488 -21.57,-8.691 -34.123,-6.846C-31.132,-6.285 -26.224,-7.171 -19.417,-9.802C-14.72,-11.618 -10.181,-13.845 -5.459,-15.938C-5.525,-15.694 -5.553,-15.249 -5.752,-14.901C-7.811,-11.293 -10.711,-8.47 -14.43,-6.709C-28.604,0 -42.356,-1.168 -55.637,-9.266C-56.673,-9.898 -57.645,-10.648 -58.595,-11.407C-59.533,-12.156 -60.406,-12.986 -61.241,-13.723C-58.26,-12.72 -55.315,-11.487 -52.25,-10.755C-47.201,-9.548 -42.112,-10.152 -37.226,-11.638C-30.531,-13.674 -24,-16.264 -17.277,-18.192C-14.241,-19.063 -10.913,-19.123 -7.713,-19.159C-4.969,-19.191 -2.307,-19.072 0,-20.898" style="fill:rgb(61,123,81);fill-rule:nonzero;"/>
                </g>
                <g transform="matrix(5.98321,0,0,5.98321,-3576.7,280.799)">
                    <path d="M0,-22.601C0.148,-22.729 0.261,-22.58 0.375,-22.507C0.707,-22.292 1.035,-22.072 1.368,-21.861C3.299,-20.654 5.001,-19.147 6.505,-17.473C7.34,-16.544 8.172,-15.61 8.939,-14.623C9.332,-14.117 9.708,-13.598 10.057,-13.061C10.181,-12.871 10.869,-11.52 11.046,-11.619C11.175,-11.691 11.046,-11.923 11.019,-12.017C10.7,-13.136 10.654,-14.295 10.498,-15.443C10.351,-16.527 10.205,-17.612 10.117,-18.704C9.96,-20.641 9.833,-22.583 9.553,-24.507C9.524,-24.7 9.381,-25.133 9.533,-25.313C9.696,-25.506 9.831,-25.339 9.901,-25.144C10.193,-24.339 10.242,-23.472 10.324,-22.627C10.414,-21.704 10.543,-20.786 10.658,-19.866C10.901,-17.912 11.144,-15.953 11.268,-13.988C11.301,-13.454 11.399,-12.936 11.476,-12.408C11.542,-11.953 11.551,-11.469 11.772,-11.053C11.852,-11.076 11.884,-11.133 11.931,-11.205C12.287,-11.764 12.723,-12.263 13.137,-12.777C15.004,-15.111 17.104,-17.153 19.835,-18.483C20.717,-18.91 21.639,-19.052 22.58,-19.165C22.827,-19.196 23.215,-19.15 23.007,-18.729C22.503,-17.721 22.011,-16.699 21.109,-15.958C20.24,-15.243 19.427,-14.46 18.469,-13.849C16.601,-12.657 14.675,-11.604 12.552,-10.95C12.391,-10.9 12.15,-10.86 12.028,-10.732C11.854,-10.55 11.938,-10.315 11.964,-10.076C12.02,-9.577 12.095,-9.079 12.19,-8.585C12.401,-7.491 12.769,-6.454 13.064,-5.384C13.302,-4.522 13.562,-3.62 14.111,-2.898C14.14,-2.86 14.173,-2.82 14.22,-2.809C14.393,-2.765 14.654,-4.165 14.716,-4.346C14.893,-4.859 15.102,-5.361 15.339,-5.849C15.822,-6.844 16.423,-7.782 17.116,-8.645C18.49,-10.355 20.215,-11.767 22.103,-12.885C22.207,-12.947 22.332,-13.009 22.444,-12.961C22.611,-12.889 22.596,-12.649 22.552,-12.472C21.987,-10.247 21.172,-8.062 19.9,-6.15C18.923,-4.683 17.666,-3.382 16.164,-2.45C15.786,-2.216 15.363,-2.055 14.988,-1.823C14.715,-1.654 14.814,-1.597 14.96,-1.314C15.091,-1.06 15.222,-0.807 15.353,-0.553C15.677,0.074 16.023,0.69 16.347,1.317C16.508,1.631 16.666,1.946 16.81,2.268C16.898,2.467 16.923,2.905 16.575,2.621C16.079,2.217 15.823,1.59 15.553,1.029C15.244,0.385 14.86,-0.217 14.495,-0.83C14.386,-1.013 14.275,-1.2 14.116,-1.342C13.95,-1.491 13.742,-1.584 13.536,-1.671C11.427,-2.567 9.198,-3.176 7.141,-4.186C5.084,-5.196 3.148,-6.696 2.241,-8.8C2.137,-9.043 2.055,-9.349 2.225,-9.552C2.398,-9.757 2.718,-9.725 2.98,-9.666C7.188,-8.721 10.67,-5.779 13.521,-2.544C13.364,-2.723 13.29,-3.155 13.204,-3.381C13.096,-3.667 13,-3.957 12.902,-4.247C12.505,-5.433 12.124,-6.667 11.82,-7.896C11.572,-8.894 11.597,-10.507 10.605,-11.108C9.097,-12.021 7.714,-13.096 6.393,-14.253C5.275,-15.233 4.144,-16.206 3.083,-17.245C1.882,-18.419 0.99,-19.835 0.231,-21.327C0.093,-21.594 0.039,-21.904 -0.048,-22.197C-0.089,-22.337 -0.124,-22.496 0,-22.601" style="fill:rgb(6,103,56);fill-rule:nonzero;"/>
                </g>
                <g transform="matrix(5.98321,0,0,5.98321,-3616.84,75.9271)">
                    <path d="M0,-12.207C0.113,-11.874 0.333,-11.613 0.703,-11.572C1.101,-11.524 1.304,-11.253 1.396,-10.934C1.91,-9.219 2.706,-7.629 3.449,-6.008C3.587,-5.703 3.893,-5.205 3.623,-5.031C3.297,-4.821 2.604,-5.72 2.395,-5.941C1.931,-6.43 1.696,-7.083 1.659,-7.746C1.633,-8.197 1.47,-8.346 0.982,-8.304C0.523,-8.265 0.23,-8.162 0.182,-7.674C0.143,-7.27 0.121,-6.795 0.615,-6.732C1.125,-6.674 1.411,-6.352 1.722,-6.057C2.821,-5.009 3.68,-3.889 4.21,-2.361C4.726,-0.874 5.256,0.606 5.885,2.051C6.448,3.335 7.057,4.605 7.87,5.748C8.697,6.908 9.831,7.769 10.979,8.585C14.883,11.3 19.034,10.998 23.221,9.332C25.676,8.356 27.422,6.502 29.041,4.492C29.991,3.321 30.977,2.133 31.473,0.731C31.987,-0.729 33.006,-1.691 33.959,-2.791C34.806,-3.771 35.452,-4.922 36.158,-6.018C36.457,-6.485 36.713,-6.967 37.133,-7.355C37.549,-7.745 37.639,-8.271 37.549,-8.822C37.466,-9.343 36.977,-9.538 36.665,-9.126C36.268,-8.604 35.673,-8.087 35.997,-7.277C36.128,-6.941 36.094,-6.559 35.893,-6.313C35.01,-5.207 34.449,-3.876 33.474,-2.833C33.333,-2.683 33.15,-2.386 32.964,-2.492C32.753,-2.614 32.978,-2.888 33.03,-3.085C33.611,-5.319 34.199,-7.546 34.798,-9.775C34.936,-10.31 35.106,-10.81 35.562,-11.21C36.019,-11.614 36.098,-12.243 36.114,-12.827C36.127,-13.304 35.85,-13.629 35.353,-13.655C34.893,-13.679 34.645,-13.386 34.549,-12.96C34.525,-12.851 34.509,-12.732 34.539,-12.63C35.035,-10.787 34.195,-9.136 33.776,-7.433C33.425,-5.976 32.964,-4.542 32.549,-3.099C32.479,-2.862 32.399,-2.619 32.281,-2.402C32.08,-2.019 31.917,-1.503 31.386,-1.532C30.785,-1.562 30.301,-1.932 29.872,-2.342C29.703,-2.506 29.816,-2.7 29.915,-2.874C31.601,-5.837 32.159,-9.199 33.259,-12.37C33.427,-12.865 33.518,-13.396 33.472,-13.932C33.404,-14.763 34.185,-15.307 34.202,-16.11C34.207,-16.332 34.306,-16.552 34.28,-16.762C34.243,-17.074 34.104,-17.355 33.738,-17.419C33.405,-17.477 33.142,-17.249 33.078,-17.02C32.851,-16.229 32.272,-15.5 32.865,-14.575C33.19,-14.078 33.081,-13.371 32.902,-12.783C32.064,-9.993 31.417,-7.139 30.272,-4.443C30.079,-3.986 29.781,-3.576 29.567,-3.129C29.361,-2.703 29.078,-2.688 28.68,-2.826C27.572,-3.207 27.463,-3.321 28.068,-4.324C29.065,-5.979 29.519,-7.87 30.424,-9.559C30.696,-10.074 30.809,-10.667 30.841,-11.253C30.888,-12.178 31.021,-13.084 31.282,-13.967C31.498,-14.68 31.196,-15.219 30.713,-15.665C30.452,-15.906 30.089,-15.761 29.9,-15.503C29.493,-14.955 29.461,-14.321 29.65,-13.678C29.671,-13.602 29.725,-13.5 29.787,-13.478C31.041,-12.999 30.403,-11.997 30.367,-11.213C30.299,-9.642 29.305,-8.371 28.81,-6.931C28.493,-6.012 28.064,-5.141 27.536,-4.32C27.328,-3.995 27.25,-3.523 26.717,-3.733C26.201,-3.939 25.553,-3.993 25.561,-4.821C25.571,-6.081 25.636,-7.311 26.306,-8.438C26.589,-8.913 26.762,-9.455 26.968,-9.97C27.108,-10.315 27.238,-10.562 27.712,-10.607C28.392,-10.679 28.965,-11.576 28.861,-12.22C28.795,-12.619 28.583,-12.887 28.168,-12.944C27.781,-12.998 27.359,-12.933 27.299,-12.499C27.02,-10.453 25.812,-8.744 25.301,-6.79C25.162,-6.255 25.173,-5.688 25.107,-5.137C25.079,-4.897 25.119,-4.575 24.797,-4.535C24.597,-4.512 24.345,-4.594 24.176,-4.716C23.962,-4.867 24.05,-5.123 24.137,-5.327C24.865,-7.102 25.364,-8.954 25.991,-10.764C26.145,-11.215 26.256,-11.666 26.319,-12.136C26.563,-13.93 27.117,-15.646 27.573,-17.389C27.704,-17.888 27.766,-18.373 27.639,-18.865C27.551,-19.202 27.379,-19.529 26.974,-19.497C26.635,-19.47 26.479,-19.205 26.389,-18.878C26.236,-18.341 26.242,-17.795 26.483,-17.33C26.858,-16.623 26.832,-15.931 26.592,-15.233C26.273,-14.305 26.139,-13.352 25.975,-12.39C25.585,-10.135 24.682,-8.033 23.859,-5.909C23.721,-5.554 23.224,-4.987 22.785,-5.044C22.347,-5.1 22.596,-5.64 22.664,-5.934C22.746,-6.315 22.868,-6.687 22.972,-7.058C22.968,-7.059 22.96,-7.066 22.95,-7.068C23.301,-8.696 23.647,-10.325 24.007,-11.955C24.181,-12.762 24.279,-13.591 24.911,-14.238C25.215,-14.547 25.159,-15.015 25.154,-15.433C25.144,-15.934 24.829,-16.234 24.41,-16.315C23.989,-16.391 23.676,-16.079 23.517,-15.695C23.341,-15.273 23.285,-14.749 23.503,-14.394C24.07,-13.46 23.753,-12.537 23.526,-11.66C23.201,-10.392 22.968,-9.109 22.781,-7.821C22.679,-7.15 22.419,-6.537 22.225,-5.9C22.059,-5.352 21.702,-5.192 21.136,-5.271C20.534,-5.363 20.419,-5.577 20.63,-6.163C21.67,-9.075 22.436,-12.061 22.954,-15.11C23.08,-15.846 23.049,-16.608 23.086,-17.354C23.117,-18.049 23.168,-18.727 23.51,-19.365C23.826,-19.952 23.93,-20.589 23.424,-21.148C23.237,-21.36 22.938,-21.514 22.677,-21.314C22.109,-20.881 22.048,-20.201 22.241,-19.643C23.319,-16.516 22.198,-13.578 21.553,-10.605C21.237,-9.135 20.808,-7.695 20.246,-6.297C20.174,-6.118 20.118,-5.922 19.993,-5.783C19.62,-5.35 19.261,-5.423 19.109,-5.973C18.744,-7.252 19.095,-8.51 19.303,-9.765C19.385,-10.255 19.59,-10.723 19.736,-11.2C19.805,-11.413 19.849,-11.64 20.139,-11.663C21.002,-11.724 21.093,-12.412 21.18,-13.038C21.239,-13.443 21.179,-13.959 20.66,-14.038C20.126,-14.115 19.791,-13.66 19.764,-13.229C19.721,-12.541 19.448,-11.935 19.291,-11.296C18.858,-9.571 18.379,-7.852 18.573,-6.041C18.601,-5.774 18.534,-5.594 18.231,-5.597C17.9,-5.602 17.631,-5.655 17.626,-6.093C17.613,-7.068 17.666,-8.044 17.825,-9.001C18.305,-11.873 19.239,-14.647 19.733,-17.516C19.922,-18.633 19.842,-19.784 20.265,-20.87C20.367,-21.142 20.22,-21.52 20.158,-21.847C20.074,-22.249 19.723,-22.339 19.394,-22.376C19.009,-22.417 18.747,-22.15 18.673,-21.806C18.531,-21.191 18.532,-20.507 19.047,-20.102C19.512,-19.727 19.533,-19.319 19.457,-18.856C19.074,-16.524 18.655,-14.203 18.044,-11.915C17.562,-10.116 17.147,-8.298 17.155,-6.417C17.159,-6.018 17.075,-5.718 16.557,-5.716C15.962,-5.706 16,-6.077 15.974,-6.486C15.848,-8.283 16.34,-10.018 16.451,-11.788C16.579,-13.815 16.706,-15.842 16.52,-17.866C16.484,-18.272 16.619,-18.632 16.691,-19.01C16.774,-19.462 16.681,-19.867 16.18,-20.008C15.66,-20.153 15.408,-19.818 15.245,-19.393C14.952,-18.626 15.152,-17.899 15.832,-17.378C16.068,-17.194 16.102,-16.959 16.112,-16.72C16.192,-14.354 16.167,-11.992 15.76,-9.659C15.582,-8.635 15.553,-7.616 15.507,-6.587C15.496,-6.271 15.613,-5.8 15.036,-5.787C14.502,-5.778 14.329,-6.095 14.261,-6.575C13.95,-8.858 13.592,-11.137 13.307,-13.428C13.155,-14.619 13.312,-15.814 13.492,-16.999C13.643,-17.991 13.748,-18.984 13.694,-19.988C13.671,-20.477 13.807,-20.912 14.033,-21.343C14.33,-21.91 14.439,-22.503 14.036,-23.079C13.87,-23.319 13.659,-23.507 13.346,-23.465C12.993,-23.413 12.921,-23.124 12.895,-22.845C12.86,-22.487 12.752,-22.074 12.882,-21.771C13.618,-19.966 13.217,-18.15 12.995,-16.342C12.785,-14.641 12.899,-12.966 13.173,-11.284C13.417,-9.775 13.628,-8.263 13.819,-6.746C13.862,-6.419 14.129,-5.92 13.46,-5.851C12.925,-5.79 12.488,-5.832 12.324,-6.503C11.846,-8.452 11.566,-10.434 11.489,-12.434C11.404,-14.511 11.216,-16.588 11.374,-18.67C11.406,-19.057 11.376,-19.448 11.34,-19.835C11.292,-20.339 11.236,-20.849 10.704,-21.11C10.529,-21.2 10.355,-21.162 10.256,-21.012C9.959,-20.559 10.022,-20.057 10.129,-19.564C10.154,-19.459 10.186,-19.324 10.264,-19.265C11.251,-18.492 10.925,-17.376 10.948,-16.403C11.025,-13.212 11.123,-10.026 11.793,-6.883C11.866,-6.559 12.288,-6.008 11.626,-5.842C11.014,-5.685 10.771,-6.145 10.6,-6.675C10.219,-7.858 10.021,-9.054 10.13,-10.287C10.245,-11.591 9.873,-12.886 10.141,-14.195C10.229,-14.603 9.94,-14.936 9.555,-15.113C9.292,-15.232 9.072,-15.118 8.92,-14.871C8.661,-14.442 8.444,-13.872 8.868,-13.572C9.99,-12.766 9.784,-11.61 9.737,-10.557C9.676,-9.171 9.846,-7.843 10.222,-6.524C10.301,-6.232 10.539,-5.863 9.973,-5.747C9.537,-5.661 9.247,-5.723 9.062,-6.209C8.45,-7.816 8.415,-9.527 8.098,-11.185C7.687,-13.333 8.258,-15.454 8.12,-17.591C8.036,-18.942 7.818,-20.289 7.941,-21.658C7.983,-22.095 7.817,-22.51 7.281,-22.559C6.742,-22.609 6.489,-22.25 6.492,-21.799C6.491,-21.178 5.934,-20.268 7.226,-20.184C7.558,-20.16 7.525,-19.764 7.562,-19.495C7.766,-18.198 7.835,-16.884 7.693,-15.585C7.352,-12.527 7.731,-9.546 8.53,-6.603C8.675,-6.084 8.808,-5.599 8.017,-5.561C7.566,-5.539 7.469,-5.906 7.384,-6.214C6.991,-7.628 6.321,-8.972 6.275,-10.477C6.222,-12.234 5.659,-13.917 5.439,-15.653C5.334,-16.463 5.391,-17.258 5.373,-18.059C5.36,-18.546 5.243,-19.083 4.614,-19.048C3.954,-19.005 3.901,-18.471 3.913,-17.932C3.924,-17.388 4.201,-16.935 4.523,-16.6C4.887,-16.218 5.023,-15.814 5.089,-15.349C5.359,-13.45 5.827,-11.589 5.963,-9.666C6.037,-8.62 6.503,-7.633 6.818,-6.63C6.924,-6.285 7.398,-5.751 6.714,-5.504C6.126,-5.289 5.506,-5.228 5.199,-6.025C4.471,-7.895 4.017,-9.838 3.662,-11.808C3.447,-13.012 3.103,-14.191 3.132,-15.428C3.144,-15.768 2.953,-16.07 2.787,-16.361C2.67,-16.567 2.616,-16.887 2.274,-16.776C2.005,-16.696 1.913,-16.445 1.877,-16.187C1.794,-15.669 1.876,-15.058 2.191,-14.758C2.978,-14.005 3.042,-13.023 3.217,-12.098C3.628,-9.908 4.117,-7.748 4.865,-5.646C4.93,-5.461 5.021,-5.266 4.755,-5.157C4.531,-5.063 4.352,-5.045 4.181,-5.29C3.859,-5.754 3.767,-6.319 3.507,-6.807C2.608,-8.476 2.142,-10.322 1.354,-12.039C1.289,-12.176 1.315,-12.365 1.312,-12.527C1.305,-12.87 1.163,-13.114 0.828,-13.234C0.542,-13.338 0.269,-13.326 0.064,-13.08C-0.148,-12.818 -0.098,-12.499 0,-12.207" style="fill:rgb(38,62,84);fill-rule:nonzero;"/>
                </g>
                <g transform="matrix(5.98321,0,0,5.98321,-3292.03,-331.698)">
                    <path d="M0,-0.75C-0.264,-0.987 -0.576,-0.846 -0.861,-0.743C-1.068,-0.665 -1.274,-0.578 -1.476,-0.487C-2.638,0.021 -3.577,0.86 -4.56,1.634C-6.01,2.777 -7.305,4.057 -8.358,5.589C-9.146,6.741 -9.853,7.939 -10.615,9.104C-10.719,9.263 -10.811,9.565 -11.01,9.487C-11.182,9.422 -11,9.163 -10.957,9.002C-10.277,6.379 -10.11,3.707 -10.215,1.012C-10.237,0.39 -10.042,-0.193 -9.624,-0.581C-8.172,-1.933 -6.895,-3.435 -5.705,-5.014C-4.699,-6.351 -3.677,-7.683 -2.746,-9.071C-1.693,-10.64 -1.036,-12.405 -0.543,-14.224C-0.452,-14.55 -0.464,-14.903 -0.436,-15.246C-0.422,-15.411 -0.421,-15.593 -0.581,-15.681C-0.773,-15.788 -0.864,-15.598 -0.973,-15.49C-1.289,-15.177 -1.599,-14.86 -1.919,-14.55C-3.768,-12.778 -5.297,-10.726 -6.57,-8.536C-7.92,-6.211 -9.351,-3.892 -10.021,-1.23C-10.045,-1.135 -10.082,-1 -10.201,-1.029C-10.313,-1.057 -10.272,-1.195 -10.279,-1.291C-10.31,-1.653 -10.345,-2.015 -10.369,-2.377C-10.589,-5.338 -11.111,-8.263 -11.403,-11.214C-11.518,-12.376 -11.656,-13.537 -11.671,-14.705C-11.678,-15.207 -11.517,-15.851 -11.623,-16.335C-11.726,-16.81 -12.022,-16.572 -12.074,-16.207C-12.158,-15.62 -12.093,-14.995 -12.04,-14.408C-11.818,-11.9 -11.613,-9.39 -11.226,-6.899C-10.902,-4.828 -10.677,-2.74 -10.589,-0.642C-10.581,-0.485 -10.52,-0.286 -10.691,-0.202C-10.859,-0.12 -10.993,-0.269 -11.106,-0.383C-11.628,-0.917 -12.222,-1.366 -12.797,-1.838C-15.39,-3.981 -18.173,-5.747 -21.487,-6.585C-22.557,-6.853 -23.606,-6.797 -24.668,-6.705C-24.948,-6.683 -25.365,-6.542 -25.038,-6.127C-24.252,-5.132 -23.475,-4.119 -22.311,-3.51C-21.189,-2.921 -20.113,-2.247 -18.917,-1.793C-16.586,-0.909 -14.221,-0.191 -11.732,0.041C-10.565,0.15 -10.474,0.257 -10.487,1.455C-10.505,2.824 -10.536,4.196 -10.692,5.561C-10.785,6.815 -10.992,8.047 -11.371,9.244C-11.41,9.366 -11.391,9.574 -11.558,9.584C-11.715,9.595 -11.757,9.408 -11.822,9.286C-12.263,8.493 -12.616,7.635 -13.163,6.925C-14.121,5.687 -15.083,4.455 -16.346,3.463C-18.218,1.993 -20.323,1.013 -22.496,0.139C-22.698,0.057 -22.947,-0.056 -23.122,0.136C-23.301,0.331 -23.143,0.577 -23.06,0.759C-22.713,1.512 -22.319,2.232 -21.873,2.935C-20.747,4.688 -19.587,6.394 -17.979,7.766C-16.343,9.162 -14.455,10.038 -12.425,10.617C-11.835,10.782 -11.759,11.064 -11.88,11.492C-12.261,12.872 -12.685,14.24 -13.411,15.491C-13.493,15.631 -13.614,15.751 -13.52,15.923C-13.468,16.02 -13.371,16.06 -13.264,16.044C-13.072,16.016 -13.006,15.87 -12.956,15.71C-12.495,14.206 -11.805,12.779 -11.442,11.242C-11.411,11.106 -11.398,10.945 -11.25,10.882C-10.74,10.666 -10.372,10.246 -9.912,9.951C-7.59,8.464 -5.114,7.185 -3.082,5.282C-1.559,3.856 -0.351,2.204 0.109,0.108C0.173,-0.187 0.257,-0.517 0,-0.75" style="fill:rgb(6,103,56);fill-rule:nonzero;"/>
                </g>
                <g transform="matrix(5.98321,0,0,5.98321,-3424.07,-563.21)">
                    <path d="M0,8.535C0.573,8.648 1.013,8.905 1.381,9.296C2.502,10.474 3.937,11.191 5.327,11.953C5.962,12.302 6.497,12.828 7.199,13.053C8.422,13.449 8.423,13.445 8.398,14.76C8.398,14.896 8.384,15.031 8.389,15.162C8.408,16.22 8.193,16.37 7.184,15.959C6.132,15.531 5.074,15.111 4.055,14.622C2.647,13.949 1.445,13.392 0.654,11.989C0.435,11.605 0.191,11.068 -0.377,11.173C-0.89,11.271 -0.945,11.727 -0.748,12.155C-0.553,12.591 -0.298,12.984 0.2,13.071C0.809,13.182 1.28,13.543 1.782,13.861C3.615,15.03 5.686,15.689 7.695,16.46C8.301,16.693 8.526,16.888 8.512,17.467C8.506,17.656 8.519,17.843 8.541,18.031C8.636,18.874 8.521,19.03 7.671,19.016C7.349,19.015 7.027,18.932 6.719,18.847C5.808,18.586 4.902,18.313 3.998,18.036C3.045,17.739 2.27,17.172 1.634,16.423C1.448,16.205 1.41,15.875 1.249,15.632C1,15.272 0.636,15.103 0.189,15.23C-0.058,15.295 -0.268,15.401 -0.302,15.696C-0.354,16.198 0.593,17.227 1.089,17.11C1.512,17.008 1.761,17.188 2.022,17.418C2.33,17.689 2.643,17.952 3.027,18.091C4.722,18.707 6.4,19.398 8.257,19.356C8.774,19.346 9.214,20.142 8.892,20.549C8.741,20.742 8.515,20.868 8.285,20.949C7.811,21.105 7.278,21.186 6.79,21.304C6.238,21.438 5.682,21.558 5.118,21.623C3.505,21.817 1.813,20.993 1.058,19.557C0.887,19.232 0.626,19.083 0.272,19.088C-0.023,19.09 -0.256,19.202 -0.359,19.499C-0.53,19.985 0.012,20.973 0.52,20.929C1.177,20.874 1.644,21.225 2.178,21.456C2.928,21.781 3.731,21.998 4.552,22.028C5.116,22.044 5.681,21.92 6.234,21.827C6.856,21.723 7.454,21.548 8.053,21.356C8.376,21.253 9.118,20.993 9.234,21.503C9.36,22.046 8.79,22.481 8.333,22.833C7.153,23.75 5.807,24.248 4.347,24.493C3.817,24.58 3.415,24.521 3.053,24.076C2.715,23.661 2.241,23.464 1.79,23.894C1.338,24.323 1.616,24.754 1.948,25.096C2.301,25.458 2.716,25.917 3.237,25.386C3.575,25.044 3.965,24.952 4.389,24.878C6.035,24.588 7.548,24.008 8.85,22.922C9.047,22.756 9.172,22.339 9.552,22.563C9.821,22.718 9.825,23.183 10.219,23.144C10.707,23.095 10.777,22.053 11.35,22.741C11.766,23.241 12.154,23.783 12.766,24.045C13.061,24.174 13.274,24.309 13.422,24.592C13.613,24.942 13.553,25.57 14.188,25.249C15.033,24.828 15.141,23 13.907,23.563C13.213,23.882 12.638,23.611 12.16,23.1C11.923,22.85 11.722,22.553 11.53,22.262C11.432,22.111 11.212,21.962 11.307,21.777C11.404,21.583 11.653,21.676 11.833,21.69C13.09,21.791 14.311,21.639 15.496,21.202C16.08,20.985 16.422,21.767 17.064,21.556C17.635,21.365 18.631,19.945 17.504,19.812C16.743,19.721 15.928,20.607 15.252,20.847C14.241,21.206 13.167,21.35 12.095,21.246C11.705,21.211 11.391,21.093 11.513,20.598C11.58,20.342 11.673,19.962 12.015,20.033C12.879,20.22 13.851,19.835 14.653,19.563C15.474,19.28 16.276,18.926 17.038,18.506C17.518,18.242 17.927,17.826 18.592,18.107C18.861,18.22 19.208,17.974 19.433,17.717C19.776,17.326 20.444,16.375 19.481,16.173C19.042,16.083 18.678,16.507 18.409,16.788C18.135,17.073 17.978,17.46 17.632,17.706C16.988,18.161 16.273,18.509 15.537,18.801C14.876,19.06 14.202,19.327 13.519,19.534C13.29,19.605 13.041,19.653 12.802,19.687C12.531,19.723 12.046,19.81 11.867,19.524C11.777,19.384 11.795,19.118 11.811,18.966C11.855,18.49 11.812,18.015 12.357,17.867C14.51,17.27 16.513,16.369 18.346,15.092C19.091,14.575 19.737,13.925 20.674,13.667C21.163,13.536 21.436,12.988 21.499,12.456C21.53,12.192 21.294,12.023 21.037,11.969C20.415,11.843 20.193,12.336 19.918,12.725C19.828,12.852 19.748,13.011 19.729,13.163C19.68,13.593 19.398,13.832 19.078,14.039C17.928,14.796 16.827,15.644 15.554,16.185C14.56,16.601 13.658,17.229 12.57,17.426C12.126,17.508 11.953,17.386 12.054,16.93C12.228,16.151 12.17,15.474 13.166,14.901C15.509,13.549 17.875,12.151 19.841,10.231C20.088,9.989 20.346,9.811 20.776,9.9C21.352,10.022 22.063,9.361 22.065,8.763C22.065,8.315 21.819,8.054 21.345,8.088C21.004,8.107 20.777,8.333 20.536,8.562C19.949,9.123 19.714,9.924 19.06,10.469C17.873,11.462 16.564,12.262 15.27,13.09C14.544,13.555 13.801,14.001 13.052,14.423C12.826,14.549 12.48,14.786 12.391,14.242C12.187,12.99 12.621,12.155 13.78,11.576C13.948,11.489 14.135,11.431 14.29,11.329C15.872,10.294 17.504,9.337 18.939,8.101C19.941,7.243 20.891,6.32 21.954,5.532C22.396,5.196 23.586,4.181 23.097,3.51C22.452,2.634 21.106,4.603 21.047,5.181C20.979,5.804 20.659,6.152 20.247,6.504C19.852,6.831 19.452,7.152 19.068,7.498C17.454,8.942 15.649,10.122 13.755,11.152C12.715,11.716 12.689,11.668 12.742,10.433C12.754,10.221 12.768,10.001 12.749,9.786C12.671,8.94 12.979,8.41 13.87,8.242C14.23,8.175 14.586,7.976 14.888,7.762C16.095,6.897 17.258,5.969 18.476,5.128C20.297,3.873 21.223,1.807 22.849,0.383C22.963,0.281 23.035,0.112 23.077,-0.038C23.154,-0.302 23.173,-0.581 22.922,-0.783C22.646,-1.01 22.367,-0.939 22.104,-0.753C21.577,-0.381 21.347,0.185 21.332,0.781C21.318,1.228 21.141,1.545 20.934,1.891C19.385,4.474 16.765,5.833 14.462,7.546C14.099,7.817 13.53,8.163 13.133,7.873C12.851,7.663 13.034,7.066 13.078,6.64C13.105,6.371 13.11,6.1 13.114,5.833C13.121,5.408 13.259,5.128 13.727,5.017C14.257,4.89 14.675,4.515 15.145,4.255C17.113,3.169 18.436,1.334 19.803,-0.393C20.478,-1.249 21.221,-2.002 21.972,-2.795C22.286,-3.125 22.574,-3.422 22.242,-3.895C22.016,-4.213 21.602,-4.327 21.274,-4.084C20.769,-3.705 20.186,-3.316 20.456,-2.501C20.588,-2.103 20.373,-1.771 20.16,-1.458C19.915,-1.098 19.679,-0.737 19.43,-0.381C18.124,1.51 16.439,3.019 14.508,4.24C13.535,4.857 13.281,4.682 13.258,3.529C13.248,3.179 13.243,2.83 13.252,2.478C13.261,2.297 13.223,2.09 13.455,1.991C14.426,1.578 15.12,0.802 15.825,0.067C17.365,-1.543 19.134,-2.989 19.829,-5.241C19.924,-5.549 20.188,-5.608 20.431,-5.724C21.122,-6.065 21.562,-6.967 21.365,-7.608C21.184,-8.188 20.853,-8.276 20.43,-7.852C20.007,-7.433 19.838,-6.889 19.722,-6.33C19.493,-5.23 19.114,-4.173 18.427,-3.3C17.11,-1.618 15.578,-0.13 13.93,1.238C13.708,1.419 13.428,1.812 13.144,1.357C12.898,0.965 12.774,0.54 13.309,0.174C15.057,-1.025 16.356,-2.574 17.214,-4.552C18.124,-6.646 18.499,-8.905 19.421,-10.98C19.585,-11.344 19.364,-11.538 19.12,-11.722C18.818,-11.952 18.514,-11.91 18.228,-11.681C17.759,-11.299 17.564,-10.449 17.954,-10.002C18.368,-9.534 18.303,-9.078 18.175,-8.575C17.768,-6.972 17.165,-5.453 16.482,-3.947C15.828,-2.505 14.692,-1.529 13.616,-0.484C13.435,-0.307 13.145,-0.038 12.925,-0.232C12.667,-0.458 12.732,-0.827 12.952,-1.117C13.134,-1.352 13.316,-1.587 13.503,-1.818C14.977,-3.624 15.991,-5.627 16.347,-7.968C16.506,-8.989 16.502,-10.022 16.574,-11.048C16.633,-11.938 16.995,-12.862 17.019,-13.729C17.056,-14.934 15.451,-14.165 15.228,-13.44C14.908,-12.386 16.197,-12.59 16.165,-11.737C16.149,-11.358 16.119,-10.981 16.122,-10.605C16.126,-7.524 15.482,-4.664 13.31,-2.322C13.136,-2.136 13.008,-1.723 12.722,-1.892C12.423,-2.072 12.188,-2.427 12.23,-2.839C12.249,-3.023 12.339,-3.204 12.411,-3.378C13.391,-5.71 13.739,-8.197 14.247,-10.65C14.532,-12.025 14.57,-13.471 15.28,-14.753C15.491,-15.139 15.488,-15.642 15.225,-16.081C14.451,-17.382 13.423,-14.978 14.133,-14.072C14.381,-13.752 14.399,-13.438 14.332,-13.087C14.268,-12.768 14.186,-12.454 14.122,-12.135C13.569,-9.284 13.233,-6.378 12.079,-3.67C11.93,-3.318 11.866,-2.826 11.286,-2.953C10.776,-3.064 10.824,-3.489 10.817,-3.861C10.798,-4.615 10.793,-5.367 10.793,-6.119C10.79,-8.629 10.705,-11.137 11.027,-13.636C11.089,-14.114 11.212,-14.523 11.66,-14.872C12.229,-15.307 12.389,-15.984 12.145,-16.702C12.027,-17.054 11.806,-17.239 11.436,-17.254C11.07,-17.268 10.825,-17.13 10.672,-16.784C10.435,-16.237 10.339,-15.685 10.591,-15.139C10.751,-14.797 10.772,-14.464 10.727,-14.115C10.262,-10.566 10.47,-7.004 10.475,-3.443C10.472,-3.099 10.617,-2.74 10.42,-2.407C10.343,-2.275 10.317,-2.069 10.126,-2.057C9.921,-2.046 9.878,-2.249 9.829,-2.39C9.581,-3.072 9.377,-3.777 9.101,-4.448C8.114,-6.899 8.052,-9.5 7.806,-12.071C7.775,-12.386 7.806,-12.691 8.212,-12.854C8.892,-13.129 8.774,-13.707 8.588,-14.233C8.436,-14.66 8.132,-15.004 7.618,-14.893C6.952,-14.757 6.957,-14.181 6.941,-13.671C6.935,-13.436 6.98,-13.169 7.096,-12.967C7.314,-12.573 7.371,-12.16 7.404,-11.727C7.654,-8.572 8.042,-5.439 9.296,-2.49C9.632,-1.699 10.007,-0.937 9.64,-0.045C9.556,0.168 9.656,0.518 9.395,0.586C9.065,0.675 8.943,0.31 8.838,0.099C8.353,-0.837 7.883,-1.782 7.474,-2.748C6.498,-5.039 5.015,-7.205 5.777,-9.926C5.883,-10.305 5.628,-10.784 5.193,-11.005C4.965,-11.119 4.706,-11.113 4.522,-10.901C4.189,-10.527 4.231,-10.093 4.42,-9.684C5.104,-8.21 5.309,-6.573 5.973,-5.092C6.839,-3.179 7.45,-1.129 8.713,0.571C9.302,1.369 9.329,2.129 9.187,2.988C9.074,3.697 8.882,3.763 8.323,3.29C8.223,3.207 8.139,3.095 8.055,2.991C6.896,1.646 5.767,0.276 4.888,-1.28C4.155,-2.578 3.425,-3.857 3.43,-5.419C3.43,-6.003 3.075,-6.424 2.506,-6.627C2.244,-6.721 2.044,-6.574 2.012,-6.355C1.939,-5.81 1.961,-5.269 2.472,-4.905C2.86,-4.625 3.084,-4.245 3.247,-3.798C4.198,-1.129 5.813,1.164 7.715,3.174C8.659,4.171 9.161,4.987 8.811,6.283C8.738,6.561 8.882,6.965 8.571,7.092C8.193,7.244 7.916,6.894 7.686,6.658C5.961,4.87 4.33,3.006 2.922,0.956C2.468,0.294 1.942,-0.362 2.19,-1.337C2.326,-1.871 1.796,-2.315 1.317,-2.59C0.354,-3.141 0.719,-1.387 0.905,-1.074C1.285,-0.447 1.905,0.001 2.246,0.656C3.193,2.474 4.731,3.835 5.978,5.42C6.688,6.321 7.408,7.255 8.527,7.74C8.84,7.876 8.734,9.894 8.426,10.076C8.228,10.196 8.004,10.173 7.8,10.084C7.527,9.966 7.259,9.835 7.002,9.691C5.16,8.657 3.768,7.107 2.346,5.599C1.667,4.877 1.062,4.146 1.1,3.067C1.105,2.787 0.962,2.464 0.722,2.277C0.391,2.017 -0.257,1.177 -0.577,1.914C-0.738,2.296 -0.577,2.765 -0.418,3.117C-0.126,3.758 0.532,3.974 0.927,4.494C1.81,5.653 2.798,6.723 3.864,7.723C5.051,8.831 6.239,9.93 7.809,10.488C8.516,10.742 8.808,11.523 8.4,12.383C8.078,13.047 7.435,12.733 7.06,12.509C5.556,11.613 4.003,10.808 2.551,9.818C1.615,9.175 1.043,8.206 0.411,7.295C0.056,6.783 -0.872,5.53 -1.216,6.867C-1.419,7.657 -0.981,8.336 0,8.535" style="fill:rgb(40,82,100);fill-rule:nonzero;"/>
                </g>
                <g transform="matrix(5.98321,0,0,5.98321,-4177.56,-366.733)">
                    <path d="M0,-25.882C1.91,-25.178 3.33,-23.175 3.372,-21.152C3.415,-19.561 3.367,-18.041 1.971,-16.889C1.338,-16.364 1.956,-16.307 2.349,-16.297C4.381,-16.223 6.398,-16.082 8.42,-15.876C10.099,-15.71 11.719,-15.291 13.354,-14.918C13.601,-14.859 14.026,-14.852 13.979,-14.528C13.916,-14.059 13.495,-14.269 13.216,-14.326C10.59,-14.924 7.943,-15.442 5.243,-15.543C4.384,-15.576 3.525,-15.622 2.665,-15.668C1.897,-15.707 1.498,-15.54 2.014,-14.69C2.604,-13.716 2.852,-12.611 3.112,-11.506C3.614,-9.368 2.631,-7.771 1.275,-6.361C0.475,-5.529 -0.658,-5.482 -1.683,-5.894C-2.586,-6.25 -2.814,-7.187 -2.814,-8.056C-2.814,-10.461 -2.444,-12.816 -1.193,-14.924C-0.689,-15.772 -0.885,-16.032 -1.779,-16.016C-3.065,-15.997 -4.35,-15.965 -5.636,-15.952C-6.452,-15.942 -6.823,-15.744 -6.376,-14.844C-5.695,-13.458 -5.591,-11.91 -5.314,-10.422C-5.077,-9.191 -5.424,-8.002 -5.908,-6.88C-6.368,-5.8 -7.665,-5.074 -8.746,-5.194C-9.965,-5.324 -10.909,-6.226 -11.149,-7.573C-11.645,-10.319 -10.901,-12.735 -9.149,-14.881C-8.964,-15.104 -8.493,-15.271 -8.667,-15.584C-8.85,-15.923 -9.306,-15.745 -9.635,-15.687C-11.015,-15.445 -12.392,-15.157 -13.771,-14.902C-14.55,-14.751 -14.84,-14.612 -14.27,-13.721C-12.75,-11.359 -12.757,-8.778 -13.678,-6.198C-13.933,-5.506 -14.554,-5.001 -15.212,-4.631C-16.661,-3.828 -17.934,-4.332 -18.442,-5.934C-19.117,-8.033 -18.661,-10.022 -17.762,-11.952C-17.435,-12.644 -16.65,-13.487 -16.99,-14.011C-17.337,-14.533 -18.359,-13.959 -19.075,-13.839C-20.076,-13.684 -21.075,-13.498 -22.073,-13.298C-22.742,-13.168 -22.905,-12.901 -22.371,-12.327C-20.842,-10.692 -19.803,-8.804 -19.527,-6.544C-19.365,-5.276 -19.553,-4.137 -20.659,-3.295C-21.209,-2.881 -21.824,-2.717 -22.406,-3.071C-23.714,-3.847 -24.802,-4.843 -24.954,-6.498C-25.111,-8.211 -25.169,-9.932 -24.868,-11.634C-24.736,-12.396 -24.835,-12.761 -25.744,-12.502C-26.678,-12.242 -27.647,-12.096 -28.606,-11.893C-28.818,-11.85 -29.138,-11.937 -29.18,-11.627C-29.211,-11.344 -28.888,-11.316 -28.702,-11.186C-26.73,-9.826 -25.652,-8.033 -25.914,-5.543C-26.116,-3.639 -27.013,-2.806 -29.205,-2.665C-30.921,-2.555 -32.312,-3.567 -32.65,-5.175C-33.007,-6.86 -32.42,-8.427 -32.031,-10.012C-31.741,-11.19 -31.83,-11.321 -33.012,-11.055C-34.419,-10.739 -35.818,-10.397 -37.217,-10.062C-37.435,-10.006 -37.742,-10.002 -37.753,-9.721C-37.755,-9.583 -37.546,-9.403 -37.394,-9.297C-35.82,-8.188 -34.695,-6.725 -33.828,-5.026C-33.46,-4.309 -33.254,-3.573 -33.349,-2.769C-33.532,-1.213 -34.951,-0.288 -36.411,-0.837C-39.842,-2.132 -41.158,-4.397 -40.503,-8.329C-40.302,-9.553 -40.211,-9.475 -41.493,-9.404C-42.436,-9.345 -43.332,-9.094 -44.247,-8.926C-44.956,-8.801 -44.861,-8.579 -44.416,-8.136C-42.789,-6.508 -42.254,-4.549 -42.95,-2.346C-43.603,-0.277 -45.556,0.499 -47.695,-0.378C-49.523,-1.134 -50.224,-3.133 -49.299,-4.981C-48.812,-5.959 -48.331,-6.943 -47.809,-7.898C-47.492,-8.458 -47.618,-8.657 -48.247,-8.675C-49.222,-8.699 -50.204,-8.715 -51.172,-8.812C-51.91,-8.893 -51.981,-8.626 -51.727,-8.038C-51.068,-6.493 -51.401,-5.115 -52.329,-3.744C-53.405,-2.159 -54.895,-1.654 -56.686,-1.832C-58.379,-2.004 -59.329,-4.617 -58.318,-6.276C-57.714,-7.269 -56.755,-7.897 -55.86,-8.586C-55.65,-8.746 -55.238,-8.83 -55.319,-9.117C-55.418,-9.476 -55.895,-9.394 -56.139,-9.336C-57.353,-9.061 -58.566,-8.76 -59.745,-8.369C-61.217,-7.878 -62.602,-8.133 -63.949,-8.743C-65.012,-9.224 -65.653,-10.096 -65.94,-11.212C-66.256,-12.436 -65.626,-13.523 -64.44,-13.829C-61.852,-14.509 -58.507,-13.234 -57.011,-11.008C-56.657,-10.48 -54.288,-9.653 -53.833,-9.949C-53.422,-10.216 -53.81,-10.415 -53.99,-10.545C-55.006,-11.285 -55.974,-12.067 -56.804,-13.01C-57.426,-13.721 -57.967,-14.477 -58.354,-15.343C-58.741,-16.229 -58.652,-17.039 -58.02,-17.741C-57.423,-18.407 -56.596,-18.359 -55.831,-18.182C-54.927,-17.976 -54.078,-17.472 -53.69,-16.659C-52.882,-14.981 -52.06,-13.273 -52.127,-11.321C-52.181,-9.702 -52.051,-9.542 -50.381,-9.414C-49.448,-9.348 -48.513,-9.341 -47.577,-9.32C-47.355,-9.318 -47.044,-9.276 -46.981,-9.562C-46.929,-9.821 -47.212,-9.93 -47.398,-10.066C-48.912,-11.147 -50.284,-12.343 -50.756,-14.254C-50.973,-15.14 -51.168,-16.066 -50.317,-16.738C-49.38,-17.476 -48.338,-17.608 -47.244,-17.057C-45.077,-15.973 -43.814,-13.377 -44.296,-10.694C-44.499,-9.58 -44.095,-9.5 -43.227,-9.69C-42.616,-9.822 -41.994,-9.895 -41.374,-9.988C-40.986,-10.043 -40.48,-10.003 -40.339,-10.393C-40.2,-10.789 -40.622,-11.097 -40.871,-11.372C-42.156,-12.804 -42.969,-14.467 -43.417,-16.322C-43.806,-17.913 -43.565,-18.872 -42.708,-19.375C-41.864,-19.877 -39.989,-19.536 -39.124,-18.641C-37.633,-17.082 -37.22,-15.179 -37.599,-13.111C-37.724,-12.435 -37.933,-11.746 -38.332,-11.147C-38.655,-10.671 -38.548,-10.379 -37.931,-10.517C-36.099,-10.912 -34.258,-11.287 -32.452,-11.777C-31.39,-12.067 -32.379,-12.442 -32.564,-12.552C-34.022,-13.429 -35.063,-14.65 -35.755,-16.192C-36.187,-17.152 -36.327,-18.135 -35.98,-19.155C-35.648,-20.121 -34.747,-20.64 -33.784,-20.446C-30.758,-19.833 -28.926,-17.567 -29.06,-14.524C-29.075,-14.118 -29.305,-13.709 -29.492,-13.322C-29.836,-12.609 -29.691,-12.248 -28.855,-12.423C-27.749,-12.657 -26.661,-12.968 -25.556,-13.216C-24.83,-13.382 -24.659,-13.787 -25.235,-14.234C-26.897,-15.551 -27.717,-17.404 -28.582,-19.233C-29.399,-20.962 -28.485,-23.031 -26.844,-23.018C-25.87,-23.014 -24.999,-22.472 -24.209,-21.892C-22.901,-20.933 -22.432,-19.57 -22.408,-18.056C-22.159,-16.755 -22.477,-15.606 -23.094,-14.52C-23.197,-14.33 -23.461,-14.107 -23.243,-13.908C-23.103,-13.781 -22.795,-13.772 -22.583,-13.814C-20.623,-14.166 -18.671,-14.543 -16.713,-14.92C-16.539,-14.953 -16.284,-15.038 -16.229,-15.166C-16.084,-15.504 -16.428,-15.635 -16.628,-15.776C-17.981,-16.732 -19.174,-17.805 -20.017,-19.27C-20.862,-20.755 -20.991,-22.287 -20.174,-23.218C-19.5,-23.982 -17.83,-24.109 -16.414,-23.537C-14.721,-22.848 -14.07,-21.421 -13.835,-19.779C-13.665,-18.576 -13.729,-17.356 -14.223,-16.201C-14.384,-15.829 -14.508,-15.487 -13.869,-15.588C-12.216,-15.85 -10.557,-16.127 -8.906,-16.403C-8.415,-16.479 -8.459,-16.724 -8.737,-17.03C-9.208,-17.549 -9.679,-18.069 -10.15,-18.589C-10.977,-19.493 -11.61,-20.517 -12.031,-21.667C-12.624,-23.289 -12.242,-24.88 -11.087,-25.497C-9.932,-26.127 -8.008,-25.483 -7.066,-24.188C-6.154,-22.931 -6.044,-21.482 -6.175,-20.034C-6.253,-19.166 -6.346,-18.244 -6.802,-17.438C-7.193,-16.742 -6.841,-16.416 -6.202,-16.516C-4.452,-16.787 -2.704,-16.658 -0.95,-16.628C-0.773,-16.622 -0.496,-16.676 -0.44,-16.791C-0.279,-17.091 -0.574,-17.271 -0.752,-17.467C-1.791,-18.577 -2.396,-19.923 -2.914,-21.321C-3.309,-22.389 -3.235,-23.48 -2.884,-24.539C-2.438,-25.886 -1.345,-26.381 0,-25.882" style="fill:rgb(82,142,128);fill-rule:nonzero;"/>
                </g>
                <g transform="matrix(5.98321,0,0,5.98321,-3480.55,-173.524)">
                    <path d="M0,14.159C-0.085,14.339 -0.263,14.334 -0.404,14.293C-1.477,13.989 -2.535,13.595 -3.634,13.341C-4.076,13.242 -4.514,13.401 -4.993,13.415C-5.949,13.446 -6.808,13.158 -7.658,12.913C-10.573,12.064 -12.85,10.415 -15.08,8.669C-16.449,7.599 -17.713,6.431 -19.049,5.327C-20.228,4.349 -20.919,2.953 -21.979,1.867C-22.083,1.722 -22.179,1.572 -22.29,1.432C-22.511,1.156 -22.656,0.859 -22.407,0.461C-22.144,0.044 -21.722,-0.067 -21.306,-0.105C-20.442,-0.18 -19.865,0.257 -19.327,0.693C-17.917,1.853 -16.424,2.893 -14.8,3.818C-13.611,4.487 -12.586,5.392 -11.59,6.296C-9.509,8.172 -7.244,9.857 -5.018,11.583C-3.639,12.651 -2.025,13.444 -0.209,13.875C-0.072,13.909 0.092,13.974 0,14.159" style="fill:rgb(6,103,56);fill-rule:nonzero;"/>
                </g>
                <g transform="matrix(5.98321,0,0,5.98321,-3992.67,-254.418)">
                    <path d="M0,-5.056C2.122,-5.778 4.246,-6.487 6.337,-7.304C8.187,-8.026 10.149,-8.342 12.086,-8.712C13.008,-8.889 13.981,-8.74 14.935,-8.859C15.696,-8.953 16.269,-9.242 16.686,-9.871C16.754,-9.974 16.833,-10.068 16.913,-10.163C16.984,-10.248 17.084,-10.325 17.182,-10.244C17.285,-10.161 17.223,-10.044 17.158,-9.959C16.716,-9.361 16.319,-8.713 15.805,-8.178C15.276,-7.632 14.967,-7 14.97,-6.292C14.982,-4.815 14.331,-3.596 13.609,-2.4C12.971,-1.342 12.292,-0.308 11.63,0.737C11.053,1.652 10.183,2.279 9.375,2.955C8.485,3.701 7.487,4.31 6.466,4.87C6.242,4.993 5.99,5.269 5.76,5.04C5.505,4.786 5.561,4.428 5.762,4.112C6.162,3.479 6.683,2.951 7.204,2.426C9.328,0.276 11.29,-2.01 12.998,-4.506C13.305,-4.956 13.596,-5.416 13.894,-5.875C13.949,-5.96 14.051,-6.086 13.966,-6.157C13.846,-6.252 13.748,-6.109 13.667,-6.023C12.718,-5.025 11.76,-4.041 10.83,-3.025C10.361,-2.511 9.795,-2.124 9.263,-1.69C6.29,0.747 2.887,2.397 -0.686,3.728C-1.213,3.926 -1.777,4.021 -2.35,3.892C-2.724,3.811 -2.811,3.608 -2.612,3.276C-2.301,2.755 -1.921,2.305 -1.401,1.97C1.399,0.187 4.283,-1.455 7.19,-3.046C9.402,-4.255 11.611,-5.473 13.826,-6.674C14.345,-6.955 14.654,-7.434 15.043,-7.837C15.11,-7.908 15.191,-8.023 15.119,-8.118C15.047,-8.213 14.919,-8.159 14.818,-8.142C14.28,-8.037 13.751,-7.893 13.053,-7.615C12.285,-7.138 11.207,-6.843 10.327,-6.111C9.295,-5.252 7.991,-4.871 6.737,-4.454C5.009,-3.881 3.259,-3.382 1.466,-3.062C0.202,-2.837 -1.07,-2.58 -2.368,-2.819C-2.583,-2.858 -2.87,-2.831 -2.921,-3.124C-2.967,-3.391 -2.804,-3.598 -2.581,-3.739C-1.766,-4.266 -0.936,-4.738 0,-5.056" style="fill:rgb(6,103,56);fill-rule:nonzero;"/>
                </g>
                <g transform="matrix(5.98321,0,0,5.98321,-3289.4,-142.215)">
                    <path d="M0,-10.856C-0.685,-8.471 -1.383,-6.093 -1.962,-3.676C-2.474,-1.539 -3.427,0.444 -4.315,2.439C-4.737,3.388 -5.487,4.179 -5.982,5.121C-6.378,5.872 -6.477,6.575 -6.168,7.352C-6.118,7.478 -6.082,7.611 -6.047,7.743C-6.014,7.861 -6.007,8 -6.143,8.038C-6.284,8.079 -6.35,7.949 -6.387,7.837C-6.651,7.057 -6.989,6.287 -7.15,5.481C-7.313,4.655 -7.691,3.975 -8.337,3.531C-9.687,2.608 -10.383,1.247 -11.014,-0.166C-11.573,-1.414 -12.083,-2.685 -12.615,-3.947C-13.081,-5.049 -9.903,-2.52 -8.714,0.61C-8.499,1.173 -8.265,1.728 -8.036,2.288C-7.993,2.392 -7.944,2.565 -7.826,2.533C-7.663,2.484 -7.731,2.304 -7.758,2.177C-8.064,0.683 -8.354,-0.81 -8.689,-2.297C-8.86,-3.048 -8.854,-3.807 -8.913,-4.565C-9.249,-8.807 -8.598,-12.942 -7.549,-17.031C-7.396,-17.635 -7.127,-18.207 -6.647,-18.647C-6.338,-18.935 -6.098,-18.885 -5.922,-18.495C-5.645,-17.883 -5.476,-17.253 -5.501,-16.569C-5.649,-12.898 -5.98,-9.239 -6.371,-5.592C-6.669,-2.817 -6.958,-0.04 -7.266,2.732C-7.34,3.382 -7.099,3.965 -6.978,4.573C-6.956,4.679 -6.904,4.825 -6.772,4.82C-6.64,4.814 -6.608,4.664 -6.56,4.562C-6.315,4.006 -6.112,3.434 -5.924,2.624C-5.871,1.625 -5.458,0.459 -5.568,-0.803C-5.696,-2.285 -5.218,-3.71 -4.805,-5.114C-4.233,-7.046 -3.581,-8.953 -2.738,-10.784C-2.145,-12.074 -1.574,-13.394 -0.536,-14.421C-0.365,-14.592 -0.209,-14.87 0.09,-14.732C0.362,-14.604 0.446,-14.326 0.434,-14.034C0.398,-12.96 0.303,-11.907 0,-10.856" style="fill:rgb(6,103,56);fill-rule:nonzero;"/>
                </g>
                <g transform="matrix(5.98321,0,0,5.98321,-4515.78,-652.303)">
                    <path d="M0,-2.673C-0.008,-2.718 0.078,-2.792 0.136,-2.831C0.17,-2.855 0.233,-2.839 0.307,-2.842C0.288,-2.735 0.299,-2.63 0.253,-2.565C0.157,-2.427 0.031,-2.309 -0.083,-2.183C-0.291,-2.381 0.033,-2.495 0,-2.673M3.886,-2.672C3.364,-2.906 2.873,-3.126 2.383,-3.345C2.984,-3.377 3.483,-3.184 3.886,-2.672M-0.054,-0.844C0.016,-0.238 0.381,0.139 0.877,0.468C2.033,1.235 3.174,1.174 4.198,0.232C4.226,0.206 4.254,0.181 4.281,0.155C4.603,-0.148 4.923,-0.086 5.262,0.188C6.716,1.361 7.281,0.461 6.731,0.183C6.122,-0.124 4.831,-0.693 4.861,-1.371C4.879,-1.771 4.87,-2.169 4.678,-2.522C4.281,-3.248 3.69,-3.736 2.859,-3.9C2.179,-4.034 1.616,-3.943 0.908,-3.594C0.797,-3.539 0.656,-3.528 0.528,-3.528C-0.138,-3.525 -0.608,-3.128 -0.698,-2.472C-0.726,-2.274 -0.708,-2.066 -0.754,-1.873C-0.855,-1.455 -0.619,-1.246 -0.293,-1.108C-0.156,-1.05 -0.072,-1 -0.054,-0.844" style="fill:rgb(82,142,128);fill-rule:nonzero;"/>
                </g>
                <g transform="matrix(5.98321,0,0,5.98321,-4402.1,-553.856)">
                    <path d="M0,-4.149C0.034,-3.953 -0.115,-3.855 -0.254,-3.807C-1.307,-3.44 -2.399,-3.155 -3.445,-2.732C-3.864,-2.56 -4.131,-2.179 -4.515,-1.892C-5.28,-1.317 -6.149,-1.06 -6.986,-0.773C-9.86,0.205 -12.671,0.163 -15.499,0.013C-17.234,-0.077 -18.94,-0.308 -20.667,-0.444C-22.194,-0.568 -23.562,-1.314 -25.053,-1.595C-25.221,-1.654 -25.386,-1.722 -25.557,-1.773C-25.896,-1.872 -26.186,-2.032 -26.211,-2.501C-26.235,-2.994 -25.953,-3.326 -25.634,-3.597C-24.97,-4.153 -24.247,-4.127 -23.556,-4.078C-21.735,-3.939 -19.915,-3.944 -18.055,-4.12C-16.697,-4.254 -15.338,-4.101 -14.004,-3.933C-11.223,-3.592 -8.402,-3.513 -5.588,-3.378C-3.846,-3.295 -2.068,-3.572 -0.334,-4.262C-0.203,-4.312 -0.031,-4.354 0,-4.149" style="fill:rgb(6,103,56);fill-rule:nonzero;"/>
                </g>
                <g transform="matrix(5.98321,0,0,5.98321,-3247.61,-25.8336)">
                    <path d="M0,-28.792C-0.237,-27.971 -0.474,-27.15 -0.712,-26.329C-1.451,-23.78 -2.529,-21.368 -3.747,-19.021C-5.251,-16.125 -6.856,-13.282 -8.331,-10.372C-9.251,-8.557 -9.791,-6.627 -9.553,-4.533C-9.416,-3.338 -10.185,-2.457 -10.826,-1.557C-11.189,-1.048 -11.561,-0.545 -11.866,0C-7.752,-5.041 -4.722,-10.684 -2.623,-16.841C-2.558,-16.816 -2.494,-16.792 -2.429,-16.768C-2.679,-16.021 -2.92,-15.27 -3.181,-14.526C-3.446,-13.77 -3.715,-13.014 -4.012,-12.269C-4.315,-11.506 -4.643,-10.752 -4.982,-10.004C-5.312,-9.276 -5.652,-8.55 -6.023,-7.842C-6.403,-7.116 -6.816,-6.407 -7.234,-5.702C-7.639,-5.019 -8.068,-4.351 -8.486,-3.677C-8.457,-3.622 -8.429,-3.568 -8.4,-3.514C-8.058,-3.641 -7.7,-3.738 -7.376,-3.901C-5.853,-4.668 -4.829,-5.937 -3.982,-7.366C-2.241,-10.305 -1.33,-13.539 -0.654,-16.854C0.022,-20.167 0.367,-23.514 0.307,-26.897C0.296,-27.515 0.21,-28.131 0.159,-28.747L0,-28.792Z" style="fill:rgb(61,123,81);fill-rule:nonzero;"/>
                </g>
                <g transform="matrix(5.98321,0,0,5.98321,-3446.26,-703.089)">
                    <path d="M0,26.242C-0.198,26.252 -0.278,26.093 -0.309,25.949C-0.547,24.859 -0.7,23.741 -0.995,22.652C-1.116,22.216 -1.462,21.905 -1.701,21.489C-2.18,20.662 -2.331,19.768 -2.517,18.903C-3.144,15.932 -2.766,13.147 -2.28,10.356C-1.982,8.644 -1.549,6.978 -1.208,5.28C-0.902,3.779 0.002,2.511 0.46,1.064C0.539,0.904 0.625,0.748 0.696,0.584C0.835,0.259 1.029,-0.01 1.497,0.022C1.989,0.057 2.285,0.377 2.516,0.726C2.989,1.452 2.877,2.166 2.746,2.847C2.39,4.637 2.178,6.445 2.129,8.313C2.1,9.677 1.786,11.008 1.46,12.313C0.789,15.033 0.373,17.825 -0.098,20.602C-0.389,22.322 -0.326,24.12 0.152,25.924C0.186,26.06 0.207,26.236 0,26.242" style="fill:rgb(6,103,56);fill-rule:nonzero;"/>
                </g>
                <g transform="matrix(5.98321,0,0,5.98321,-3542.3,531.473)">
                    <path d="M0,-16.258C1.254,-17.801 3.693,-17.323 4.467,-15.439C4.709,-14.846 4.91,-14.234 5.051,-13.612C5.468,-11.815 4.749,-10.359 3.597,-9.06C3.059,-8.456 3.039,-8.462 3.78,-8.201C4.966,-7.785 6.213,-7.597 7.427,-7.279C7.855,-7.164 7.973,-7.371 7.878,-7.752C7.646,-8.682 7.64,-9.646 7.399,-10.58C6.925,-12.413 7.712,-14.236 9.269,-15.107C10.532,-15.817 11.707,-15.434 12.328,-14.124C13.056,-12.591 12.751,-11.164 11.947,-9.761C11.358,-8.735 10.48,-7.968 9.648,-7.155C9.414,-6.926 9.359,-6.817 9.748,-6.752C14.061,-5.99 18.353,-5.548 22.539,-7.369C22.679,-7.429 22.868,-7.566 22.957,-7.36C23.062,-7.11 22.801,-7.077 22.647,-7.012C21.183,-6.398 19.668,-5.994 18.08,-5.873C17.219,-5.793 16.355,-5.701 15.484,-5.761C15.295,-5.777 15.051,-5.926 14.934,-5.669C14.846,-5.473 15.036,-5.331 15.141,-5.196C16.076,-4.016 16.323,-2.654 16.232,-1.195C16.17,-0.147 15.613,0.577 14.703,0.984C13.599,1.478 12.411,1.617 11.216,1.451C10.463,1.344 9.973,0.921 9.696,0.156C9.223,-1.153 9.429,-2.303 10.221,-3.402C10.832,-4.243 11.508,-5.002 12.479,-5.445C12.622,-5.509 12.841,-5.58 12.83,-5.732C12.808,-5.956 12.55,-5.938 12.383,-5.964C11.305,-6.146 10.216,-6.277 9.142,-6.493C7.959,-6.73 6.791,-7.045 5.617,-7.313C5.448,-7.354 5.201,-7.452 5.103,-7.285C4.998,-7.099 5.24,-6.977 5.363,-6.855C6.147,-6.074 6.588,-5.091 6.921,-4.071C7.183,-3.266 7.089,-2.43 6.43,-1.849C5.626,-1.143 4.642,-0.786 3.571,-1.133C1.721,-1.737 0.76,-3.581 1.282,-5.442C1.477,-6.147 1.704,-6.843 1.947,-7.529C2.056,-7.83 2.039,-7.997 1.702,-8.086C0.35,-8.441 -1.027,-8.624 -2.422,-8.683C-2.549,-8.69 -2.733,-8.725 -2.783,-8.579C-2.841,-8.42 -2.658,-8.354 -2.562,-8.271C-1.507,-7.39 -0.501,-6.489 0.089,-5.192C0.787,-3.656 0.314,-2.458 -1.164,-1.682C-2.606,-0.924 -4.273,-1.604 -5.014,-2.963C-5.975,-4.726 -6.153,-6.546 -5.253,-8.391C-5.116,-8.672 -5.132,-8.755 -5.446,-8.759C-6.346,-8.763 -7.215,-8.563 -8.079,-8.36C-8.626,-8.234 -8.247,-7.957 -8.11,-7.775C-7.226,-6.602 -6.7,-5.287 -6.474,-3.835C-6.202,-2.078 -7.025,-0.657 -8.614,-0.196C-10.497,0.355 -12.227,-1.283 -11.925,-3.368C-11.79,-4.3 -11.431,-5.169 -10.984,-5.998C-10.757,-6.418 -10.542,-6.849 -10.328,-7.275C-10.261,-7.416 -10.151,-7.58 -10.294,-7.715C-10.425,-7.836 -10.602,-7.773 -10.749,-7.713C-11.534,-7.402 -12.319,-7.085 -13.018,-6.603C-13.23,-6.46 -13.449,-6.274 -13.337,-5.986C-13.05,-5.241 -13.442,-4.628 -13.76,-4.046C-14.399,-2.87 -15.32,-1.945 -16.657,-1.608C-17.935,-1.284 -19.081,-1.773 -20.145,-2.431C-20.735,-2.791 -21.227,-3.24 -21.377,-3.991C-21.665,-5.456 -21.011,-6.718 -19.631,-7.328C-17.576,-8.237 -15.603,-8.104 -13.694,-6.935C-13.559,-6.853 -13.459,-6.839 -13.319,-6.903C-12.589,-7.227 -11.858,-7.543 -11.129,-7.871C-11.033,-7.915 -10.877,-7.961 -10.92,-8.087C-10.941,-8.149 -11.116,-8.175 -11.224,-8.187C-12.208,-8.298 -13.149,-8.531 -14.049,-8.96C-14.844,-9.342 -15.549,-9.859 -16.166,-10.457C-16.75,-11.028 -17.128,-11.756 -16.803,-12.63C-16.431,-13.635 -15.779,-14.369 -14.674,-14.542C-12.766,-14.843 -9.519,-13.265 -9.371,-10.646C-9.349,-10.265 -9.202,-9.897 -9.278,-9.499C-9.42,-8.757 -9.2,-8.542 -8.419,-8.664C-7.653,-8.777 -6.89,-8.92 -6.122,-9.053C-6.054,-9.063 -5.982,-9.066 -5.923,-9.095C-5.753,-9.192 -5.446,-8.992 -5.399,-9.253C-5.363,-9.437 -5.657,-9.469 -5.801,-9.566C-7.551,-10.747 -8.573,-12.358 -8.747,-14.489C-8.793,-15.078 -8.622,-15.561 -8.215,-15.98C-6.375,-17.875 -3.465,-17.638 -2.439,-14.615C-2.127,-13.696 -2.088,-12.551 -2.665,-11.557C-3.042,-10.912 -3.157,-10.131 -3.682,-9.551C-3.907,-9.307 -3.74,-9.163 -3.491,-9.16C-1.865,-9.135 -0.26,-8.89 1.34,-8.652C1.429,-8.642 1.576,-8.625 1.571,-8.713C1.563,-8.835 1.468,-8.952 1.392,-9.063C0.55,-10.313 -0.234,-11.599 -0.7,-13.039C-1.088,-14.23 -0.734,-15.352 0,-16.258" style="fill:rgb(82,142,128);fill-rule:nonzero;"/>
                </g>
            </g>
        </g>
    </g>
</svg>
